<?xml version="1.0" encoding="UTF-8" standalone="no"?>
<!-- Made by Andrew Fitzsimon Created with Inkscape (http://www.inkscape.org/) -->

<svg
   xmlns:dc="http://purl.org/dc/elements/1.1/"
   xmlns:cc="http://creativecommons.org/ns#"
   xmlns:rdf="http://www.w3.org/1999/02/22-rdf-syntax-ns#"
   xmlns:svg="http://www.w3.org/2000/svg"
   xmlns="http://www.w3.org/2000/svg"
   xmlns:xlink="http://www.w3.org/1999/xlink"
   xmlns:sodipodi="http://sodipodi.sourceforge.net/DTD/sodipodi-0.dtd"
   xmlns:inkscape="http://www.inkscape.org/namespaces/inkscape"
   height="84.850105"
   id="svg1"
   inkscape:version="0.47 r22583"
   sodipodi:docname="ant.svg"
   sodipodi:version="0.32"
   width="80"
   inkscape:output_extension="org.inkscape.output.svg.inkscape"
   inkscape:export-filename="/home/rob/sayoperation/resources/png/ant.png"
   inkscape:export-xdpi="84.860001"
   inkscape:export-ydpi="84.860001"
   version="1.1">
  <metadata
     id="metadata3">
    <rdf:RDF>
      <cc:Work
         rdf:about="">
        <dc:title>Etiquette Icons</dc:title>
        <dc:description />
        <dc:subject>
          <rdf:Bag>
            <rdf:li />
            <rdf:li>insect</rdf:li>
            <rdf:li>animal</rdf:li>
          </rdf:Bag>
        </dc:subject>
        <dc:publisher>
          <cc:Agent
             rdf:about="http://www.openclipart.org">
            <dc:title>Andy Fitzsimon</dc:title>
          </cc:Agent>
        </dc:publisher>
        <dc:creator>
          <cc:Agent>
            <dc:title>Andy Fitzsimon</dc:title>
          </cc:Agent>
        </dc:creator>
        <dc:rights>
          <cc:Agent>
            <dc:title>Andy Fitzsimon</dc:title>
          </cc:Agent>
        </dc:rights>
        <dc:date />
        <dc:format>image/svg+xml</dc:format>
        <dc:type
           rdf:resource="http://purl.org/dc/dcmitype/StillImage" />
        <cc:license
           rdf:resource="http://web.resource.org/cc/PublicDomain" />
        <dc:language>en</dc:language>
      </cc:Work>
      <cc:License
         rdf:about="http://web.resource.org/cc/PublicDomain">
        <cc:permits
           rdf:resource="http://web.resource.org/cc/Reproduction" />
        <cc:permits
           rdf:resource="http://web.resource.org/cc/Distribution" />
        <cc:permits
           rdf:resource="http://web.resource.org/cc/DerivativeWorks" />
      </cc:License>
    </rdf:RDF>
  </metadata>
  <defs
     id="defs3">
    <inkscape:perspective
       sodipodi:type="inkscape:persp3d"
       inkscape:vp_x="0 : 80 : 1"
       inkscape:vp_y="0 : 1000 : 0"
       inkscape:vp_z="160 : 80 : 1"
       inkscape:persp3d-origin="80 : 53.333333 : 1"
       id="perspective69" />
    <linearGradient
       id="linearGradient2728">
      <stop
         id="stop2729"
         offset="0.0000000"
         style="stop-color:#f7f7f7;stop-opacity:0.0000000;" />
      <stop
         id="stop2731"
         offset="0.45062014"
         style="stop-color:#fbfbfb;stop-opacity:0.073446326;" />
      <stop
         id="stop2730"
         offset="1.0000000"
         style="stop-color:#ffffff;stop-opacity:0.78531075;" />
    </linearGradient>
    <linearGradient
       id="linearGradient1780">
      <stop
         id="stop1781"
         offset="0.0000000"
         style="stop-color:#000000;stop-opacity:0.0000000;" />
      <stop
         id="stop1783"
         offset="1.0000000"
         style="stop-color:#000000;stop-opacity:1.0000000;" />
    </linearGradient>
    <linearGradient
       id="linearGradient1776">
      <stop
         id="stop1777"
         offset="0.0000000"
         style="stop-color:#ebebeb;stop-opacity:1.0000000;" />
      <stop
         id="stop1778"
         offset="0.50000000"
         style="stop-color:#000000;stop-opacity:1.0000000;" />
      <stop
         id="stop1779"
         offset="1.0000000"
         style="stop-color:#000000;stop-opacity:1.0000000;" />
    </linearGradient>
    <linearGradient
       id="linearGradient1516">
      <stop
         id="stop1517"
         offset="0.0000000"
         style="stop-color:#f7f7f7;stop-opacity:0.0000000;" />
      <stop
         id="stop1518"
         offset="1"
         style="stop-color:#fff;stop-opacity:1;" />
    </linearGradient>
    <linearGradient
       id="linearGradient1512">
      <stop
         id="stop1513"
         offset="0.0000000"
         style="stop-color:#ebebeb;stop-opacity:1.0000000;" />
      <stop
         id="stop1579"
         offset="0.50000000"
         style="stop-color:#000000;stop-opacity:1.0000000;" />
      <stop
         id="stop1514"
         offset="1.0000000"
         style="stop-color:#000000;stop-opacity:1.0000000;" />
    </linearGradient>
    <pattern
       height="260.00000"
       id="pattern903"
       width="275.00000">
      <image
         height="260.00000"
         id="image904"
         sodipodi:absref="/home/andy/Desktop/ant.png"
         width="275.00000"
         xlink:href="/home/andy/Desktop/ant.png" />
    </pattern>
    <pattern
       height="260.00000"
       id="pattern912"
       width="275.00000">
      <image
         height="260.00000"
         id="image913"
         sodipodi:absref="/home/andy/ant.png"
         width="275.00000"
         xlink:href="/home/andy/ant.png" />
    </pattern>
    <linearGradient
       id="linearGradient1515"
       x1="0.24087591"
       x2="0.3649635"
       xlink:href="#linearGradient1516"
       y1="0.41830066"
       y2="-1.3071896" />
    <linearGradient
       id="linearGradient1519"
       x1="0.75199997"
       x2="-4.6240001"
       xlink:href="#linearGradient1780"
       y1="0.0078125"
       y2="4.6640625" />
    <radialGradient
       cx="0.5"
       cy="0.5"
       fx="0.5"
       fy="0.5"
       id="radialGradient1577"
       r="0.5"
       xlink:href="#linearGradient1516" />
    <radialGradient
       cx="0.66423357"
       cy="0.18300654"
       fx="0.66423357"
       fy="0.18300654"
       id="radialGradient1578"
       r="1.027791"
       xlink:href="#linearGradient2728" />
    <linearGradient
       id="linearGradient1729"
       x1="0.60992908"
       x2="0.8652482"
       xlink:href="#linearGradient1516"
       y1="0.40522876"
       y2="-0.11111111" />
    <linearGradient
       id="linearGradient1731"
       x1="0.25850341"
       x2="0.59183675"
       xlink:href="#linearGradient1516"
       y1="0.44444445"
       y2="-1.6209151" />
    <linearGradient
       id="linearGradient1734"
       x1="0.40606061"
       x2="0.92727274"
       xlink:href="#linearGradient1516"
       y1="0.503268"
       y2="-1.2222222" />
    <linearGradient
       id="linearGradient1772"
       xlink:href="#linearGradient1780" />
    <linearGradient
       gradientTransform="scale(1.004629,0.995392)"
       id="linearGradient1773"
       x1="0.79352957"
       x2="2.0534317"
       xlink:href="#linearGradient1780"
       y1="-0.0065662032"
       y2="3.9200234" />
    <linearGradient
       gradientTransform="scale(0.995584,1.004436)"
       id="linearGradient1774"
       x1="0.81175715"
       x2="2.1235132"
       xlink:href="#linearGradient1780"
       y1="-0.021190155"
       y2="4.0670066" />
    <linearGradient
       id="linearGradient1775"
       xlink:href="#linearGradient2728" />
    <linearGradient
       id="linearGradient1789"
       x1="0.080291972"
       x2="-0.47445256"
       xlink:href="#linearGradient1516"
       y1="0.11111111"
       y2="1.0392157" />
    <linearGradient
       id="linearGradient1790"
       xlink:href="#linearGradient1780" />
    <linearGradient
       inkscape:collect="always"
       xlink:href="#linearGradient1780"
       id="linearGradient2896"
       x1="107.1128"
       y1="231.84709"
       x2="-588.45624"
       y2="834.29187"
       gradientTransform="scale(0.97770895,1.0227993)"
       gradientUnits="userSpaceOnUse" />
    <linearGradient
       inkscape:collect="always"
       xlink:href="#linearGradient1780"
       id="linearGradient2898"
       x1="107.91702"
       y1="230.87805"
       x2="-602.17413"
       y2="845.9007"
       gradientTransform="scale(0.97876886,1.0216917)"
       gradientUnits="userSpaceOnUse" />
    <linearGradient
       inkscape:collect="always"
       xlink:href="#linearGradient1780"
       id="linearGradient2900"
       x1="108.72158"
       y1="229.91722"
       x2="-620.88776"
       y2="861.84491"
       gradientTransform="scale(0.98286089,1.017438)"
       gradientUnits="userSpaceOnUse" />
    <linearGradient
       inkscape:collect="always"
       xlink:href="#linearGradient1780"
       id="linearGradient2902"
       x1="108.44147"
       y1="230.17761"
       x2="-609.4162"
       y2="851.927"
       gradientTransform="scale(0.97846406,1.0220099)"
       gradientUnits="userSpaceOnUse" />
    <linearGradient
       inkscape:collect="always"
       xlink:href="#linearGradient1780"
       id="linearGradient2904"
       x1="108.72158"
       y1="229.91722"
       x2="-620.88776"
       y2="861.84491"
       gradientTransform="scale(0.98286089,1.017438)"
       gradientUnits="userSpaceOnUse" />
    <linearGradient
       inkscape:collect="always"
       xlink:href="#linearGradient1516"
       id="linearGradient2906"
       x1="156.13226"
       y1="97.763397"
       x2="162.72618"
       y2="84.428337"
       gradientTransform="scale(0.95810729,1.0437244)"
       gradientUnits="userSpaceOnUse" />
    <linearGradient
       inkscape:collect="always"
       xlink:href="#linearGradient1516"
       id="linearGradient2908"
       x1="110.17276"
       y1="135.0722"
       x2="115.20684"
       y2="103.88062"
       gradientTransform="scale(0.97848763,1.0219853)"
       gradientUnits="userSpaceOnUse" />
    <linearGradient
       inkscape:collect="always"
       xlink:href="#linearGradient1516"
       id="linearGradient2910"
       x1="121.01625"
       y1="123.45138"
       x2="130.71722"
       y2="91.335999"
       gradientTransform="scale(1.0353147,0.96588992)"
       gradientUnits="userSpaceOnUse" />
    <radialGradient
       inkscape:collect="always"
       xlink:href="#linearGradient2728"
       id="radialGradient2912"
       cx="64.958763"
       cy="71.93708"
       fx="64.958763"
       fy="71.93708"
       r="34.084785"
       gradientTransform="scale(0.94544298,1.0577053)"
       gradientUnits="userSpaceOnUse" />
    <linearGradient
       inkscape:collect="always"
       xlink:href="#linearGradient1516"
       id="linearGradient2914"
       x1="52.397083"
       y1="74.473274"
       x2="54.702099"
       y2="42.421089"
       gradientTransform="scale(0.94609989,1.0569708)"
       gradientUnits="userSpaceOnUse" />
  </defs>
  <sodipodi:namedview
     bordercolor="#666666"
     borderopacity="1.0"
     id="base"
     inkscape:cx="68.745139"
     inkscape:cy="45.011104"
     inkscape:pageopacity="0.0"
     inkscape:pageshadow="2"
     inkscape:window-height="576"
     inkscape:window-width="800"
     inkscape:window-x="0"
     inkscape:window-y="-3"
     inkscape:zoom="1.2537354"
     pagecolor="#ffffff"
     showborder="false"
     showguides="true"
     snaptoguides="true"
     showgrid="false"
     inkscape:current-layer="svg1"
     inkscape:window-maximized="1" />
  <g
     id="g2871"
     transform="matrix(0.59974528,0,0,0.59974528,-4.3095891,-4.3935972)">
    <g
       transform="translate(0.636764,-222.1277)"
       style="fill:url(#linearGradient2904)"
       id="g2835">
      <path
         style="fill:url(#linearGradient2896);fill-opacity:0.15527948;fill-rule:evenodd;stroke-width:1pt"
         id="path2739"
         d="m 86.409646,236.09923 -0.4375,0.0893 0.40625,7.02131 0,0.0298 -1.875,11.06749 0,0.0893 -3,10.97824 -7.875005,12.49556 -0.25,0.38676 0.15625,0.41653 0.843755,4.73045 c -1.138903,0.43173 -2.101723,0.97033 -2.812505,1.63632 l -6.875,-0.92229 1.4375,-12.82282 0.125,-1.1603 -1.1875,0.0297 -21.1875,0.35702 -11.90625,-2.0826 -6.1875,-7.17007 -0.6875,0.32727 5.3125,8.30062 0.25,0.38677 0.46875,0.0893 12.5,2.14209 0.125,0.0297 0.09375,0 20.03125,-0.32727 -1.375,12.55507 -0.09375,0.86278 0.875,0.23801 6.5625,1.66608 c -1.141322,2.26827 -1.360849,4.38785 -2.25,4.10568 -0.837309,-0.26572 -3.225072,0.31328 -5.46875,1.10081 l -25.65625,-3.80817 -0.5625,-0.11902 -0.4375,0.38677 -15.3125,14.6079 -10.5312496,4.07594 -0.03125,0.71403 11.3749996,-2.88588 0.28125,-0.0595 0.21875,-0.20826 15.09375,-14.39965 22.125,3.2429 c -0.177526,0.10354 -0.331807,0.20021 -0.46875,0.29751 -4.973292,-0.82915 -11.79247,-0.78066 -15.84375,5.23624 -6.70243,9.95437 -8.562599,22.95068 -3.46875,28.0555 5.093855,5.1048 21.702235,1.54877 25.1875,-5.08748 0.963992,-1.83551 1.893794,-4.22546 2.75,-6.75355 0.09678,-0.18879 0.217413,-0.31198 0.3125,-0.50577 0.868423,-1.76987 1.25574,-3.51356 1.375,-5.20649 0.888587,-3.58517 1.441366,-6.94994 1.3125,-9.1634 0.209425,-1.36537 0.623531,-2.76722 3.375,-2.11235 0.303245,0.0722 0.575761,-0.0494 0.875005,-0.0298 l -0.750005,6.15852 -0.0625,0.11901 0,0.14876 0,8.62788 -8.8125,18.0293 -0.0625,0.14877 -0.03125,0.17851 -2.09375,22.75976 0,0.20826 0.09375,0.26776 4.71875,11.36501 1.625,1.39831 -4.28125,-13.29885 2.0625,-22.31349 8.812505,-18.08881 0.125,-0.20825 0,-0.20826 0,-8.71714 2.40625,-7.40808 c 1.56385,-0.81459 2.34792,-1.48717 2.875,-2.0231 l -0.625,1.24956 0.375,9.19316 0.03125,0.38677 0.25,0.26776 8.65625,9.1039 c -0.0031,0.37594 -0.0625,5.53221 -0.0625,11.15675 -10e-6,2.91289 0.02679,5.83208 0.0625,8.09236 0.01785,1.13015 0.0306,2.08319 0.0625,2.79663 0.01594,0.35672 0.0092,0.65688 0.03125,0.89254 0.01103,0.11782 0.04543,0.22489 0.0625,0.32726 0.01707,0.10238 -0.01556,0.14889 0.125,0.41652 0.08156,0.15528 0.16137,0.22767 0.28125,0.41653 0.11988,0.18884 0.23947,0.46842 0.4375,0.77353 0.39603,0.61021 0.95333,1.43603 1.59375,2.40986 1.2808,1.94763 2.9659,4.48688 4.625,6.99155 3.31817,5.00935 6.562504,9.90719 6.562504,9.90719 l 1.4375,1.07106 c -1e-5,0 -2.87061,-7.10138 -6.187504,-12.10879 -1.65845,-2.50369 -3.34657,-5.01781 -4.625,-6.96182 -0.63922,-0.97202 -1.17062,-1.80605 -1.5625,-2.40985 -0.19594,-0.30192 -0.35537,-0.53542 -0.46875,-0.71404 -0.06867,-0.10818 -0.06372,-0.12893 -0.09375,-0.1785 -0.0046,-0.0346 -0.02562,-0.0588 -0.03125,-0.11901 -0.01682,-0.17941 -0.04734,-0.43442 -0.0625,-0.77353 -0.03032,-0.67827 -0.04481,-1.6169 -0.0625,-2.73713 -0.03539,-2.24048 -0.03125,-5.18473 -0.03125,-8.09236 -10e-6,-5.81528 0.03125,-11.54351 0.03125,-11.54351 l 0,-0.41652 -0.28125,-0.29751 -8.65625,-9.07415 -0.53125,-12.64432 -0.1875,0.38676 c 0.23232,-0.58581 0.69224,-1.22491 1.5,-1.90408 l 4.875,3.51065 0.34375,0.17852 0.375,-0.0893 12.625004,-2.61811 15.5625,9.87744 0.34375,0.20826 0.40625,-0.0595 18.1875,-2.35036 -0.0937,-0.74378 -17.96875,1.0413 -15.59375,-9.9072 -0.375,-0.238 -0.4375,0.0892 -12.750004,2.61812 -2.5625,-3.03463 c 0.32746,-0.12087 0.46819,-0.27795 0.84375,-0.38678 6.16624,-1.78667 5.09375,-5.11722 5.09375,-5.11723 0,0 2.40784,1.01167 5.625,-3.83792 1.40164,-2.11282 1.43994,-4.74274 0.78125,-7.19982 l 2.312504,2.49912 c 1.27978,1.38087 3.40694,1.64327 5.75,0.62478 2.50385,-1.0884 7.94856,-7.70195 9,-11.36502 0.41724,-1.45361 0.66322,-3.32839 0.875,-5.11722 0.73774,-0.13409 4.12733,-0.88022 4.46875,-5.59325 l -4.375,5.11723 c 0.262,-2.61968 0.20275,-4.99559 -0.84375,-5.74201 -0.8594,-0.61297 -2.84765,-1.37145 -5.1875,-1.72558 l 6.25,-1.99334 c -5.70427,-0.6389 -6.63751,1.45184 -6.78125,1.96359 -2.26561,-0.27394 -4.80264,-0.18872 -7.03125,0.86279 -4.805584,2.26738 -11.862384,5.72672 -11.781254,8.9254 0.0644,2.53964 0.3702,3.56768 1.15625,4.6412 -4.92977,-1.11364 -10.78988,3.62041 -11.53125,5.38499 -2.26596,2.61955 -1.0435,5.67766 -3.875,8.8659 l -1.34375,-2.79662 7.6875,-12.25755 0.09375,-0.11901 0.03125,-0.14875 3.0625,-11.1865 0,-0.0297 0,-0.0595 1.90625,-11.1865 0,-0.11901 0,-0.0893 -2.09375,-7.22957 z" />
      <path
         style="fill:url(#linearGradient2898);fill-opacity:0.15527948;fill-rule:evenodd;stroke-width:1pt"
         sodipodi:nodetypes="ccccccccccccccccccccccccccccccccccccccccccccccccccccccccccccc"
         id="path2824"
         d="m 85.65625,235.125 c -2.387707,3.58771 0.415899,8.12357 -1.390849,12.05063 -1.445279,9.03255 -3.293766,18.26968 -9.122572,25.62032 -2.276617,2.76503 -3.601857,6.10694 -2.537227,9.60655 -1.606779,2.10729 -7.809999,1.46591 -6.106551,-2.23367 -0.114271,-3.52682 2.030453,-9.08624 0.627829,-11.45008 -11.404157,-0.01 -23.265407,1.54046 -34.284014,-1.82823 -3.245703,-1.768 -4.226748,-7.31351 -8.717866,-6.70302 -0.423704,4.29249 3.552945,6.99331 5.25,10.46875 5.680078,2.87685 12.484521,2.80477 18.744235,3.22727 4.731885,-0.036 9.462201,-0.17082 14.193265,-0.25852 -0.469429,4.33326 -0.933933,8.66706 -1.40625,13 1.573374,1.10866 8.929837,0.7625 5.937897,3.32483 -7.525271,2.89709 -15.452651,-1.05423 -23.151171,-1.28807 -3.896164,0.003 -8.75237,-2.86919 -11.194244,1.5279 -6.447504,5.78168 -12.095356,13.48934 -20.984154,15.39805 -3.6740127,1.03218 -4.6461117,5.121 0.154204,3.94877 5.681707,-1.41988 12.027553,-2.48281 15.586193,-7.71797 3.894171,-3.04562 6.737785,-8.41402 11.838775,-9.25601 1.999468,1.21789 10.142706,0.68147 7.21875,2.09375 -7.777939,4.64334 -10.316962,14.44911 -11.489054,22.85704 -1.040524,6.37082 2.982465,14.57667 10.360275,13.90018 8.846373,0.67743 19.500791,-3.10091 22.041749,-12.50224 2.313998,-5.48691 3.67534,-11.39122 3.96203,-17.34873 3.003116,-2.59379 -0.147351,5.10213 0.735546,6.8653 0.856893,10.4855 -9.362195,17.92739 -9.322488,28.32273 -0.418683,6.63755 -1.800622,13.47933 -1.220498,20.04213 2.201263,5.85935 5.255548,11.85206 9.468035,12.98477 2.085309,0.19103 -2.183326,-5.12463 -3.11827,-8.53442 -3.266291,-7.83954 -0.630483,-16.22019 -0.22334,-24.32215 0.804115,-9.35641 8.985221,-16.40715 9.437352,-25.76043 -0.145083,-3.67578 0.04342,-7.68178 1.868663,-10.94168 -0.246582,4.23729 0.228171,9.09517 4.268554,11.45174 3.180656,2.63327 5.946745,6.15672 4.910267,10.48197 0.150617,6.35078 -0.53889,13.15571 0.944479,19.23512 4.953865,7.18494 9.156402,15.1488 15.09313,21.50502 4.301,3.8759 1.32603,-4.13267 -0.0289,-6.11135 -3.09868,-6.71023 -8.126345,-12.64552 -11.034986,-19.34186 -0.137088,-7.58819 0.129855,-15.38846 -0.433764,-22.84564 -3.520272,-4.12809 -9.61529,-7.58702 -8.738942,-13.80562 -0.435147,-2.50917 -1.229058,-8.8031 2.438174,-4.93522 5.45077,3.51674 11.966131,-3.6999 17.415078,-0.063 4.6468,3.08876 9.19088,6.71779 14.44819,8.6163 6.53139,-0.84265 13.06168,-1.69396 19.59375,-2.53125 -0.22415,-5.44362 -6.7006,-2.54969 -10.02547,-2.7883 -5.20019,0.56369 -10.77722,0.97294 -14.8257,-3.01769 -3.59328,-2.28258 -7.23605,-4.85366 -11.05508,-6.53776 -4.227905,0.46168 -8.977042,2.6646 -12.891057,2.07769 0.214195,-1.99323 4.644102,-2.03532 4.516057,-4.82769 3.600003,-1.79641 6.75614,-4.95198 6.875,-9.21875 5.11902,4.00913 11.18726,-1.67466 13.74936,-6.08587 2.89565,-2.86968 2.7304,-7.06595 4.50342,-10.34936 3.19436,-1.20382 4.31619,-5.36453 4.02847,-8.53352 -3.08393,0.12043 -4.444,6.64823 -5.78125,0.75 -4.71078,-0.91266 7.44825,-3.08458 3.3526,-3.55556 -3.556,-0.15509 -7.9464,-1.62367 -10.69635,1.49306 -7.03465,-0.15491 -13.491615,3.89043 -18.460311,8.4544 -2.744032,1.84204 1.704887,7.02309 -2.539689,6.20185 -3.710288,1.16137 -5.265079,2.99985 -2.997981,-1.71271 1.940031,-7.35345 4.326191,-14.90194 4.154231,-22.56854 -1.373078,-1.68637 -0.863578,-8.28218 -3.9375,-6.53125 z" />
      <path
         style="fill:url(#linearGradient2900);fill-opacity:0.15527948;fill-rule:evenodd;stroke-width:1pt"
         sodipodi:nodetypes="ccccccccccccccccccccccccccccccccccccccccccccccccc"
         id="path2830"
         d="m 85.6875,233.0625 c -5.327999,3.69905 -1.723381,11.0269 -3.891538,16.22009 -1.312221,9.2118 -5.04773,17.83903 -10.275977,25.46335 -1.45313,1.33 -0.634109,8.33359 -2.75829,5.5526 -0.550409,-4.3824 3.06349,-10.42448 -1.574195,-13.57979 -11.32292,-0.26387 -23.264697,1.52132 -34.21875,-2.625 -2.832643,-3.33591 -6.332373,-7.11222 -11.1875,-5.90625 -0.0353,5.65495 3.421211,10.45328 6.96875,14.4375 9.999953,3.72365 20.745523,3.08046 31.21875,3.0625 -0.4375,4.15625 -0.875,8.3125 -1.3125,12.46875 5.038656,1.14582 -4.441762,-0.0763 -6.21875,-0.28125 -6.14572,-0.86435 -12.854177,-2.89558 -18.835329,-1.00243 -7.34323,5.24307 -12.576165,13.50074 -21.50297,16.42252 -3.1440901,1.02512 -7.5973377,4.03123 -4.505451,7.54866 3.322597,1.88432 7.172224,-0.4054 10.630997,-0.98692 7.698352,-2.08581 12.105016,-8.9955 18.056503,-13.63808 5.4508,-2.97912 6.354994,0.45834 1.90625,3.84375 -4.136751,8.82502 -8.252552,20.23948 -2.1875,29.15625 5.296981,6.1182 14.205896,4.49882 21.0625,2.5625 3.262732,-1.11311 7.322246,-5.23371 4.1875,0.40625 -1.189291,8.53913 -2.86781,17.42622 -1.21598,25.97443 1.834733,8.01377 10.925989,13.19543 11.984161,12.74075 1.829976,-0.29516 -5.859205,-16.87762 -2.951733,-29.1037 0.273843,-8.47967 4.817345,-15.87494 8.154011,-23.36746 1.523006,-1.608 0.894643,-9.73355 2.592041,-7.02527 3.355634,2.94073 7.006442,6.41408 6.037443,11.36309 0.38277,8.87187 -1.080087,19.04208 5.557644,26.11626 4.170024,5.95677 7.762296,13.57836 14.279913,16.89565 4.80672,-1.49497 1.08584,-7.40041 -0.14101,-10.35179 -4.20919,-8.74718 -12.071537,-16.81129 -10.604413,-27.23794 -0.102026,-5.00316 -0.09463,-10.21669 -0.973327,-15.06652 -4.23914,-3.91745 -9.323215,-8.98185 -8.21875,-15.25 3.349478,1.20155 6.629399,1.46449 9.865735,-0.21741 8.155605,-2.81781 13.170805,6.10468 20.400475,7.74378 6.3413,2.25798 12.88721,-1.0364 19.36144,-1.13369 4.26752,0.933 6.06173,-2.69111 3.0997,-5.58955 -5.69767,-4.94266 -13.62935,0.75627 -20.05564,-2.2481 -7.18047,-2.08628 -12.85678,-10.45362 -21.100248,-8.17274 -4.949973,1.98002 1.203797,-2.1339 2.397288,-3.85104 0.85555,-4.2174 4.27377,-3.35243 7.41655,-4.1953 6.503,-2.68607 10.21712,-9.36013 12.44094,-15.65737 2.46996,-3.78432 6.47634,-8.23303 4.48626,-13.02233 -1.73173,-1.8255 -2.74813,-4.64527 -6.24569,-4.00747 -5.52134,-0.94834 -10.42925,2.46711 -15.7638,3.07976 -5.113492,1.82157 -9.81543,4.88707 -13.36551,9.02146 2.285498,-8.28027 4.607085,-17.96293 0.125,-25.84375 -0.838612,-0.82365 -2.052459,-1.20473 -3.125,-0.71875 z m 2.28125,30.21875 c -0.894986,0.0316 0.728018,-2.92203 0,0 z" />
      <path
         style="fill:url(#linearGradient2902);fill-opacity:0.15527948;fill-rule:evenodd;stroke-width:1pt"
         sodipodi:nodetypes="cccccccccccccccccccccccccccccccccccccccccccccccccccccccccc"
         id="path2834"
         d="m 86.46875,234.1875 c -4.014751,1.54813 -1.784144,7.27066 -2.395646,10.63872 -1.707807,10.30093 -3.879306,20.91659 -10.685204,29.26852 -1.474698,2.31677 -2.276452,5.22059 -1.54415,7.93651 -4.098437,2.84474 -5.865417,-1.80783 -4.224673,-5.18208 0.142065,-2.78571 1.606884,-6.988 -0.494077,-8.81792 -11.449384,-0.074 -23.534631,1.65423 -34.449939,-2.23675 -2.866217,-2.35497 -4.786461,-7.30227 -9.331311,-6.2945 -0.172961,4.71317 3.265478,8.26123 5.78125,11.8125 10.203962,4.29216 21.606273,3.02408 32.40625,3 -0.459069,4.27075 -0.912254,8.54215 -1.375,12.8125 2.110553,0.94213 10.01519,1.66579 3.78125,2.9375 -9.569969,0.8273 -18.93729,-3.22632 -28.482053,-2.74407 -3.796711,1.04406 -5.690855,5.46998 -8.935558,7.64588 -4.541258,4.93935 -10.19806,8.69953 -16.5615107,10.70308 -2.7840208,0.61373 -2.992974,5.57456 0.5065097,4.56589 6.492313,-1.02169 13.65459,-2.8129 17.771322,-8.43543 3.950312,-3.39032 7.84396,-10.0741 13.852046,-7.82129 5.908937,-0.34212 0.384042,2.12356 -1.182006,4.55469 -4.700013,7.02983 -7.384917,15.7323 -6.5625,24.1875 1.107928,5.66885 6.183231,10.5772 12.244498,9.3059 9.25479,0.56285 19.674658,-4.47187 21.708848,-14.20431 1.107062,-3.67031 2.703465,-7.22229 2.890404,-11.10159 1.47938,11.60219 -9.797711,19.87293 -9.412656,31.33368 -0.335449,8.21079 -3.258744,17.17193 1.368779,24.69748 1.56529,4.95365 5.535175,8.58528 8.405602,7.78635 2.424554,-0.63779 -6.423378,-14.73216 -4.26107,-24.75888 0.345593,-7.73606 1.715704,-15.43285 5.983499,-22.04871 3.632692,-5.643 4.711155,-12.25289 4.689578,-18.83546 0.467165,-1.24601 0.997208,5.63014 3.779472,6.45913 4.264934,2.92222 6.483051,7.76015 5.565182,12.86076 0.237578,7.70915 -1.35407,16.54755 4.430982,22.71125 4.265418,5.95844 7.617787,13.19141 13.544382,17.57565 3.68668,-0.0451 -0.0183,-5.78259 -0.58917,-7.80302 -3.03916,-7.23807 -9.181872,-13.22667 -11.043427,-20.8182 -0.08489,-7.22493 0.06643,-14.66352 -0.617403,-21.75378 -4.021166,-4.08054 -9.625469,-8.29416 -8.654323,-14.74316 -1.186348,-4.7222 0.940572,-3.57871 3.904323,-1.97559 5.630785,0.7051 11.91244,-4.62407 16.82443,0.15871 4.37094,2.71207 8.62338,6.66272 13.76179,7.44095 6.54414,-0.84601 13.08858,-1.68967 19.63253,-2.53716 0.26675,-5.23971 -5.90375,-4.919 -9.49838,-4.19049 -5.87831,0.86008 -12.3718,0.88168 -16.9359,-3.52044 -3.55814,-1.9264 -7.14134,-5.36399 -11.11031,-5.73545 -2.883419,0.45535 -9.26924,2.4847 -10.143005,1.54088 2.736905,-0.89191 2.911198,-3.97612 5.625095,-4.87575 2.741489,-1.26288 3.64001,-5.90476 4.91922,-6.77442 6.76017,2.77603 11.78339,-4.72327 15.01828,-9.53808 1.66525,-3.10497 1.38525,-7.541 4.78125,-9.3125 1.76736,-2.02381 2.96205,-7.29518 1.50807,-8.29463 -2.38926,1.29029 -5.95072,4.39824 -5.01455,0.65507 2.55058,-0.45771 6.36762,-3.2861 1.85445,-3.38582 -3.79183,-0.65458 -7.81123,-0.64579 -10.96586,1.64115 -7.30397,0.34026 -14.14213,4.44631 -18.94461,9.72798 -0.17457,3.0856 0.688317,5.51565 -3.313442,5.56283 -1.421106,-0.50316 1.65553,-6.7358 1.866599,-9.56122 C 90.010546,249.37724 91.603104,241.56923 88,234.875 c -0.166869,-0.46331 -1.053236,-0.75578 -1.53125,-0.6875 z" />
    </g>
    <path
       transform="matrix(0.837204,0,0,0.837204,-13.85057,-51.3954)"
       style="fill:none;stroke:#000000;stroke-width:1.89081204"
       id="path924"
       d="m 147.45065,91.907853 -16.7563,-7.698839 28.531,-4.075855 2.26436,3.17011" />
    <path
       transform="matrix(0.837204,0,0,0.837204,-13.85057,-51.3954)"
       style="fill:none;stroke:#000000;stroke-width:1.89081204"
       id="path923"
       d="m 155.46029,108.55426 4.9816,18.11492 14.49193,-24.45514" />
    <path
       transform="matrix(0.837204,0,0,0.837204,-13.85057,-51.3954)"
       style="fill:#7c5a08;fill-opacity:1;fill-rule:evenodd;stroke-width:1pt"
       id="path909"
       d="m 97.068918,145.26319 c 0,0 -17.932845,-7.68551 -25.938588,4.80344 -8.005732,12.48896 -10.247338,28.82065 -4.16298,35.22525 6.084366,6.40458 25.938587,1.92137 30.101568,-6.4046 4.162992,-8.32596 8.325972,-25.29812 6.404592,-29.4611 -1.92137,-4.16299 -6.404592,-4.16299 -6.404592,-4.16299 z" />
    <path
       transform="matrix(0.837204,0,0,0.837204,-13.85057,-51.3954)"
       style="fill:#3e3e3e;fill-rule:evenodd;stroke-width:2.875"
       sodipodi:nodetypes="ccccccccccccccccc"
       id="path1569"
       d="m 142.41549,138.79278 -0.52832,0.11123 -15.20991,3.30892 -4.76281,-5.90308 -3.23359,2.95941 7.24563,5.41841 0.41709,0.22245 0.4449,-0.11123 15.07088,-3.28111 18.60226,12.4015 0.38928,0.25026 0.50051,-0.0556 21.71654,-2.94744 -0.10724,-0.9453 -21.47027,1.30678 -18.63006,-12.42931 -0.44489,-0.30587 z" />
    <path
       style="fill:#3e3e3e;fill-rule:evenodd;stroke-width:2.875"
       sodipodi:nodetypes="cccccccccccccccccccccccccccccccc"
       id="path1568"
       d="m 85.379947,67.643027 -1.952126,4.074161 0.372472,9.660924 0.02327,0.395746 0.256075,0.279358 8.636639,9.56781 c -0.0031,0.394893 -0.04656,5.80164 -0.04656,11.709514 0,3.05963 0.01085,6.14609 0.04656,8.52023 0.01785,1.18708 0.03794,2.18383 0.06984,2.9332 0.01594,0.3747 0.02448,0.68365 0.04656,0.93118 0.01103,0.12376 0.02949,0.24166 0.04656,0.34919 0.01707,0.10753 -8.79e-4,0.1612 0.139679,0.44231 0.08156,0.16311 0.136188,0.24393 0.256067,0.4423 0.119888,0.19837 0.267571,0.47102 0.465595,0.7915 0.396039,0.64096 0.942582,1.51457 1.582993,2.53745 1.280805,2.04574 2.950215,4.70215 4.609311,7.33299 3.318168,5.26168 6.588048,10.40587 6.588048,10.40587 l 1.43665,1.13419 c 0,0 -2.89202,-7.44438 -6.20891,-12.70403 -1.65845,-2.62982 -3.330885,-5.26778 -4.609312,-7.30971 -0.639214,-1.02097 -1.167841,-1.90323 -1.55972,-2.53745 -0.195939,-0.31711 -0.375477,-0.55731 -0.48886,-0.74493 -0.06866,-0.11362 -0.06308,-0.13417 -0.09312,-0.18624 -0.0046,-0.0363 -0.01764,-0.0765 -0.02327,-0.13968 -0.01681,-0.18845 -0.0314,-0.45857 -0.04657,-0.81477 -0.03032,-0.71242 -0.05214,-1.70998 -0.06983,-2.88664 -0.03539,-2.35334 -0.04657,-5.44286 -0.04657,-8.49696 0,-6.108217 0.04657,-12.128543 0.04657,-12.128543 l 0,-0.419029 -0.279358,-0.302632 -8.659912,-9.544528 -0.538766,-13.292781 z" />
    <path
       transform="matrix(0.837204,0,0,0.837204,-13.85057,-51.3954)"
       style="fill:#3e3e3e;fill-rule:evenodd;stroke-width:2.875"
       sodipodi:nodetypes="ccccccccccccccccccccc"
       id="path1567"
       d="m 109.23089,147.26942 -1.12808,9.51389 -0.0556,0.16683 0,0.19464 0,10.81656 -10.538502,22.60633 -0.08342,0.19464 -0.02781,0.22245 -2.502545,28.55682 0,0.27806 0.111224,0.30587 5.644623,14.26451 1.93845,1.77183 -5.108334,-16.70369 2.446934,-28.0007 10.53849,-22.68974 0.13903,-0.25026 0,-0.27806 0,-10.92778 3.33684,-10.67786 -4.7113,0.63566 z" />
    <path
       transform="matrix(0.837204,0,0,0.837204,-13.85057,-51.3954)"
       style="fill-rule:evenodd;stroke-width:1pt"
       sodipodi:nodetypes="czzzzzzz"
       id="path919"
       d="m 129.57222,103.15301 c 0.0932,3.85836 0.37893,4.97672 1.92137,6.72482 l 9.60689,10.8878 c 1.52864,1.73246 4.08626,2.0784 6.88493,0.80058 2.99073,-1.36552 9.47179,-9.65446 10.72768,-14.25021 1.28074,-4.68666 2.33581,-12.620218 0.16012,-14.250216 -2.07456,-1.554234 -9.53244,-3.934994 -15.2109,-1.120803 -5.74004,2.84471 -14.18699,7.194903 -14.09009,11.208029 z" />
    <path
       transform="matrix(0.837204,0,0,0.837204,-13.85057,-51.3954)"
       style="fill:url(#linearGradient2906);fill-opacity:1;fill-rule:evenodd;stroke-width:1pt"
       sodipodi:nodetypes="cczz"
       id="path1143"
       d="m 134.56159,103.95723 c -1.38723,-9.248221 20.8085,-17.571615 24.04538,-9.710628 3.23687,7.860998 -6.70496,21.964528 -11.09786,23.582968 -4.3929,1.61844 -11.63703,-5.13573 -12.94752,-13.87234 z" />
    <path
       transform="matrix(0.837204,0,0,0.837204,-13.85057,-51.3954)"
       style="fill:#3e3e3e;fill-rule:evenodd;stroke-width:2.875"
       sodipodi:nodetypes="ccccccccccccc"
       id="path1571"
       d="m 63.390663,136.26243 -0.500509,0.50051 -18.324194,18.3242 -12.556375,5.11642 -0.03977,0.88968 13.597163,-3.61478 0.333673,-0.0834 0.250254,-0.25026 18.046133,-18.07393 34.178184,5.26719 0.583928,-2.47474 -34.873336,-5.43403 -0.695151,-0.16684 z" />
    <path
       transform="matrix(0.837204,0,0,0.837204,-13.85057,-51.3954)"
       style="fill:#3e3e3e;fill-rule:evenodd;stroke-width:2.875"
       sodipodi:nodetypes="ccccccccccccccccccccc"
       id="path1572"
       d="m 51.298905,101.68765 -0.810254,0.42894 6.339782,10.39947 0.305866,0.50051 0.556121,0.11122 14.931855,2.69719 0.13903,0.0278 0.111224,0 23.941018,-0.41709 -1.668364,15.76604 -0.111224,1.08444 1.05663,0.27806 8.592071,2.28009 2.47884,-3.15405 -9.374741,-1.32272 1.69617,-16.09971 0.166836,-1.44592 -1.445915,0.0278 -25.275709,0.4449 -14.236702,-2.58597 -7.392534,-9.02101 z" />
    <path
       transform="matrix(0.837204,0,0,0.837204,-13.85057,-51.3954)"
       style="fill:#3e3e3e;fill-rule:evenodd;stroke-width:2.875"
       sodipodi:nodetypes="ccccccccccccccccccccccc"
       id="path1570"
       d="m 123.72172,70.139622 -0.52022,0.111224 0.4727,8.786715 0,0.05561 -2.22448,13.875224 -0.0278,0.111224 -3.55918,13.764001 -9.42625,15.68262 -0.27806,0.4727 0.16684,0.55612 1.13606,6.57032 4.25842,-0.75076 -2.78071,-6.042 9.2038,-15.34895 0.11123,-0.16684 0.0278,-0.16683 3.6426,-14.042066 0,-0.05561 0,-0.05561 2.28009,-14.042061 0.0278,-0.13903 -0.0278,-0.13903 -2.48283,-9.03697 z" />
    <path
       transform="matrix(0.837204,0,0,0.837204,-13.85057,-51.3954)"
       style="fill:none;stroke:#000000;stroke-width:0.88979397pt"
       id="path925"
       d="m 159.23201,101.09795 c 0,0 5.43447,-0.67931 5.88735,-7.245962" />
    <path
       transform="matrix(0.837204,0,0,0.837204,-13.85057,-51.3954)"
       style="fill:none;stroke:#000000;stroke-width:0.88979397pt"
       id="path926"
       d="m 151.98605,91.13475 c 0,0 0.45287,-3.622983 8.15171,-2.717237" />
    <path
       transform="matrix(0.837204,0,0,0.837204,-13.85057,-51.3954)"
       style="fill:#3c2b00;fill-rule:evenodd;stroke-width:1pt"
       sodipodi:nodetypes="cccczccccccc"
       id="path911"
       d="m 89.282954,144.024 c 1.307896,-1.63487 10.027577,-4.84517 11.948956,-4.20471 1.92137,0.64046 0.78919,-8.64619 9.43538,-10.8878 6.38183,-4.73241 3.34437,-9.35103 6.51449,-13.20044 0.90573,-2.26437 8.20051,-8.47186 14.16779,-6.69264 6.10712,1.82092 9.91102,11.56711 6.06826,17.65147 -3.84275,6.08437 -6.72481,4.80344 -6.72481,4.80344 0,0 1.28091,4.16299 -6.08437,6.40459 -7.36527,2.24161 -6.72481,6.72482 -6.72481,6.72482 0,0 -4.80345,5.76413 -9.92712,4.48321 -5.12366,-1.28091 -3.51578,3.71299 -4.66018,5.02089 L 89.282954,144.024 z" />
    <path
       transform="matrix(0.837204,0,0,0.837204,-13.85057,-51.3954)"
       style="fill:url(#linearGradient2908);fill-opacity:1;fill-rule:evenodd;stroke-width:1pt"
       sodipodi:nodetypes="cccz"
       id="path1730"
       d="m 104.63166,140.75881 c -2.94277,-3.59671 4.74113,-12.91547 10.62666,-8.33784 5.88553,4.57764 3.59672,12.5885 -1.30789,13.8964 -4.90461,1.3079 -6.30938,-1.88042 -9.31877,-5.55856 z" />
    <path
       transform="matrix(0.837204,0,0,0.837204,-13.85057,-51.3954)"
       style="fill:url(#linearGradient2910);fill-opacity:1;fill-rule:evenodd;stroke-width:1pt"
       sodipodi:nodetypes="czzzzz"
       id="path1733"
       d="m 117.87411,120.81339 c -1.28065,-2.45231 0.65394,-5.6403 2.94276,-7.35691 2.28882,-1.71661 8.1471,-4.14168 10.79014,-2.94277 2.64304,1.19891 5.58581,7.19343 5.0681,10.1362 -0.51771,2.94277 -5.04085,7.49315 -8.17435,7.5204 -3.1335,0.0273 -9.346,-4.90461 -10.62665,-7.35692 z" />
    <path
       style="fill:url(#radialGradient2912);fill-opacity:1;fill-rule:evenodd;stroke-width:1pt"
       sodipodi:nodetypes="czzc"
       id="path2381"
       d="m 43.043287,81.709895 c 0,0 -5.562038,15.032378 0.05852,19.906665 5.445618,4.72256 19.409685,6.16337 27.360861,-10.857655 7.951177,-17.021021 -18.302651,-32.734164 -27.419382,-9.04901 z" />
    <path
       style="fill:url(#linearGradient2914);fill-opacity:1;fill-rule:evenodd;stroke-width:1pt"
       sodipodi:nodetypes="ccczzz"
       id="path910"
       d="M 58.620022,74.099282 C 52.599836,74.675844 48.439316,83.33 46.25962,90.111002 c -1.209423,0.518323 -1.047565,-6.826414 -0.529241,-8.035844 0.518322,-1.20942 2.322228,-7.97988 5.205073,-9.961836 2.764396,-1.900525 6.654261,-2.000209 9.676788,-0.916372 2.993487,1.073425 3.765812,2.350879 -1.992218,2.902332 z" />
  </g>
</svg>
