<?xml version="1.0" encoding="UTF-8" standalone="no"?>
<!-- Created with Inkscape (http://www.inkscape.org/) -->

<svg
   xmlns:dc="http://purl.org/dc/elements/1.1/"
   xmlns:cc="http://creativecommons.org/ns#"
   xmlns:rdf="http://www.w3.org/1999/02/22-rdf-syntax-ns#"
   xmlns:svg="http://www.w3.org/2000/svg"
   xmlns="http://www.w3.org/2000/svg"
   xmlns:sodipodi="http://sodipodi.sourceforge.net/DTD/sodipodi-0.dtd"
   xmlns:inkscape="http://www.inkscape.org/namespaces/inkscape"
   id="svg2042"
   sodipodi:version="0.32"
   inkscape:version="0.47 r22583"
   width="80.073837"
   height="67.186005"
   version="1.0"
   sodipodi:docname="cat.svg"
   inkscape:export-filename="/home/rob/sayoperation/resources/png/cat.png"
   inkscape:export-xdpi="90"
   inkscape:export-ydpi="90">
  <metadata
     id="metadata2047">
    <rdf:RDF>
      <cc:Work
         rdf:about="">
        <dc:format>image/svg+xml</dc:format>
        <dc:type
           rdf:resource="http://purl.org/dc/dcmitype/StillImage" />
        <dc:publisher>
          <cc:Agent>
            <dc:title>ZS a MS Machovo namesti</dc:title>
          </cc:Agent>
        </dc:publisher>
        <dc:title>kocka</dc:title>
        <dc:creator>
          <cc:Agent>
            <dc:title>Raz Petr</dc:title>
          </cc:Agent>
        </dc:creator>
        <dc:language>CZ</dc:language>
        <dc:subject>
          <rdf:Bag>
            <rdf:li>kocka</rdf:li>
            <rdf:li>cat</rdf:li>
          </rdf:Bag>
        </dc:subject>
        <cc:license
           rdf:resource="http://web.resource.org/cc/PublicDomain" />
      </cc:Work>
      <cc:License
         rdf:about="http://web.resource.org/cc/PublicDomain">
        <cc:permits
           rdf:resource="http://web.resource.org/cc/Reproduction" />
        <cc:permits
           rdf:resource="http://web.resource.org/cc/Distribution" />
        <cc:permits
           rdf:resource="http://web.resource.org/cc/DerivativeWorks" />
      </cc:License>
    </rdf:RDF>
  </metadata>
  <defs
     id="defs2045">
    <inkscape:perspective
       sodipodi:type="inkscape:persp3d"
       inkscape:vp_x="0 : 655.79883 : 1"
       inkscape:vp_y="0 : 1000 : 0"
       inkscape:vp_z="1563.4694 : 655.79883 : 1"
       inkscape:persp3d-origin="781.73468 : 437.19922 : 1"
       id="perspective3878" />
  </defs>
  <sodipodi:namedview
     inkscape:window-height="576"
     inkscape:window-width="800"
     inkscape:pageshadow="2"
     inkscape:pageopacity="0.0"
     guidetolerance="10.0"
     gridtolerance="10.0"
     objecttolerance="10.0"
     borderopacity="1.0"
     bordercolor="#666666"
     pagecolor="#ffffff"
     id="base"
     inkscape:zoom="0.31288646"
     inkscape:cx="984.38054"
     inkscape:cy="911.78777"
     inkscape:window-x="0"
     inkscape:window-y="-3"
     inkscape:current-layer="layer2"
     showgrid="false"
     inkscape:window-maximized="1" />
  <g
     inkscape:groupmode="layer"
     id="layer2"
     inkscape:label="1"
     style="display:inline"
     transform="translate(-321.00558,-1360.7954)">
    <g
       id="g2790"
       transform="matrix(0.05116826,0,0,0.05116826,304.61531,1354.8791)">
      <path
         id="path5610"
         d="m 325.03125,124.125 c -0.0857,0.0641 -0.19891,0.12387 -0.28125,0.1875 -0.12005,0.36987 -0.2069,0.6446 -0.3125,0.9375 0.18934,-0.37241 0.38112,-0.75927 0.59375,-1.125 z m 2.875,64.46875 4,25.34375 c 1.02445,7.90393 1.28284,15.49191 1.15625,22.875 0.23352,-0.83662 0.51856,-1.66862 0.875,-2.46875 -0.23414,-15.38069 -3.13174,-30.56489 -6.03125,-45.75 z m 3.40625,71.71875 c -1.22802,8.39541 -2.33564,16.61472 -3.125,24.25 1.1046,-8.07981 2.39554,-16.15015 3.125,-24.25 z m -4.625,55.125 c -0.0458,13.50369 0.84037,21.64045 3.78125,38.90625 0.10704,0.67929 0.22973,1.35287 0.34375,2.03125 -1.79125,-12.68007 -2.83026,-25.49427 -3.84375,-38.15625 -0.11783,-0.92976 -0.19658,-1.85331 -0.28125,-2.78125 z m 584.53125,52.21875 c -10.83141,-0.0397 -60.80037,7.51073 -67.4375,9.5625 l -55.9375,14.6875 -15.0625,3.40625 c 2.00044,4.87479 -0.7049,10.21219 -2.21875,14.875 -2.47374,7.7373 -7.61444,13.92092 -11.96875,20.5625 -5.12993,11.95341 -10.80049,23.5221 -16.75,35.0625 -6.16285,16.03778 -15.19256,30.58432 -23.5,45.5625 -10.30285,16.80394 -21.50783,33.73343 -26.90625,52.875 -2.02663,4.73329 -5.39047,9.31901 -9.6875,12.3125 l 11.1875,86.53125 27.09375,87 24.3125,111.875 -3.96875,39 -14.125,123.15625 0.5625,23.1563 c 0,-1e-4 18.37515,72.4707 25.4375,103.9687 7.06237,31.498 -1.9899,5.5054 2.8125,22.0313 4.80241,16.5259 4.82403,23.723 16.40625,44.0625 11.58226,20.3394 15.24785,25.8715 29.9375,37.3125 14.68964,11.4409 16.1003,6.6325 28.8125,8.4687 12.71222,1.8361 9.1778,-0.56 22.03125,-1.125 12.85343,-0.5651 18.21653,3.0811 29.375,-1.1562 11.15847,-4.2375 11.15385,-4.654 15.25,-15.8125 4.09618,-11.1585 7.05735,-16.3829 1.125,-28.8125 -5.93233,-12.4298 -13.40278,-15.2564 -24.84375,-20.9063 -11.44097,-5.6499 -20.90625,-1.6875 -20.90625,-1.6875 l -30.5,-81.9375 18.0625,-61.5625 16.96875,-10.1875 20.3125,35.5938 c 0,0 10.32163,29.5293 26,54.8125 15.67839,25.2831 19.54925,26.7177 40.3125,41.125 20.76322,14.4071 19.86802,14.8049 42.75,16.5 22.88195,1.695 29.36785,2.4211 45.18755,-4.5 15.8195,-6.9211 13.5738,-13.3003 18.0937,-23.1875 4.5199,-9.8874 0.6945,-13.9129 0,-16.375 -3.4902,-12.3737 -14.9654,-18.234 -29.9375,-25.4375 -14.9721,-7.2037 -29.96875,-3.375 -29.96875,-3.375 l -31.0625,-65.5313 1.6875,-44.0937 3.40625,-18.06255 20.34375,-24.3125 c -3e-5,0 56.89495,17.81515 105.62505,24.3125 48.73,6.49736 50.4384,-2.12615 89.2812,1.6875 38.8429,3.81367 35.0195,0.5678 66.0938,13.56255 31.0743,12.9947 34.1756,17.2192 58.1875,38.4062 24.0119,21.1869 23.1852,24.5917 37.875,46.3438 14.6896,21.7519 5.2278,-1.1215 20.9062,40.6875 15.6784,41.809 29.3828,57.2104 41.8125,126.5625 16.0048,42.099 -11.2649,114.0471 32.1875,167.2187 14.9723,4.8024 16.8079,2.3888 35.5938,2.8125 18.7858,0.4237 26.144,6.6436 39.5625,-1.125 13.4184,-7.7686 12.5712,-14.4004 14.125,-29.9375 1.5537,-15.5371 -2.8214,-20.1816 -7.9063,-32.1875 -5.0849,-12.0059 -8.2001,-4.8266 -12.4375,-15.8437 -4.2374,-11.0172 -3.9662,-15.9616 -4.5312,-28.25 -0.5651,-12.2886 2.2812,-20.9063 2.2812,-20.9063 0,0 14.8226,3.2462 23.1563,0.5625 8.3335,-2.6837 6.4838,-3.2301 10.1562,-11.2812 3.6723,-8.0512 7.0738,-10.454 4.5313,-20.9063 -2.5425,-10.4523 -6.0714,-13.5615 -14.6875,-20.9062 -8.6162,-7.3449 -19.7813,-8.4688 -19.7813,-8.4688 l -3.375,-1.6875 c 0,0 -5.9387,-26.9968 -5.6562,-52.5625 0.2824,-25.5656 -2.6823,-21.0456 6.7812,-49.7187 9.4635,-28.6731 18.9067,-45.322 40.0938,-75.125 21.1869,-29.803 44.6562,-44.0938 44.6562,-44.0938 -10e-5,0 43.9426,-14.72431 70.0625,-38.40625 21.1871,-19.20955 20.8628,-22.49551 31.625,-46.34375 12.4297,-27.5431 10.749,-23.57428 18.0938,-45.75 7.3448,-22.17575 12.6408,-22.02802 21.4687,-44.0625 8.828,-22.03447 13.8125,-44.0625 13.8125,-44.0625 l -198,-233.34375 -37.875,-16.40625 -41.25,-10.71875 -40.6562,-7.34375 -44.0625,-27.6875 -55.375,-16.9375 -139.6563,-52.40625 c -0.1814,-1.45145 -96.7165,-32.21475 -98.7812,-31.21875 -2.0983,1.01213 -51.4063,-19.78125 -51.4063,-19.78125 l -62.15625,-9.59375 -61.4375,-0.40625 c -0.34961,-0.074 -0.90291,-0.12235 -1.625,-0.125 z"
         style="fill:#fa960e;fill-opacity:1;fill-rule:evenodd;stroke:#000000;stroke-width:1px;stroke-linecap:butt;stroke-linejoin:miter;stroke-opacity:1" />
      <path
         id="path5612"
         d="m 911.21875,367.65625 c -10.83141,-0.0397 -60.80037,7.51073 -67.4375,9.5625 l -49.25,12.9375 -3.3125,4.84375 c -4.85961,4.71187 -5.15625,17.28646 -5.15625,28.75 2e-5,7.15651 0,14.31225 0,21.46875 2e-5,9.24407 3.4699,15.09827 5.625,23.71875 2.21051,8.8423 4.52005,18.07999 6.78125,27.125 1.68943,6.75749 12.41265,14.60648 15.84375,21.46875 6.87659,13.75302 21.1005,14.41264 33.875,18.0625 9.70412,2.77258 19.5408,0.78368 27.125,-2.25 10.69027,-4.27615 20.9967,-7.43412 28.25,-14.6875 12.2384,-12.23834 22.51285,-23.3208 32.78125,-36.15625 7.29892,-9.12365 10.15625,-29.76872 10.15625,-40.6875 -2e-5,-15.37022 -4.43795,-22.37616 -9.03125,-36.15625 -2.26299,-6.78886 -9.0074,-14.27021 -13.5625,-20.34375 -3.8422,-5.12292 -1.92405,-12.08031 -6.78125,-16.9375 -0.22188,-0.22189 -0.43021,-0.38675 -0.625,-0.5625 l -3.65625,-0.0312 c -0.34961,-0.074 -0.90291,-0.12235 -1.625,-0.125 z"
         style="fill:#8f6a37;fill-opacity:1;fill-rule:evenodd;stroke:#000000;stroke-width:1px;stroke-linecap:butt;stroke-linejoin:miter;stroke-opacity:1" />
      <path
         id="path5614"
         d="m 1085.2384,396.9678 c -9.3804,-2.40979 -15.5716,5.97807 -23.8433,1.61566 -3.7768,-1.99176 -11.543,-2.34938 -15.9073,-3.54149 -7.9502,-2.17157 -14.9505,-1.12315 -23.1486,-1.30079 -9.9085,-0.21471 -18.7326,2.90844 -24.1898,9.86543 -4.5677,5.82313 -5.4642,14.4411 -3.6799,22.29784 0.2432,1.07087 0.4863,2.14174 0.7296,3.21261 1.3833,6.09136 -0.3151,14.54114 -0.4501,20.76943 -0.1348,6.22128 0.5217,12.80971 0.3834,19.1891 -0.1997,9.21654 3.3417,20.31629 6.5663,28.91347 3.3268,8.86974 2.1647,19.61197 6.5663,28.91345 3.4989,7.39417 3.4649,13.17002 6.7566,20.1264 3.9013,8.24414 8.4571,13.13311 15.5785,18.71915 5.299,4.15667 10.0329,3.41419 16.706,3.55879 5.6525,0.12248 9.1506,-6.99451 15.3334,-6.86053 8.396,0.18192 11.8085,-0.73888 17.4703,5.17375 6.1873,6.46133 6.8505,10.79534 8.3717,19.36218 0.2374,1.33715 0.4748,2.6743 0.7122,4.01143 1.2908,7.2696 3.773,14.07845 5.1245,21.68943 1.4369,8.09235 1.4594,14.87578 4.3083,22.47094 3.9406,10.50603 9.1471,19.18597 10.5258,30.59766 1.3297,11.00646 10.699,19.98529 12.9396,29.85079 0.9591,4.2233 21.5111,12.9719 25.268,14.1339 7.0761,2.1886 11.3835,4.2426 19.0852,4.4095 4.5474,0.0986 11.8396,-4.8747 16.9139,-6.0271 5.467,-1.2415 14.0429,-5.9455 16.2015,-10.0385 4.0808,-7.738 13.9316,-9.083 16.3746,-18.02676 2.063,-7.55302 6.6336,-14.72495 8.4556,-21.39517 2.4116,-8.82908 8.3926,-18.4884 8.5941,-27.78576 0.1715,-7.91687 -0.026,-19.27214 2.9676,-26.30928 4.0187,-9.44776 2.4873,-25.76709 3.9743,-35.87786 1.3369,-9.0907 5.1438,-16.65145 10.1224,-24.55584 0.8277,-1.31406 1.6553,-2.62813 2.4831,-3.9422 5.0632,-8.03885 14.7704,-7.67194 23.339,-7.48627 5.7589,0.12479 15.3716,-3.15241 19.3102,-5.97516 6.8073,-4.8787 9.1889,-15.66847 6.0765,-22.24592 -2.8738,-6.07299 -11.1201,-8.14618 -14.8662,-14.70772 -2.6693,-4.67567 -6.1388,-11.75964 -6.0098,-17.71261 0.045,-2.07209 -7.3827,-7.52935 -8.6139,-8.17865 -1.2953,-0.6831 -6.8389,-4.87426 -7.8405,-5.92015 l -86.8021,-32.19153 c -30.3215,-10.52292 -60.8172,-20.52334 -91.887,-28.80162 z"
         style="fill:#8f6a37;fill-opacity:1;fill-rule:evenodd;stroke:#000000;stroke-width:1px;stroke-linecap:butt;stroke-linejoin:miter;stroke-opacity:1"
         sodipodi:nodetypes="cssssssssssssssssssssssssssssssssssssssccc" />
      <path
         id="path5616"
         d="m 1394.4129,504.72489 c -15.3403,-7.67015 -34.9364,1.59802 -50.3378,1.59802 -10.6479,0 -13.6759,8.65895 -19.1763,12.78419 -2.2344,1.67583 -9.2304,12.95139 -10.3871,17.57827 -3.2985,13.19403 -6.3921,23.84924 -6.3921,38.35257 0,14.39669 -0.69,28.74659 3.196,42.34763 2.2359,7.82562 0,19.775 0,27.96542 0,12.89428 -1.598,24.88655 -1.598,37.55355 0,10.10526 -6.5856,18.40236 -3.995,28.76446 3.3949,13.5797 1.0365,27.3608 6.392,40.7496 3.2238,8.0594 7.9939,17.5969 9.5882,25.5684 1.6954,8.4771 7.8239,16.7127 15.9802,19.9753 10.6719,4.2687 14.7978,4.9858 24.7694,0 7.1763,-3.5882 8.0049,-12.8137 11.1862,-19.1763 0.6945,-1.3891 1.598,-2.6634 2.397,-3.9951 5.0467,-8.4111 7.2655,-19.3993 10.3872,-28.7644 1.0653,-3.1961 2.1307,-6.3921 3.196,-9.5882 4.3874,-13.162 12.4555,-27.9197 15.1812,-41.5486 2.9816,-14.90781 9.1307,-32.6435 15.9803,-46.34267 5.615,-11.23007 8.5859,-24.56613 17.5782,-33.5585 6.839,-6.83894 3.9809,-10.69827 12.7842,-15.98024 5.0608,-3.03649 6.5473,-11.80679 7.9901,-17.57826 2.04,-8.15996 8.7892,-12.81606 8.7892,-21.57332 0,-5.2828 -0.4852,-11.20049 -2.3971,-15.98024 -1.9961,-4.99029 -4.326,-10.66965 -9.5881,-11.98518 -5.3819,-1.34548 -29.1875,-5.62601 -30.7732,-7.21169 l -30.7507,-19.95471 z"
         style="fill:#8f6a37;fill-opacity:1;fill-rule:evenodd;stroke:#000000;stroke-width:1px;stroke-linecap:butt;stroke-linejoin:miter;stroke-opacity:1"
         sodipodi:nodetypes="csssssssssssssssssssssssscc" />
      <path
         id="path5618"
         d="m 891.8344,1092.3957 c 7.9208,1.9802 20.3447,15.7654 30.3624,20.7743 4.9177,2.4588 13.4846,-1.5487 16.7793,-3.1961 6.3693,-3.1846 6.8226,-8.2984 8.7891,-15.1812 2.394,-8.3789 2.3971,-16.7212 2.3971,-26.3674 0,-6.9442 -2.8071,-17.9882 -7.1912,-22.3723 -5.1139,-5.114 -10.9841,-9.8866 -16.7792,-12.7842 -5.0465,-2.5233 -10.548,-6.1275 -13.5832,-11.1862 -3.3208,-5.5346 -6.2539,-6.8439 -11.9852,-7.9901 -6.9536,-1.3907 -11.3751,2.83 -15.9802,5.5931 -4.1279,2.4767 -5.5614,7.9109 -7.1911,11.9852 -1.8327,4.5816 -0.799,10.9907 -0.799,15.9802 0,5.7993 -0.5733,12.0893 0.799,17.5783 1.1796,4.7184 3.0622,9.1332 4.2332,13.8172 2.2454,8.9815 9.4864,12.6107 10.3345,13.4599"
         style="fill:#8f6a37;fill-opacity:1;fill-rule:evenodd;stroke:#000000;stroke-width:1px;stroke-linecap:butt;stroke-linejoin:miter;stroke-opacity:1"
         sodipodi:nodetypes="cssssssssssssss" />
      <path
         id="path5620"
         d="m 344.4375,116.875 c -6.96029,0.21269 -15.04972,0.40465 -19.28125,7.03125 -5.83009,9.77475 -2.99755,22.05887 -2.40625,32.84375 2.69144,25.94677 10.79006,51.48532 11.1875,77.59375 -3.09726,6.95261 -1.06768,15.42817 -2.35981,22.90127 -1.42279,20.32753 -7.20804,40.41728 -4.60338,60.96946 2.53377,31.65571 5.16643,64.35601 19.55694,93.16052 9.28561,19.07842 19.52922,38.16107 34.87382,53.1023 21.08963,21.81126 44.21583,41.86883 67.53405,61.31638 26.33335,14.38219 52.57983,29.00457 78.96713,43.23757 25.45624,4.85316 50.84473,10.54737 76.34244,14.88629 22.66691,-1.48595 45.4987,-1.69338 68.06507,-3.95811 8.87809,-0.43114 15.78411,-7.90955 19.12374,-15.70943 5.39842,-19.14157 16.6034,-36.07106 26.90625,-52.875 8.30744,-14.97818 17.34249,-29.52984 23.50534,-45.56762 5.94948,-11.54041 11.61473,-23.10397 16.74466,-35.05738 4.35431,-6.64158 9.49501,-12.8252 11.96875,-20.5625 1.5951,-4.91308 4.50037,-10.57565 1.84375,-15.65625 -13.58823,3.43645 -27.67239,5.449 -40.98516,9.65784 -9.48893,5.11836 -20.52438,8.05717 -27.3531,16.95762 -11.90987,12.18161 -25.58306,22.85213 -34.4003,37.67565 -4.73092,5.61903 -7.28334,14.19109 -15.65974,14.86856 -12.47351,3.62346 -24.59773,9.0807 -37.2892,11.55908 -20.00384,1.01981 -39.09149,-5.91672 -58.5625,-9 -15.26251,-3.90706 -29.64542,-10.73468 -43.89455,-17.5547 -16.79083,-10.98921 -33.31204,-22.99415 -45.66795,-38.7578 -13.33104,-14.4619 -28.44473,-28.47418 -34.60546,-47.80981 -9.73596,-22.2188 -19.3428,-45.06307 -19.58192,-69.68824 -1.64313,-35.85324 2.42508,-71.88658 -1.53137,-107.6582 -3.53587,-25.6904 -12.45152,-53.96582 -35.15625,-68.875 -9.78784,-6.43315 -21.60482,-9.38364 -33.28125,-9.03125 z"
         style="fill:#8f6a37;fill-opacity:1;fill-rule:evenodd;stroke:#000000;stroke-width:1px;stroke-linecap:butt;stroke-linejoin:miter;stroke-opacity:1" />
      <path
         id="path5622"
         d="m 743.4331,858.5234 c 0.1075,-0.2507 13.064,13.8504 15.7546,27.3035 1.6638,8.319 3.4801,17.1165 5.5931,25.5684 2.1796,8.7186 3.196,15.4734 3.196,24.7693 0,12.4892 -3.7616,18.9922 -7.9901,29.5635 -3.4149,8.5372 -9.1634,15.9298 -12.7842,23.1713 -0.5326,1.0654 -1.0653,2.1307 -1.598,3.1961 -2.0033,4.0066 -5.1778,7.5748 -7.9901,10.3871 -2.3169,2.317 -4.8239,8.8488 -6.3921,11.9852 -1.4313,2.8626 -3.4334,4.4697 -4.7941,7.1911 l -0.0892,0.024 -0.4993,-3.196 17.5934,-159.9637 z"
         style="fill:#8f6a37;fill-opacity:1;fill-rule:evenodd;stroke:#000000;stroke-width:1px;stroke-linecap:butt;stroke-linejoin:miter;stroke-opacity:1"
         sodipodi:nodetypes="cssssssssc" />
      <path
         id="path5624"
         d="m 856.4483,1040.0653 c 3.9254,-3.9253 25.7722,-26.5511 28.9833,-31.1906 3.5306,-5.1012 7.0749,-7.6931 10.3871,-13.5832 3.568,-6.3449 6.5277,-14.0303 10.3872,-19.1763 4.0903,-5.4537 6.6093,-10.6043 11.9852,-15.9802 3.9999,-4 12.9244,-5.5383 18.577,-5.9926 7.4388,-0.5979 35.3259,4.7786 47.3013,8.5032"
         style="fill:none;stroke:#000000;stroke-width:1px;stroke-linecap:butt;stroke-linejoin:miter;stroke-opacity:1"
         sodipodi:nodetypes="cssssss" />
      <path
         style="fill:#fa960e;fill-opacity:1;fill-rule:evenodd;stroke:#000000;stroke-width:1px;stroke-linecap:butt;stroke-linejoin:miter;stroke-opacity:1"
         d="m 1616.773,822.9516 c 18.4919,0.9853 36.4987,-1.1832 54.2388,-5.0849 9.2734,-3.0783 18.3724,-6.3893 25.4244,-12.4297 3.7878,-2.1498 7.2147,-4.5703 12.4297,-5.6498 7.545,-2.7572 19.6361,-0.9336 31.6392,-4.5199 10.596,-4.5348 20.8,-10.7238 29.9443,-20.3396 9.0957,-11.0163 17.6489,-22.0869 23.0232,-33.4754 8.9874,-19.9001 18.4901,-38.7001 22.0346,-61.86606 2.0753,-8.43494 1.1735,-24.09883 5.0848,-35.59417 16.634,-43.23418 42.3269,-75.28448 63.4198,-112.5736 -58.609,13.26307 -71.2497,18.43912 -90.9629,24.85942 -3.9549,-0.17527 -7.9098,-1.7355 -11.8647,-3.38992 -8.9817,-5.81641 -12.0581,-9.41834 -18.0796,-14.12467 -22.028,-16.41717 -47.3864,-25.40488 -74.2957,-30.93303 -17.5281,-2.16576 -35.2045,-3.29304 -53.1088,-2.82493 -5.7593,0.34613 -11.6545,1.40914 -16.6671,3.24867 -7.9081,0.74769 -15.068,-0.93603 -21.4695,-5.08488 l -67.7984,-49.71883 -6.7799,-4.51989 c 0.4743,8.88401 1.2275,17.86096 2.825,27.11936 l 7.7685,36.44164 9.7461,37.57162 2.8249,16.94961 1.13,6.21485 c -0.4524,11.81764 -9.0814,18.69165 -12.9948,29.9443 -4.5765,14.5125 -6.3016,27.88633 -7.3448,42.374 -1.3569,16.29244 0.1799,32.76724 4.5199,50.28381 3.1304,6.5915 6.1701,13.183 11.8648,19.7745 2.9717,4.4344 5.8761,9.3394 8.4748,16.3847 2.7679,6.869 6.0832,27.7356 8.4748,35.5941 3.4858,11.2256 6.6547,22.4739 15.2546,33.3342 5.84,5.3982 12.2524,10.6055 20.3395,15.2547 6.2158,4.0155 13.5925,5.3221 20.9045,6.7798 z"
         id="path5626"
         sodipodi:nodetypes="ccccccccccccccccccccccccccccccccc" />
      <path
         id="path5628"
         d="m 1661.7793,740.2738 c -0.8472,-4.2364 -5.5688,-11.3433 -6.489,-15.0241 -0.8493,-3.3972 -2.947,-7.3415 -5.1936,-9.5881 -2.5589,-2.559 -5.5091,-4.8109 -9.5882,-3.9951 -3.0624,0.6125 -4.3136,2.0228 -6.3921,4.7941 -1.9589,2.6119 -3.3967,4.3965 -4.794,7.1911 -1.3164,2.6327 -3.2593,5.4465 -3.9951,8.3896 -0.6478,2.5912 -1.2277,5.3104 -1.9975,8.3896 -0.7076,2.8303 -2.5629,4.3267 -3.5956,6.3921 -0.6594,1.3188 -1.7622,2.7255 -2.397,3.9951 -1.382,2.764 -4.3878,2.7965 -7.1911,2.7965 -4.9272,0 -9.8545,0 -14.7817,0 -3.9908,0 -7.8253,-1.4633 -11.5857,-1.598 -4.1582,-0.1489 -6.8296,1.8271 -7.9901,3.196 -1.6223,1.9138 -1.5426,5.8015 -1.4125,7.3566 0.2155,2.5754 1.1444,5.6309 2.3486,8.5067 1.2812,3.0595 2.8678,6.5934 4.0078,8.6564 2.3777,3.8013 6.4465,8.2654 11.0121,11.0163 1.7087,1.5676 9.9918,3.7054 15.7548,2.8666 2.7133,-0.0124 5.5764,-0.3333 8.2398,-0.849 0.5229,-0.1012 4.4594,-0.7549 5.7429,-1.648 2.7205,-1.893 2.9196,-6.1389 5.07,-5.3617 7.4051,2.6763 18.2531,-2.642 21.7485,-9.3576 1.0804,-2.0757 8.2487,-18.2122 8.515,-18.7449 l 4.9637,-17.3802 z"
         style="fill:#8f6a37;fill-opacity:1;fill-rule:evenodd;stroke:#000000;stroke-width:1px;stroke-linecap:butt;stroke-linejoin:miter;stroke-opacity:1"
         sodipodi:nodetypes="cssssssssssssssscccsssssc" />
      <path
         id="path5630"
         d="m 1664.0794,563.05029 c -4.5081,-1.12702 -6.8731,5.91914 -7.5906,8.78913 -1.3207,5.28257 -3.1759,13.68278 -5.9926,18.37727 -2.3485,3.9142 -4.1476,9.89331 -5.9926,13.58321 -2.6316,5.26328 -15.4628,8.38962 -20.7743,8.38962 -8.2345,0 -16.5227,0.79901 -24.7694,0.79901 -8.8715,0 -17.5158,0.39951 -26.3674,0.39951 -4.1763,0 -5.2069,-5.64663 -5.9926,-8.78913 -1.125,-4.50018 -0.799,-9.57019 -0.799,-14.38222 0,-4.03276 1.0874,-7.9452 1.9976,-11.58567 0.8781,-3.51255 2.397,-8.20865 2.397,-11.98518 0,-3.45456 1.1985,-7.61982 1.1985,-11.58567 0,-6.49991 -0.6799,-10.05549 -3.995,-15.58073 -2.7689,-4.61476 -3.4891,-10.17415 -5.9926,-15.18123 -2.1719,-4.34363 -4.9149,-8.49176 -6.7916,-13.1837 -1.4262,-3.56532 -3.7468,-7.49344 -5.1936,-10.38715 -2.9405,-5.88101 6.8203,1.78082 9.5881,3.99506 3.4305,2.74434 8.4261,3.51104 11.1862,7.19111 4.012,5.34927 11.2976,6.80699 15.1812,11.98517 3.2006,4.26749 11.0784,6.68383 15.1812,10.78667 3.2446,3.24452 6.2593,5.32692 9.9877,7.1911 2.3831,1.19156 6,0.48239 8.7891,1.59803 1.9743,0.78969 7.4511,-2.75002 8.7892,-3.19605 3.8224,-1.27415 7.0859,-2.79654 11.1861,-2.79654 4.29,0 7.054,1.92897 10.3872,3.59555 2.9184,1.45922 5.3579,2.1208 8.3896,4.39457 3.0848,2.31359 4.4458,4.2512 5.1936,7.99011 0.7044,3.522 3.0521,5.833 0.799,9.58815 z"
         style="fill:#8f6a37;fill-opacity:1;fill-rule:evenodd;stroke:#000000;stroke-width:1px;stroke-linecap:butt;stroke-linejoin:miter;stroke-opacity:1" />
      <path
         id="path5632"
         d="m 1696.419,509.18258 c 0.4892,2.51443 -4.3686,2.94097 -5.4842,5.23448 -2.346,4.8229 -5.923,8.37542 -7.8345,13.28754 -2.3048,5.92256 -5.6517,11.79068 -7.4428,17.31404 -1.0054,3.10044 1.491,5.88371 2.3503,7.6504 1.3794,2.83573 3.5603,7.0389 5.0925,9.66366 1.8162,3.11155 6.782,4.42312 9.4014,6.44243 2.479,1.91111 5.5159,5.11467 6.6593,8.05305 1.8205,4.67799 1.5669,9.21874 1.5669,14.49549 0,5.70621 -3.5255,10.57186 -3.5255,15.30079 0,6.81428 -3.0112,11.37587 -1.1752,18.92466 1.2606,5.18306 4.9046,8.69855 5.876,13.69019 1.3255,6.81274 11.0386,10.26987 16.0607,12.48222 5.1558,2.27124 10.3818,2.81857 16.0608,2.81857 5.0048,0 8.8182,-2.31751 12.927,-4.42917 3.0829,-1.5845 7.4418,-6.03883 9.7931,-8.45571 2.4835,-2.55277 5.2186,-6.90997 8.2262,-8.4557 4.2154,-2.16648 8.424,-5.0351 11.3601,-8.05304 3.6494,-3.75124 8.0426,-5.69686 12.1435,-8.85836 0.4432,-0.34167 0.7835,-0.80531 1.1752,-1.20796 2.9088,-2.98994 9.6994,-4.21033 13.3187,-6.44244 0.6528,-0.40264 1.3057,-0.8053 1.9586,-1.20796 0.5598,-0.34527 1.0446,-0.8053 1.5669,-1.20795 4.4317,-3.41647 8.8736,-6.42004 13.7105,-9.26101 4.3479,-2.55383 10.8627,-8.74983 14.4938,-12.48221 0.7211,-0.74125 1.3058,-1.61062 1.9586,-2.41592 2.0811,-2.56688 5.853,-4.80821 8.2262,-7.24775 2.6963,-2.77146 5.6815,-5.08458 9.0098,-7.65039 2.9208,-2.25169 5.9465,-4.90443 8.2262,-7.24775 1.5155,-1.55774 2.0148,-3.27889 3.9173,-5.23448 2.2365,-2.29894 3.8376,-4.56911 6.2676,-6.44243 1.0968,-0.84554 1.3986,-1.43757 1.9586,-2.01327 l 4.8766,-6.30787 4.7764,-8.38178 c -32.3839,7.07812 -63.3465,15.26181 -92.3425,24.97496 l -10.0285,-3.67241 c -11.5781,-9.01399 -23.6998,-17.86803 -36.3711,-25.42441 -12.4481,-7.20559 -31.8215,-14.47993 -48.7545,-18.23251 z"
         style="fill:#8f6a37;fill-opacity:1;fill-rule:evenodd;stroke:#000000;stroke-width:0.99410713px;stroke-linecap:butt;stroke-linejoin:miter;stroke-opacity:1"
         sodipodi:nodetypes="cssssssssssssssssssssssssssssssccccccc" />
      <path
         id="path5634"
         d="m 1667.8965,737.864 3.0914,-10.8092 6.5345,-11.1694 14.2461,-6.4855 16.0538,-0.7206 9.2349,0.7206 7.0223,0.7206 3.3753,-1.0809 -3.0913,10.8092 -9.9225,5.4045 -12.1926,1.4413 -18.9769,3.2426 -9.6744,4.684 -5.7006,3.2428 z"
         style="fill:#000000;fill-opacity:1;fill-rule:evenodd;stroke:#000000;stroke-width:1.19465768px;stroke-linecap:butt;stroke-linejoin:miter;stroke-opacity:1" />
      <path
         style="fill:none;stroke:#000000;stroke-width:1px;stroke-linecap:butt;stroke-linejoin:miter;stroke-opacity:1"
         d="m 1611.0747,736.1777 c -2.2625,6.2428 -4.5057,12.5115 -6.2149,19.492 -0.034,6.1725 0.1645,12.3578 3.4606,18.7152 2.9804,5.2653 7.4459,8.1515 12.6416,10.0992 4.6382,1.5002 11.1067,1.7196 12.063,1.3703 4.5082,-0.63 8.0459,-2.1472 11.1014,-4.1953 3.0047,-2.4467 4.7914,-6.1733 6.4974,-9.6048 2.2591,-4.5215 4.5966,-8.8862 6.4973,-14.1246 0.9409,-2.413 3.2016,-11.8647 4.8024,-17.7971"
         id="path5636"
         sodipodi:nodetypes="ccccccccc" />
      <path
         style="fill:#000000;fill-opacity:1;fill-rule:evenodd;stroke:#000000;stroke-width:1px;stroke-linecap:butt;stroke-linejoin:miter;stroke-opacity:1"
         d="m 1570.1132,670.63923 35.0291,20.62197 6.4974,9.0398 1.4124,12.4297 0.565,6.4974 0.565,2.8249 -5.9323,-2.5424 -5.9324,-5.3674 -6.2149,-3.6724 -9.3222,-4.5199 -9.6048,-5.9324 -5.6499,-12.9947 -1.4124,-16.38457 z"
         id="path5638" />
      <path
         style="fill:none;stroke:#000000;stroke-width:1px;stroke-linecap:butt;stroke-linejoin:miter;stroke-opacity:1"
         d="m 1622.5308,790.7687 c 2.042,3.5448 3.8043,7.1695 8.3896,9.9876 5.5617,3.6793 12.2949,4.7229 19.3518,5.0382 6.7854,-0.4511 13.5709,-1.508 20.3564,-3.4644 4.1426,-1.3891 8.0194,-3.3096 11.4102,-6.2024"
         id="path5640"
         sodipodi:nodetypes="ccccc" />
    </g>
  </g>
</svg>
