<?xml version="1.0" encoding="UTF-8" standalone="no"?>
<!-- Generator: Adobe Illustrator 12.0.0, SVG Export Plug-In . SVG Version: 6.00 Build 51448)  -->

<svg
   xmlns:dc="http://purl.org/dc/elements/1.1/"
   xmlns:cc="http://creativecommons.org/ns#"
   xmlns:rdf="http://www.w3.org/1999/02/22-rdf-syntax-ns#"
   xmlns:svg="http://www.w3.org/2000/svg"
   xmlns="http://www.w3.org/2000/svg"
   xmlns:sodipodi="http://sodipodi.sourceforge.net/DTD/sodipodi-0.dtd"
   xmlns:inkscape="http://www.inkscape.org/namespaces/inkscape"
   height="50.474449"
   id="Layer_1"
   inkscape:version="0.47 r22583"
   sodipodi:docname="grasshopper.svg"
   sodipodi:version="0.32"
   style="overflow:visible"
   version="1.1"
   viewBox="0 0 80.000002 50.47445"
   width="80"
   xml:space="preserve"
   inkscape:output_extension="org.inkscape.output.svg.inkscape"
   inkscape:export-filename="/home/rob/sayoperation/resources/png/grasshopper.png"
   inkscape:export-xdpi="90"
   inkscape:export-ydpi="90"><metadata
   id="metadata3"><rdf:RDF><cc:Work
       rdf:about=""><dc:title>Cavalletta</dc:title><dc:description /><dc:subject><rdf:Bag><rdf:li>animal insect grasshopper</rdf:li></rdf:Bag></dc:subject><dc:publisher><cc:Agent
           rdf:about="http://www.openclipart.org/"><dc:title>Architetto Francesco Rollandin</dc:title></cc:Agent></dc:publisher><dc:creator><cc:Agent><dc:title>Architetto Francesco Rollandin</dc:title></cc:Agent></dc:creator><dc:rights><cc:Agent><dc:title>Architetto Francesco Rollandin</dc:title></cc:Agent></dc:rights><dc:date /><dc:format>image/svg+xml</dc:format><dc:type
         rdf:resource="http://purl.org/dc/dcmitype/StillImage" /><cc:license
         rdf:resource="http://web.resource.org/cc/PublicDomain" /><dc:language>en</dc:language></cc:Work><cc:License
       rdf:about="http://web.resource.org/cc/PublicDomain"><cc:permits
         rdf:resource="http://web.resource.org/cc/Reproduction" /><cc:permits
         rdf:resource="http://web.resource.org/cc/Distribution" /><cc:permits
         rdf:resource="http://web.resource.org/cc/DerivativeWorks" /></cc:License></rdf:RDF></metadata>
<defs
   id="defs676"><inkscape:perspective
     sodipodi:type="inkscape:persp3d"
     inkscape:vp_x="0 : 87.348999 : 1"
     inkscape:vp_y="0 : 1000 : 0"
     inkscape:vp_z="276.88699 : 87.348999 : 1"
     inkscape:persp3d-origin="138.4435 : 58.232666 : 1"
     id="perspective4083" /></defs>
<sodipodi:namedview
   bordercolor="#666666"
   borderopacity="1.0"
   id="base"
   inkscape:pageopacity="0.0"
   inkscape:pageshadow="2"
   inkscape:window-height="576"
   inkscape:window-width="800"
   pagecolor="#ffffff"
   showgrid="false"
   inkscape:zoom="1.3509027"
   inkscape:cx="138.4435"
   inkscape:cy="87.348139"
   inkscape:window-x="0"
   inkscape:window-y="-3"
   inkscape:window-maximized="1"
   inkscape:current-layer="Layer_1" />































































































































































































































































































































































































































































































































































































































































































<g
   id="g4421"
   transform="scale(0.28892545,0.28892545)"><path
     style="fill:#d8cc7f;fill-rule:evenodd;stroke:#000000;stroke-width:0;stroke-linecap:square;stroke-miterlimit:10"
     id="path597"
     d="m 107.93,162.915 c -1.36,1.18 -1.324,4.413 -1.316,6.067 0.004,0.991 0.151,1.886 -0.303,2.774 -0.439,0.857 -1.208,2.167 0.324,2.423 -1.298,0.019 -2.881,0.83 -4.031,-0.417 -0.726,-0.788 -0.713,-3.165 -0.395,-4.098 0.553,-1.622 1.438,-3.091 2.128,-4.661 1,-2.287 1.143,-2.078 3.593,-2.088" /><path
     style="fill:#d8cc7f;fill-rule:evenodd;stroke:#000000;stroke-width:0;stroke-linecap:square;stroke-miterlimit:10"
     id="path603"
     d="m 57.787,161.82 c -1.598,1.038 -3.019,2.249 -4.463,3.481 -1.022,0.87 -3.976,2.599 -4.014,3.913 -0.001,-0.145 -0.002,-0.289 -0.002,-0.434 -1.679,0.419 -2.178,4.338 -0.207,4.329 0.28,0 -0.401,1.151 0.858,1.45 1.314,0.313 2.449,0.199 2.052,-1.46 -0.344,0.316 -1.149,0.655 -1.345,0.006 -0.089,-0.3 1.34,-1.037 1.338,-1.521 -0.002,-0.587 0.655,0.067 0.895,-0.22 0.524,-0.631 0.448,-1.309 1.104,-1.945 1.516,-1.478 3.529,-5.931 5.577,-6.309 -0.774,-0.072 -1.236,-0.753 -1.793,-1.29" /><g
     id="g4085"><path
       d="m 253.652,106.901 c 0.79,0.602 1.801,1.507 0.689,2.05 -1.313,0.643 -2.185,1.148 -3.217,2.154 -1.63,1.591 -5.16,2.165 -7.294,2.764 0.256,-0.986 1.311,-1.278 2.001,-1.951 0.847,-0.825 1.453,-1.848 2.318,-2.692 0.563,-0.547 2.085,-0.987 2.821,-1.448 1.174,-0.734 1.219,-0.871 2.682,-0.877"
       id="path3"
       style="fill:#269900;fill-rule:evenodd;stroke:#000000;stroke-width:0;stroke-linecap:square;stroke-miterlimit:10" /><path
       d="m 255.009,109.925 c -0.648,-0.154 -5.384,-2.82 -5.376,-1.07 0.011,2.944 3.575,1.951 5.376,1.07"
       id="path5"
       style="fill:#596600;fill-rule:evenodd" /><path
       d="m 250.968,106.911 c -1.471,5.789 -7.556,7.036 -12.8,8.011 -2.665,0.492 -5.37,0.759 -8.063,1.096 -2.464,0.311 -5.294,-0.474 -7.756,-0.763 -0.228,2.712 -9.59,1.771 -11.63,1.781 -1.668,0.007 -3.569,-0.281 -5.151,0.234 -1.475,0.482 -4.234,-1.108 -5.03,0.447 -0.507,0.991 -3.984,-0.979 -4.78,-1.358 -0.936,-0.451 -1.859,-1.377 -2.389,-0.346 -0.262,0.514 -1.892,1.1 -2.485,1.103 -4.244,0.017 -8.896,-0.17 -12.855,-1.682 -0.18,4.056 -13.725,-1.215 -16.122,-1.231 -0.303,-0.003 -1.006,0.436 -1.564,0.438 -0.77,0.004 -1.418,-0.044 -2.176,-0.161 -1.426,-0.223 -2.921,-0.351 -4.32,-0.679 -2.642,-0.621 -5.165,-0.963 -7.619,-2.134 2.322,-3.05 4.645,-6.097 6.968,-9.146 1.447,-1.9 3.232,-6.134 5.892,-5.98 6.847,0.399 13.64,0.836 20.46,1.504 15.365,1.501 30.564,3.167 45.843,5.301 8.525,1.189 17.049,2.375 25.577,3.565"
       id="path7"
       style="fill:#e8e63d;fill-rule:evenodd;stroke:#000000;stroke-width:0;stroke-linecap:square;stroke-miterlimit:10" /><path
       d="m 207.969,101.893 c 0.004,1.259 0.19,2.648 0.016,3.896 -0.106,0.75 -0.442,1.121 -0.439,1.964 0.003,0.713 0.491,0.907 0.296,1.677 -0.358,1.412 0.035,2.963 -0.504,4.286 -0.838,2.043 -0.336,3.131 1.82,1.729 1.673,-1.086 1.654,-2.194 1.914,-3.999 0.102,-0.714 -0.121,-1.368 -0.271,-2.076 -0.15,-0.715 0.328,-0.985 0.325,-1.652 -0.006,-1.335 1.336,-2.169 0.88,-3.676 -0.282,-0.935 0.246,-0.788 -0.874,-1.144 -1.055,-0.337 -2.11,-0.67 -3.163,-1.005"
       id="path9"
       style="fill:#7fcc32;fill-rule:evenodd" /><path
       d="m 194.978,100.211 c -0.103,1.516 0.679,3.056 0.309,4.506 -0.443,1.75 -0.772,3.527 -1.131,5.297 -0.456,2.259 -1.142,8.63 2.698,4.887 2.198,-2.142 -0.849,-7.383 2.393,-8.966 0.639,-0.312 0.217,-3.855 0.214,-4.619 -0.01,-2.008 -2.699,-1.111 -4.483,-1.105"
       id="path11"
       style="fill:#7fcc32;fill-rule:evenodd" /><path
       d="m 180.646,98.973 c 0.015,3.793 -0.396,7.421 -0.842,11.193 -0.125,1.075 -2.272,4.427 -1.777,5.269 0.704,1.199 3.882,0.221 4.375,-0.58 0.949,-1.542 1.634,-3.259 1.353,-5.111 -0.321,-2.112 -0.483,-3.337 1.161,-4.936 0.743,-0.724 0.217,-3.789 0.213,-4.76 -0.008,-1.966 -2.733,-1.083 -4.483,-1.075"
       id="path13"
       style="fill:#7fcc32;fill-rule:evenodd" /><path
       d="m 164.972,97.734 c 0.019,1.439 0.433,2.288 0.133,3.771 -0.301,1.479 -0.359,3.014 -0.508,4.514 -0.304,3.072 -1.299,5.462 -2.691,8.185 3.924,2.806 6.796,-5.709 7.13,-8.258 0.244,-1.865 0.381,-3.599 0.697,-5.474 0.558,-3.326 -2.265,-2.748 -4.761,-2.738"
       id="path15"
       style="fill:#7fcc32;fill-rule:evenodd" /><path
       d="m 207.969,101.893 c 0.021,5.195 -0.418,10.02 -1.283,15.158 1.344,-0.825 1.23,-2.787 1.775,-4.122 0.474,-1.155 1.396,-3.121 0.762,-4.339 -0.493,-0.943 2.192,-7.752 -1.254,-6.697"
       id="path17"
       style="fill:#001900;fill-rule:evenodd" /><path
       d="m 194.978,100.211 c -0.566,5.118 -1.251,10.45 -1.279,15.593 1.645,-0.35 1.524,-3.056 1.703,-4.294 0.23,-1.6 0.953,-2.701 0.947,-4.376 -0.007,-1.53 1.574,-7.818 -1.371,-6.923"
       id="path19"
       style="fill:#001900;fill-rule:evenodd" /><path
       d="m 180.646,98.973 c -0.618,5.583 -1.231,11.003 -2.619,16.462 2.271,-0.033 2.101,-1.666 2.559,-3.47 0.341,-1.333 1.23,-3.679 0.327,-4.544 -0.501,-0.48 0.641,-1.721 0.962,-2.19 0.289,-0.423 0.136,-1.266 0.133,-1.754 -0.005,-1.419 0.975,-5.128 -1.362,-4.504"
       id="path21"
       style="fill:#001900;fill-rule:evenodd" /><path
       d="m 166.316,97.728 c 0.159,2.721 -1.304,5.497 -1.643,8.203 -0.396,3.169 -1.157,5.522 -2.769,8.272 3.327,2.848 4.175,-9.918 4.88,-10.848 -0.149,0.002 -0.296,0.002 -0.446,0.002 0.476,-1.163 2.8,-6.447 -0.022,-5.629"
       id="path23"
       style="fill:#001900;fill-rule:evenodd" /><path
       d="m 242.339,76.639 c -0.896,-0.771 -1.563,-2.249 -2.253,-3.238 -0.909,-1.312 -1.641,-2.931 -2.387,-4.364 -1.501,-2.872 -3.689,-5.342 -5.181,-8.2 -2.814,-5.393 -5.97,-10.428 -9.557,-15.298 -1.857,-2.521 -3.737,-5.027 -5.404,-7.77 -1.56,-2.572 -3.445,-5.894 -5.621,-7.981 -0.517,-0.496 -0.25,-1.105 -0.9,-1.729 -0.231,-0.22 -0.644,-0.969 -0.756,-1.291 -0.677,-1.939 -2.141,-1.917 -3.499,-3.221 -0.736,-0.706 -0.709,-2.73 -1.152,-3.79 -0.716,-1.711 -2.264,-2.353 -3.896,-1.818 -2.312,0.752 -7.405,3.259 -5.837,6.269 0.543,1.039 1.242,1.52 2.594,1.515 1.193,-0.005 3.565,-2.157 4.688,-1.32 0.583,0.438 -0.382,1.114 0.669,1.617 0.308,0.146 0.474,1.205 0.903,1.615 0.945,0.909 1.762,3.154 2.394,4.365 0.644,1.229 1.804,2.165 2.438,3.382 0.841,1.606 1.681,3.216 2.521,4.826 0.671,1.285 2.053,1.937 2.569,3.415 0.512,1.47 1.659,2.433 2.478,3.671 1.633,2.472 3.432,5.448 5.617,7.547 0.899,0.863 1.579,2.805 2.347,3.908 0.859,1.235 2.27,2.563 2.936,3.837 1.45,2.775 3.771,5.328 4.794,8.255 0.292,0.834 1.705,3.987 2.329,4.525 1.198,1.039 5.522,0.982 7.166,1.273"
       id="path25"
       style="fill:#e4bc96;fill-rule:evenodd;stroke:#000000;stroke-width:0;stroke-linecap:square;stroke-miterlimit:10" /><path
       d="m 214.846,31.286 c -0.606,-0.437 -2.798,-0.947 -3.134,0.013 -0.512,1.455 2.891,0.056 3.134,-0.013"
       id="path27"
       style="fill-rule:evenodd" /><path
       d="m 217.547,35.171 c -1.975,0.007 -2.886,-0.352 -4.023,1.316 1.583,0.866 2.727,-0.472 4.023,-1.316"
       id="path29"
       style="fill-rule:evenodd" /><path
       d="m 220.692,37.757 c -1.439,0.55 -3.585,0.374 -4.472,1.748 1.268,0.809 1.219,0.947 2.479,0.128 0.751,-0.491 1.357,-1.255 1.993,-1.876"
       id="path31"
       style="fill-rule:evenodd" /><path
       d="m 223.396,42.075 c -0.73,0.211 -5.145,1.965 -4.234,2.841 1.426,1.368 3.938,-1.254 4.234,-2.841"
       id="path33"
       style="fill-rule:evenodd" /><path
       d="m 226.099,46.393 c -0.919,-0.076 -4.808,1.068 -4.019,2.615 0.816,1.601 3.448,-2.185 4.019,-2.615"
       id="path35"
       style="fill-rule:evenodd" /><path
       d="m 229.248,50.279 c -1.285,-0.157 -4.948,0.407 -4.138,1.956 0.757,1.447 3.588,-1.419 4.138,-1.956"
       id="path37"
       style="fill-rule:evenodd" /><path
       d="m 231.952,54.598 c -1.62,-0.077 -5.027,0.404 -3.571,2.613 1.513,-0.74 2.371,-1.445 3.571,-2.613"
       id="path39"
       style="fill-rule:evenodd" /><path
       d="m 233.312,58.488 c -1.88,-0.088 -3.017,0.276 -4.022,1.749 1.536,1.091 3.705,-0.412 4.022,-1.749"
       id="path41"
       style="fill-rule:evenodd" /><path
       d="m 236.462,62.807 c -1.716,-0.163 -3.09,0.418 -4.471,1.317 1.443,1.178 3.355,-0.501 4.471,-1.317"
       id="path43"
       style="fill-rule:evenodd" /><path
       d="m 237.815,65.397 c -1.868,-0.1 -3.053,0.716 -4.47,1.751 1.833,1.301 3.274,-0.582 4.47,-1.751"
       id="path45"
       style="fill-rule:evenodd" /><path
       d="m 240.519,69.718 c -0.724,-0.034 -4.782,0.351 -4.021,1.746 0.408,0.751 3.963,-1.171 4.021,-1.746"
       id="path47"
       style="fill-rule:evenodd" /><path
       d="m 265.496,156.646 c 2.287,-2.282 5.563,-1.463 7.305,1.044 0.83,1.19 1.662,2.422 1.669,3.899 0.007,1.909 -0.375,2.32 -1.775,3.691 -0.005,-1.002 0.156,-1.342 -0.455,-1.731 -0.434,-0.276 -2.205,0.009 -2.687,0.011 2.101,-0.353 0.329,-3.075 -0.084,-4.058 -0.914,-2.185 -1.479,-2.864 -3.973,-2.856"
       id="path49"
       style="fill:#e4bc96;fill-rule:evenodd;stroke:#000000;stroke-width:0;stroke-linecap:square;stroke-miterlimit:10" /><path
       d="m 266.822,152.746 c 0.774,0.212 1.542,0.472 2.242,0.857 -1.646,0.563 -2.137,2.734 -3.568,3.043 -0.738,0.161 -1.41,-0.181 -2.003,-0.56 -1.207,-0.77 -1.752,-0.724 -3.21,-0.717 -3.977,0.017 -8.165,0.402 -12.093,-0.214 -2.676,-0.421 -0.416,-3.037 1.166,-3.639 1.335,-0.507 3.923,-0.017 5.345,-0.021 1.934,-0.009 4.386,-0.365 6.297,-0.027 2.11,0.373 3.579,1.287 5.824,1.278"
       id="path51"
       style="fill:#e4bc96;fill-rule:evenodd;stroke:#000000;stroke-width:0;stroke-linecap:square;stroke-miterlimit:10" /><path
       d="m 161.703,64.409 c 1.156,-0.283 2.494,-1.199 2.9,-2.396 0.453,-1.333 2.474,-2.204 3.344,-3.476 1.808,-2.647 4.217,-4.731 5.271,-7.829 0.416,-1.227 1.783,-2.243 2.388,-3.422 0.799,-1.561 1.911,-2.865 2.709,-4.42 1.382,-2.7 3.495,-5.019 5.656,-7.126 1.026,-1 2.439,-2.154 3.571,-3.044 1.59,-1.257 2.54,-1.128 4.471,-1.318 3.147,-0.314 6.09,-2.897 8.253,-5.007 1.04,-1.015 -2.247,-1.758 -2.534,-2.58 -0.577,-1.657 0.668,-3.229 1.327,-4.838 1.734,-4.243 -4.55,-3.149 -6.659,-2.299 -2.912,1.176 -5.677,3.486 -6.913,6.305 -0.615,1.404 -1.418,2.6 -2.222,3.909 -0.864,1.4 -2.503,2.049 -3.228,3.469 -0.352,0.687 -2.526,1.873 -3.241,2.403 -1.29,0.955 -2.46,2.032 -3.808,2.91 -2.624,1.707 -5.039,3.748 -7.798,5.362 -2.842,1.664 -5.977,2.875 -8.728,4.663 -2.565,1.672 -5.014,3.409 -7.561,5.066 -4.652,3.027 -9.634,6.65 -12.728,11.173 8.511,0.832 17.02,1.663 25.53,2.495"
       id="path53"
       style="fill:#b2e532;fill-rule:evenodd;stroke:#000000;stroke-width:0;stroke-linecap:square;stroke-miterlimit:10" /><path
       d="m 144.687,63.179 c 1.777,-0.804 5.256,-3.992 6.553,-5.886 1.671,-2.447 5.063,-4.304 7.276,-6.294 1.303,-1.173 2.099,-1.987 3.809,-2.547 1.378,-0.451 2.737,-2.58 4.015,-3.412 2.746,-1.787 5.235,-3.732 7.581,-6.021 0.951,-0.925 2.666,-1.94 3.223,-3.027 0.536,-1.05 2.627,-2.751 3.684,-3.269 0.834,-0.412 3.074,-1.253 4.024,-1.315 2.217,-0.147 1.004,1.142 0.15,2.393 -0.73,1.065 -2.579,2.146 -3.569,3.114 -1.154,1.126 -2.337,2.277 -3.493,3.403 -2.424,2.367 -3.43,5.135 -5.249,7.794 -1.662,2.435 -2.793,4.829 -4.988,6.97 -2.05,1.999 -3.696,4.227 -6.012,5.861 -2.442,1.725 -2.514,2.176 -5.826,2.19 -3.728,0.015 -7.452,0.031 -11.178,0.046"
       id="path55"
       style="fill:#bfd632;fill-rule:evenodd" /><path
       d="m 159.012,63.121 c 0.853,-0.305 2.664,-2.162 3.594,-3.072 1.428,-1.388 2.56,-3.102 4.227,-4.186 1.344,-0.875 2.422,-3.374 3.323,-4.696 1.093,-1.599 2.37,-3.101 3.248,-4.815 1.672,-3.273 4.608,-6.871 6.99,-9.731 1.246,-1.495 3.002,-2.629 4.463,-3.914 1.235,-1.089 2.979,-1.775 4.016,-3.048 0.574,2.858 -5.423,6.335 -7.13,8.256 -2.465,2.775 -5.494,6.075 -6.651,9.478 -1.26,3.701 -3.818,7.171 -6.458,10.066 -1.37,1.502 -2.794,2.917 -4.253,4.339 -0.876,0.856 -1.754,1.71 -2.63,2.562 -0.197,0.194 -2.383,-1.069 -2.739,-1.239"
       id="path57"
       style="fill:#59a500;fill-rule:evenodd" /><path
       d="m 194.691,29.635 c -2.152,2.097 -4.671,1.447 -7.148,3.061 0.295,-0.579 0.591,-1.158 0.888,-1.736 -0.284,0.164 -0.622,0.254 -0.893,0.437 1.131,-0.874 -1.9,-4.188 0.429,-4.333 -0.149,0 -0.299,0.001 -0.446,0.002 0.467,0.477 0.525,0.922 0.005,1.299 1.206,-0.417 1.208,-1.179 1.998,-1.95 1.211,-1.182 0.235,1.182 0.236,1.292 0.002,0.648 1.538,1.26 2.021,1.722 0.838,0.804 2.233,1.465 2.91,0.206"
       id="path59"
       style="fill:#0c5900;fill-rule:evenodd" /><path
       d="m 144.687,63.179 c -0.429,0.063 -0.909,0.003 -1.344,0.005 1.696,-1.479 3.22,-3.574 4.889,-5.2 1.762,-1.719 3.86,-2.922 5.818,-4.372 4.094,-3.03 7.963,-6.022 11.601,-9.571 3.515,-3.428 7.839,-5.903 11.387,-9.365 1.796,-1.751 3.783,-3.179 5.567,-4.993 1.346,-1.367 2.095,-3.22 4.465,-3.05 -1.179,0.253 -1.205,1.482 -1.665,2.381 -0.417,0.813 -1.647,1.284 -2.321,1.941 -1.653,1.611 -3.717,2.753 -5.381,4.375 -0.49,0.479 -1.476,2.071 -1.991,2.242 -1.356,0.441 -2.052,1.265 -3.053,2.242 -1.544,1.506 -3.84,4.201 -5.887,4.87 -2.001,0.656 -2.759,2.976 -4.897,4.02 -2.206,1.079 -3.765,3.426 -5.825,4.765 -1.796,1.168 -4.386,2.982 -5.563,4.705 -0.699,1.022 -1.868,1.578 -2.914,2.258 -1.071,0.696 -1.979,1.861 -2.886,2.747"
       id="path61"
       style="fill:#65b200;fill-rule:evenodd" /><path
       d="m 197.356,24.428 c -0.546,-1.411 -3.336,-3.927 -4.936,-2.579 -1.399,-1.468 4.55,-2.698 5.575,-3.694 0.542,-0.53 0.748,-0.095 1.012,0.414 0.276,0.53 -0.533,1.44 -0.771,1.958 -0.653,1.425 -0.885,2.371 -0.88,3.901"
       id="path63"
       style="fill:#65b200;fill-rule:evenodd" /><path
       d="m 158.965,51.861 c -1.33,1.302 -2.662,2.601 -3.993,3.9 -0.296,0.287 -1.258,1.436 -1.806,0.889 -0.386,-0.389 0.681,-1.229 0.44,-1.734 -0.135,-0.286 -3.672,-1.46 -1.12,-2.705 1.358,-0.667 3.188,-0.926 4.235,-2.07 0.978,0.443 1.268,1.278 2.244,1.72"
       id="path65"
       style="fill-rule:evenodd" /><path
       d="m 166.109,46.636 c -0.365,0.401 -0.816,0.691 -1.341,0.872 -0.099,-0.494 1.576,-4.305 -0.456,-2.161 0.951,-0.843 0.832,-1.7 2.019,-2.472 0.771,-0.5 2.146,-0.808 1.099,-1.873 0.716,0.12 2.014,-0.549 2.469,-0.33 1.086,0.519 0.231,1.044 0.223,2.051 0.56,-0.601 1.411,-0.862 2.237,-0.876 -1.909,1.859 -4.142,3.146 -6.25,4.789"
       id="path67"
       style="fill-rule:evenodd" /><path
       d="m 96.069,107.54 c -0.352,2.152 1.583,1.113 2.022,2.373 0.525,1.507 1.438,2.837 1.985,4.395 0.848,2.427 6.442,3.936 8.669,4.85 3.271,1.344 5.579,4.032 8.649,5.506 0.506,0.243 1.854,-2.616 2.458,-2.931 0.314,-0.165 1.924,-0.569 2.236,-0.444 0.902,0.369 0.446,1.64 1.797,1.294 -0.15,0 -0.297,0.002 -0.446,0.002 0.896,-1.859 -0.196,-3.218 -1.362,-4.326 -1.379,-1.31 -2.759,-2.599 -4.676,-3.056 -2.121,-0.505 -3.887,-1.685 -5.925,-2.465 -0.928,-0.354 -1.788,-0.379 -2.633,-0.92 -0.763,-0.488 -1.554,-1.242 -2.467,-1.291 0.893,-0.434 1.787,-0.871 2.682,-1.308 -1.553,-2.233 -4.829,-4.034 -7.418,-5.277 -0.763,-0.364 -1.46,-0.268 -2.225,-0.633 -0.876,-0.419 -1.137,0.325 -1.805,0.327 -0.851,0.004 -1.742,2.836 -1.541,3.904"
       id="path69"
       style="fill:#b2ff3b;fill-rule:evenodd;stroke:#000000;stroke-width:0;stroke-linecap:square;stroke-miterlimit:10" /><path
       d="m 97.745,79.822 c -0.887,2.08 -5.03,4.469 -6.905,6.298 -0.506,0.495 -0.735,1.278 -1.332,1.664 -0.563,0.367 -1.795,0.84 -2.161,1.375 -0.885,1.296 -2.759,2.369 -3.427,3.708 -1.236,2.483 1.478,7.583 3.174,9.516 1.235,1.408 3.211,2.519 4.699,3.687 1.134,0.889 2.908,0.817 4.276,1.471 0.299,-1.364 2.289,-1.406 3.442,-1.635 1.768,-0.35 1.819,-0.741 2.688,0.92 0.735,1.406 1.49,2.308 3.095,2.689 2.123,0.507 2.041,1.385 3.764,-0.296 0.605,0.554 0.883,1.264 1.255,1.98 0.289,0.547 1.395,0.891 1.926,1.183 1.377,0.752 2.758,1.033 4.238,1.502 0.73,0.233 1.528,0.319 2.283,0.462 0.601,0.115 1.061,0.893 1.738,1.106 1.727,0.547 2.766,2.001 4.265,2.795 0.726,0.386 3.23,1.323 4.033,0.852 1.083,-0.638 1.252,-3.092 1.489,-4.261 0.667,-3.297 1.121,-6.598 1.636,-9.92 0.523,-3.361 1.268,-6.847 1.254,-10.261 -0.01,-2.146 -3.909,-2.634 -5.775,-3.356 -9.049,-3.503 -18.095,-7.004 -27.145,-10.507 -0.836,-0.325 -1.673,-0.647 -2.51,-0.972"
       id="path71"
       style="fill:#b2ff3b;fill-rule:evenodd;stroke:#000000;stroke-width:0;stroke-linecap:square;stroke-miterlimit:10" /><path
       d="m 104.932,85.42 c 1.165,4.438 5.227,6.508 7.204,10.365 0.46,0.891 0.561,1.928 1.041,2.851 0.451,0.863 1.129,1.569 1.379,2.511 0.175,0.672 0.345,2.16 0.956,2.552 1.535,0.981 1.72,0.16 2.922,-1.014 -2.431,0.197 -2.5,-1.35 -3.413,-3.096 -1.046,-2.004 -1.964,-3.968 -2.892,-5.969 -0.451,-0.978 -1.008,-1.17 -1.798,-1.725 -1.288,-0.905 -1.359,-0.93 -1.684,-2.464 -0.52,-2.464 -1.443,-2.923 -3.715,-4.011"
       id="path73"
       style="fill-rule:evenodd" /><path
       d="m 106.168,59.003 c 2.458,-1.39 6.44,-2.029 9.233,-2.219 4.311,-0.297 7.381,-0.248 11.598,0.61 3.35,0.678 6.731,1.091 10.136,1.406 3.075,0.283 5.887,0.871 8.973,1.355 7.046,1.108 14.186,1.823 21.188,3.146 7.019,1.329 14.062,2.69 21.146,3.638 6.719,0.9 13.271,3.009 20.021,3.852 7.009,0.878 14.025,1.694 21.034,2.569 7.153,0.893 14.297,1.758 21.349,3.244 3.459,0.726 6.934,1.311 10.273,2.45 3.977,1.357 6.472,3.16 9.847,5.652 0.96,0.707 1.406,2.631 2.543,3.175 1.13,0.542 2.45,2.609 2.916,3.773 0.414,1.026 0.459,2.548 0.463,3.678 0.008,1.619 -1.204,2.568 -1.868,3.868 -1.176,2.299 -5.039,4.967 -7.656,5.82 -3.27,1.07 -6.613,2.11 -10.029,2.597 -3.214,0.454 -6.652,0.161 -9.902,0.174 -3.257,0.013 -6.094,-0.029 -9.26,-0.784 -1.309,-0.31 -2.771,0.128 -4.11,-0.084 -1.766,-0.276 -3.532,-0.54 -5.295,-0.832 -3.655,-0.609 -7.308,-1.218 -10.975,-1.765 -6.896,-1.022 -14.028,-1.588 -20.858,-2.882 -7.469,-1.412 -14.96,-1.772 -22.543,-2.41 -14.349,-1.202 -28.633,-2.888 -42.979,-4.151 -6.497,-0.572 -13.132,-2.632 -19.164,-4.937 -1.496,-0.572 -2.99,-1.143 -4.486,-1.715 -1.563,-0.597 -2.709,-1.708 -4.17,-2.374 -1.56,-0.709 -3.154,-1.292 -4.747,-2.054 -1.485,-0.711 -2.571,-1.84 -4.224,-2.238 3.847,-7.52 7.696,-15.041 11.546,-22.562"
       id="path75"
       style="fill:#4c8233;fill-rule:evenodd;stroke:#000000;stroke-width:0;stroke-linecap:square;stroke-miterlimit:10" /><path
       d="m 224.86,72.378 c 0.449,0.287 0.899,0.574 1.348,0.86 -5.87,2.301 -13.329,0.325 -19.489,0.018 -7.723,-0.383 -15.444,-0.763 -23.167,-1.126 -13.956,-0.652 -27.925,-0.657 -41.883,-1.2 -7.642,-0.298 -15.286,-0.749 -22.934,-0.718 -2.873,0.012 -8.659,1.166 -10.952,-1.031 -2.189,-2.099 -1.155,-6.647 0.181,-8.886 1.798,-3.009 6.877,-2.771 10.043,-3.021 3.54,-0.275 7.239,0.195 10.785,0.331 1.131,0.042 2.584,0.699 3.789,0.857 1.581,0.211 3.178,0.285 4.757,0.531 3.523,0.555 7.032,1.545 10.552,2.019 12.572,1.684 24.802,4.744 37.31,6.42 13.25,1.778 26.333,3.713 39.66,4.946"
       id="path77"
       style="fill:#98b27f;fill-rule:evenodd" /><path
       d="m 108.895,68.952 c 7.352,-1.046 14.868,-1.067 22.283,-1.355 6.277,-0.241 12.587,-0.616 18.87,-0.489 15.295,0.306 30.541,0.733 45.787,2.011 2.958,0.247 5.914,0.496 8.87,0.745 -0.918,2.579 -5.218,4.835 -7.742,5.498 -3.856,1.011 -7.395,1.701 -11.354,2.196 -7.326,0.915 -14.578,1.175 -21.949,0.759 -7.044,-0.396 -14.107,-1.747 -21.148,-2.367 -6.562,-0.575 -13.178,-0.299 -19.753,-0.712 -7.049,-0.442 -13.942,-0.656 -21.005,-0.627"
       id="path79"
       style="fill:none;stroke:#e5e5e5;stroke-width:0;stroke-linecap:square;stroke-miterlimit:10" /><path
       d="m 106.219,71.559 c 14.092,-0.813 28.542,-2.481 42.628,-1.026 8.002,0.827 15.964,1.188 24.007,1.552 6.209,0.286 13.018,1.106 19.168,0.337 3.335,-0.416 6.667,-0.832 10.002,-1.251"
       id="path81"
       style="fill:none;stroke:#e5e5e5;stroke-width:0;stroke-linecap:square;stroke-miterlimit:10" /><path
       d="m 113.386,72.83 c 5.693,-0.023 12.184,-0.897 17.782,0.063 2.965,0.51 6.139,1.146 9.169,0.682 1.803,-0.274 3.604,-0.549 5.409,-0.827 0.7,-0.107 2.983,1.281 3.759,1.561 5.764,2.063 11.882,0.695 17.952,1.322 3.034,0.313 5.494,1.007 8.622,0.843 2.951,-0.156 6.001,-1.06 8.951,-0.903"
       id="path83"
       style="fill:none;stroke:#e5e5e5;stroke-width:0;stroke-linecap:square;stroke-miterlimit:10" /><path
       d="m 114.691,63.3 c 19.572,-0.079 39.099,0.336 58.652,1.062"
       id="path85"
       style="fill:none;stroke:#e5e5e5;stroke-width:0;stroke-linecap:square;stroke-miterlimit:10" /><path
       d="m 111.995,60.712 c 6.305,-0.026 12.611,-0.051 18.918,-0.077 5.504,-0.022 10.979,0.726 16.454,1.233"
       id="path87"
       style="fill:none;stroke:#e5e5e5;stroke-width:0;stroke-linecap:square;stroke-miterlimit:10" /><path
       d="m 110.195,58.986 c 7.164,-0.029 14.327,-0.058 21.49,-0.087"
       id="path89"
       style="fill:none;stroke:#e5e5e5;stroke-width:0;stroke-linecap:square;stroke-miterlimit:10" /><path
       d="m 101.759,75.909 c 1.614,0.08 3.994,1.828 5.733,2.299 2.151,0.584 4.321,1.073 6.515,1.488 4.589,0.869 9.058,1.521 13.74,1.736 9.52,0.434 19.203,-0.084 28.661,1.183"
       id="path91"
       style="fill:none;stroke:#e5e5e5;stroke-width:0;stroke-linecap:square;stroke-miterlimit:10" /><path
       d="m 97.745,79.822 c 2.909,1.859 6.867,2.235 10.225,2.972 3.49,0.762 6.606,1.75 10.167,2.141 7.065,0.776 14.115,1.244 21.146,2.347 6.785,1.066 13.619,1.648 20.402,2.778 7.155,1.188 14.381,1.675 21.524,2.797 13.966,2.192 28.398,3.832 42.55,3.775 7.167,-0.031 14.52,-1.206 21.652,-1.811 3.748,-0.316 7.661,-1.688 11.328,-2.504 3.519,-0.784 5.686,-2.733 8.628,-4.819 1.288,-0.915 2.577,-1.829 3.866,-2.744"
       id="path93"
       style="fill:none;stroke:#e5e5e5;stroke-width:0;stroke-linecap:square;stroke-miterlimit:10" /><path
       d="m 265.189,80.875 c -1.165,0.54 -1.69,1.823 -2.9,2.61 -1.298,0.844 -2.598,2.029 -3.98,2.705 -3.077,1.503 -6.345,2.919 -9.647,3.846 -6.525,1.831 -12.811,2.995 -19.579,3.571 -7.326,0.621 -14.555,0.694 -21.841,-0.282 -6.684,-0.896 -13.491,-1.078 -20.228,-1.774 -5.418,-0.561 -10.801,-0.788 -16.249,-0.766"
       id="path95"
       style="fill:none;stroke:#e5e5e5;stroke-width:0;stroke-linecap:square;stroke-miterlimit:10" /><path
       d="m 259.362,79.167 c -0.288,2.935 -6.099,4.538 -8.485,5.448 -3.401,1.293 -6.522,2.054 -10.107,2.806 -3.108,0.649 -6.335,1.672 -9.52,1.868 -4.606,0.281 -9.216,0.561 -13.822,0.843 -14.276,0.87 -28.462,-1.304 -42.661,-2.692 -11.464,-1.121 -22.965,-2.056 -34.422,-3.454 -5.933,-0.724 -12.166,-0.617 -18.145,-1.096 -2.92,-0.233 -5.857,-0.111 -8.787,-0.099 -2.471,0.01 -4.756,-0.7 -7.155,-1.271"
       id="path97"
       style="fill:none;stroke:#e5e5e5;stroke-width:0;stroke-linecap:square;stroke-miterlimit:10" /><path
       d="m 272.38,87.774 c -1.737,1.659 -3.126,2.984 -5.319,4.208 -2.066,1.154 -4.47,2.321 -6.816,2.785 -5.742,1.135 -11.424,1.909 -17.24,2.639 -5.183,0.646 -10.378,0.719 -15.597,0.92 -2.435,0.095 -4.866,0.283 -7.298,0.43 -2.351,0.146 -3.799,2.521 -6.328,1.379"
       id="path99"
       style="fill:none;stroke:#e5e5e5;stroke-width:0;stroke-linecap:square;stroke-miterlimit:10" /><path
       d="m 275.08,91.661 c -3.084,6.024 -14.022,6.859 -19.946,8.27 -3.457,0.819 -7.48,0.639 -11.021,0.935 -2.905,0.239 -5.691,0.47 -8.598,0.402 -15.064,-0.342 -30.032,-1.851 -44.978,-3.716 -6.411,-0.801 -12.838,-2.194 -19.307,-2.438 -6.176,-0.234 -12.253,-0.284 -18.402,-1.108 -4.594,-0.615 -9.188,-1.233 -13.781,-1.847 -2.292,-0.309 -4.697,-0.411 -6.903,-1.111 -7.281,-2.317 -14.563,-4.631 -21.845,-6.946"
       id="path101"
       style="fill:none;stroke:#e5e5e5;stroke-width:0;stroke-linecap:square;stroke-miterlimit:10" /><path
       d="m 250.845,76.604 c -0.346,2.161 -3.181,4.453 -5.186,5.238 -2.832,1.108 -5.78,2.736 -8.813,3.2 -6.825,1.044 -13.319,1.75 -20.221,2.083 -5.587,0.267 -10.987,1.536 -16.64,0.846 -3.108,-0.379 -6.743,-0.315 -9.733,-1.224 -3.221,-0.976 -6.443,-1.954 -9.667,-2.932"
       id="path103"
       style="fill:none;stroke:#e5e5e5;stroke-width:0;stroke-linecap:square;stroke-miterlimit:10" /><path
       d="m 243.681,76.634 c -5.055,4.927 -11.68,5.058 -18.5,5.879 -3.702,0.445 -7.438,0.772 -11.11,1.414 -3.416,0.597 -7.045,1.514 -10.541,1.528 -6.897,0.028 -13.636,-1.318 -20.464,-2.233 -7.48,-1.002 -14.874,-1.593 -22.416,-1.913 -8.449,-0.352 -16.872,-1.959 -25.358,-2.333 -8.393,-0.372 -16.653,-1.214 -25.022,-1.8"
       id="path105"
       style="fill:none;stroke:#e5e5e5;stroke-width:0;stroke-linecap:square;stroke-miterlimit:10" /><path
       d="m 229.345,74.093 c -2.973,2.899 -7.8,3.872 -11.916,4.22 -3.429,0.291 -6.859,0.581 -10.289,0.871 -2.327,0.197 -2.771,1.063 -4.993,1.428 -9.282,1.534 -19.343,0.598 -28.735,0.635"
       id="path107"
       style="fill:none;stroke:#e5e5e5;stroke-width:0;stroke-linecap:square;stroke-miterlimit:10" /><path
       d="m 220.832,72.395 c -6.063,1.701 -12.104,3.087 -18.289,4.308 -5.258,1.042 -10.922,3.128 -16.16,1.46"
       id="path109"
       style="fill:none;stroke:#e5e5e5;stroke-width:0;stroke-linecap:square;stroke-miterlimit:10" /><path
       d="m 269.233,84.754 c 1.924,2.063 5.253,3.917 6.225,6.701 1.007,2.884 -2.382,6.071 -4.236,7.88 -4.86,4.743 -12.094,5.184 -18.466,6.445 -6.164,1.217 -13.236,-0.229 -19.462,-0.684 -7.448,-0.543 -14.898,-0.777 -21.878,-3.443 -2.587,-0.989 -5.177,-1.192 -7.932,-1.476"
       id="path111"
       style="fill:none;stroke:#e5e5e5;stroke-width:0;stroke-linecap:square;stroke-miterlimit:10" /><path
       d="m 248.007,149.789 c 0.949,1.819 0.588,1.907 -0.316,3.674 -1.168,2.286 -2.331,0.104 -3.477,-0.627 -1.299,-0.83 -1.445,-2.831 -2.339,-4.116 -0.915,-1.313 -1.213,-2.919 -2.047,-4.252 -1.746,-2.787 -2.682,-5.989 -4.552,-8.683 -1.809,-2.601 -2.777,-5.812 -4.241,-8.618 -2.833,-5.432 -6.478,-10.294 -8.479,-16.026 -0.503,-1.439 -1.384,-2.725 -2.031,-4.105 -0.551,-1.174 -1.998,-2.917 -2.302,-4.067 -0.85,-3.236 -2.828,-5.758 -4.372,-8.714 -0.649,-1.243 -1.115,-2.569 -1.784,-3.847 -0.286,-0.551 -1.015,-1.12 -1.018,-1.735 -0.001,-0.189 -0.361,-1.714 -0.456,-1.948 -1.21,-2.97 -3.356,-5.759 -4.417,-8.796 -0.992,-2.844 -1.89,-6.73 -3.573,-9.153 -1.067,-1.535 -2.184,-8.646 -5.313,-5.595 -1.222,1.194 -2.585,-1.835 -2.85,-2.599 -0.551,-1.574 1.274,-2.67 2.364,-3.377 1.845,-1.203 2.068,0.56 4.054,0.552 0.993,-0.004 0.869,-0.591 1.781,-0.007 0.736,0.467 1.512,0.937 1.664,1.806 0.609,3.451 3.067,5.392 4.97,8.429 1.541,2.46 2.935,6.019 3.538,8.874 0.747,3.537 1.755,6.609 3.7,9.715 0.831,1.327 1.323,2.886 1.925,4.322 0.637,1.525 1.287,2.587 2.038,4.019 3.018,5.742 5.477,11.774 8.485,17.537 0.615,1.181 0.867,2.602 1.45,3.639 0.673,1.192 2.079,2.368 2.412,3.63 0.749,2.853 3.241,5.901 4.802,8.465 3.196,5.254 4.914,10.709 7.769,16.169 0.922,1.764 1.6,3.741 2.615,5.434"
       id="path113"
       style="fill:#e4bc96;fill-rule:evenodd;stroke:#000000;stroke-width:0;stroke-linecap:square;stroke-miterlimit:10" /><path
       d="m 245.284,140.276 c -1.714,-1.013 -2.802,-0.801 -4.479,0.019 0.783,1.304 3.584,0.899 4.479,-0.019"
       id="path115"
       style="fill-rule:evenodd" /><path
       d="m 247.986,144.596 c -1.939,-0.757 -3.644,-1.104 -5.372,0.021 1.214,2.03 3.747,0.094 5.372,-0.021"
       id="path117"
       style="fill-rule:evenodd" /><path
       d="m 249.787,147.186 c -0.538,0.003 -5.614,0.216 -4.247,1.53 0.868,0.836 3.596,-0.821 4.247,-1.53"
       id="path119"
       style="fill-rule:evenodd" /><path
       d="m 243.922,135.95 c -1.491,0.009 -2.984,0.015 -4.477,0.02 0.701,1.343 0.53,1.821 2.061,1.443 0.959,-0.234 1.631,-0.889 2.416,-1.463"
       id="path121"
       style="fill-rule:evenodd" /><path
       d="m 213.682,75.456 c -1.565,0.006 -2.53,-0.451 -3.06,1.106 -0.238,0.702 1.135,0.533 1.499,0.415 0.864,-0.283 1.051,-0.778 1.561,-1.521"
       id="path123"
       style="fill-rule:evenodd" /><path
       d="m 216.382,79.341 c -0.953,-0.074 -4.825,0.062 -4.469,1.75 0.263,1.24 1.937,0.573 2.505,0.294 0.917,-0.449 1.354,-1.25 1.964,-2.044"
       id="path125"
       style="fill-rule:evenodd" /><path
       d="m 219.087,83.66 c -1.964,-0.125 -3.76,0.276 -5.366,1.32 2.295,1.468 3.609,0.392 5.366,-1.32"
       id="path127"
       style="fill-rule:evenodd" /><path
       d="m 222.244,89.277 c -2.481,0.01 -3.803,-0.148 -5.816,1.322 2.326,0.935 3.876,-0.062 5.816,-1.322"
       id="path129"
       style="fill-rule:evenodd" /><path
       d="m 223.603,93.167 c -1.984,-0.15 -3.393,0.174 -4.471,1.752 1.595,1.237 3.49,-0.686 4.471,-1.752"
       id="path131"
       style="fill-rule:evenodd" /><path
       d="m 224.957,96.193 c -0.923,-0.077 -4.8,1.061 -4.018,2.614 0.694,1.381 3.476,-2.085 4.018,-2.614"
       id="path133"
       style="fill-rule:evenodd" /><path
       d="m 228.114,101.811 c -1.091,0.004 -6.191,-0.119 -4.021,2.182 1.386,-0.68 2.695,-1.405 4.021,-2.182"
       id="path135"
       style="fill-rule:evenodd" /><path
       d="m 229.474,105.7 c -0.968,-0.073 -4.314,-0.015 -4.473,1.318 -0.21,1.771 4.033,-0.868 4.473,-1.318"
       id="path137"
       style="fill-rule:evenodd" /><path
       d="m 230.834,110.023 c -2.081,0.009 -2.785,0.082 -4.472,1.32 1.828,0.88 3.05,-0.278 4.472,-1.32"
       id="path139"
       style="fill-rule:evenodd" /><path
       d="m 232.192,113.916 c -1.514,0.096 -2.551,-0.669 -4.029,0.017 0.458,1.238 0.854,1.31 2.032,0.926 0.767,-0.252 1.937,0.123 1.997,-0.943"
       id="path141"
       style="fill-rule:evenodd" /><path
       d="m 235.346,118.232 c -2.09,-0.494 -3.738,-0.485 -5.822,0.023 0.884,1.474 4.808,1.019 5.822,-0.023"
       id="path143"
       style="fill-rule:evenodd" /><path
       d="m 238.046,122.12 c -1.411,-0.205 -5.344,0.91 -3.805,2.388 1.255,1.205 3.059,-1.736 3.805,-2.388"
       id="path145"
       style="fill-rule:evenodd" /><path
       d="m 240.755,127.739 c -1.088,0.004 -5.627,0.002 -3.572,2.178 1.171,-0.761 2.366,-1.472 3.572,-2.178"
       id="path147"
       style="fill-rule:evenodd" /><path
       d="m 242.563,132.061 c -2.061,0.009 -3.279,-0.43 -4.473,1.316 0.681,0.578 3.515,-0.74 4.473,-1.316"
       id="path149"
       style="fill-rule:evenodd" /><path
       d="m 197.479,54.737 c -2.963,-1.134 -7.316,-2.287 -9.081,1.158 -1.448,2.83 -3.382,5.344 -5.681,7.584 -4.177,4.076 -9.437,8.1 -14.705,11.295 -5.83,3.538 -11.715,6.668 -18.093,9.166 -3.053,1.195 -6.24,2.073 -9.165,3.501 -2.962,1.449 -5.721,3.23 -8.669,4.67 -2.971,1.45 -5.691,3.506 -7.853,5.788 -1.114,1.176 -2.184,2.194 -3.12,3.478 -0.939,1.286 -1.192,2.33 -1.891,3.696 -1.208,2.362 0.187,5.524 1.489,7.563 1.81,2.834 4.474,4.083 7.402,5.485 6.277,3.012 12.725,-1.792 17.8,-5.093 2.978,-1.937 5.225,-5.57 7.533,-8.199 1.944,-2.211 4.208,-4.44 5.847,-6.843 3.499,-5.122 8.266,-9.004 12.34,-13.702 3.646,-4.204 7.917,-7.721 11.818,-11.522 1.239,-1.209 3.374,-4.373 5.577,-4.569 0.475,-0.042 0.966,0.469 1.459,0.415 1.014,-0.115 2.029,-0.227 3.042,-0.341 1.045,-0.115 3.482,-0.764 3.597,-1.812 0.172,-1.541 0.389,-3.065 0.383,-4.616 -0.005,-0.98 -2.33,-1.291 -3.357,-1.781 -1.552,-0.744 2.459,-1.771 2.729,-1.824 2.016,-0.397 1.118,-2.506 0.599,-3.497"
       id="path151"
       style="fill:#98e53f;fill-rule:evenodd;stroke:#000000;stroke-width:0;stroke-linecap:square;stroke-miterlimit:10" /><path
       d="m 95.969,82.86 c 4.839,1.615 6.663,8.591 8.941,12.417 0.625,1.046 0.979,2.293 1.55,3.385 0.563,1.08 1.643,1.543 2.117,2.331 0.776,1.293 0.008,2.134 0.015,3.467 0.002,0.777 0.458,2.621 0.459,2.848 -0.02,-4.855 -2.845,-7.788 -5.56,-11.689 -1.366,-1.965 -1.876,-3.856 -2.641,-6.053 -0.899,-2.578 -3.758,-3.32 -6.215,-4.103 0.945,-0.768 0.019,-1.87 1.334,-2.603"
       id="path153"
       style="fill-rule:evenodd" /><path
       d="m 93.298,86.768 c 1.201,1.08 2.819,2.509 3.595,3.883 0.961,1.696 1.272,4.112 1.842,5.965 0.789,2.557 1.513,6.92 3.59,8.735 -0.419,-0.482 -1.792,-0.319 -1.793,-0.642 -0.004,-1.15 -0.275,-1.342 -1.12,-2.152 -1.358,-1.306 -1.279,-4.131 -1.599,-5.85 -0.18,-0.973 -1.122,-5.289 -2.045,-5.731 -0.922,-0.439 -0.622,-1.15 -1.567,-1.83 -1.081,-0.779 -0.896,-1.061 -0.903,-2.378"
       id="path155"
       style="fill-rule:evenodd" /><path
       d="m 126.097,115.645 c -1.856,-1.123 -2.967,1.22 -1.188,1.786 1.891,0.601 3.567,0.942 5.542,1.211 3.067,0.408 6.678,-0.256 9.368,-1.715 3.117,-1.69 6.345,-3.233 8.694,-5.901 1.119,-1.274 2.125,-2.521 3.11,-3.894 0.819,-1.146 2.467,-2.377 2.852,-3.509 0.444,-1.306 1.925,-2.313 2.923,-3.284 1.208,-1.178 2.168,-2.538 3.192,-3.87 1.775,-2.309 4.277,-4.281 6.375,-6.327 1.05,-1.025 1.637,-2.468 2.671,-3.475 1.277,-1.245 2.779,-2.439 3.781,-3.905 0.896,-1.309 2.372,-2.166 3.259,-3.463 0.851,-1.245 2.258,-3.137 3.66,-3.822 1.812,-0.882 2.332,-3.09 4.013,-3.912 1.145,-0.56 3.638,-2.58 3.781,-3.8 -0.534,0.576 -1.17,0.463 -1.786,0.874 -0.588,0.39 -0.924,1.101 -1.569,1.417 -1.389,0.679 -2.803,1.542 -3.897,2.612 -2.587,2.518 -5.154,5.02 -7.686,7.491 -2.385,2.327 -4.85,4.277 -6.92,6.748 -0.918,1.096 -2.148,1.923 -3.022,3.06 -1.106,1.438 -1.911,3.054 -3.215,4.325 -2.205,2.151 -4.139,4.924 -5.791,7.387 -0.824,1.228 -2.406,1.816 -2.897,3.259 -0.309,0.905 -0.936,0.999 -1.822,1.434 -0.705,0.341 -0.617,1.527 -1.283,1.961 -1.428,0.929 -2.356,1.977 -3.807,2.909 -1.541,0.993 -2.903,2.117 -4.549,3.037 -2.45,1.366 -6.304,3.039 -9.125,2.368 -1.675,-0.399 -2.982,-0.359 -4.664,-1.002"
       id="path157"
       style="fill:#4c9900;fill-rule:evenodd" /><path
       d="m 144.838,100.415 c 0.968,-0.788 -0.016,-3.853 -0.021,-5.054 -0.004,-0.794 0.497,-1.23 0.28,-2.053 -0.247,-0.949 -0.498,-1.9 -0.748,-2.851 -1.592,2.569 -1.316,6.639 -1.305,9.525 0.007,1.794 0.337,2.171 2.037,2.162 1.275,-0.004 3.408,0.124 3.787,-1.315 -1.325,-0.532 -2.626,-0.421 -4.03,-0.414"
       id="path159"
       style="fill-rule:evenodd" /><path
       d="m 147.513,97.806 c 1.399,-1.218 0.287,-1.306 -0.011,-2.598 -0.2,-0.867 0.354,-2.439 0.767,-3.243 0.232,-0.454 1.803,-2.396 -0.104,-2.387 -1.475,0.005 -2.025,0.789 -2.02,2.205 0.011,2.375 0.019,4.749 0.029,7.126 0.006,1.641 5.158,0.029 5.816,-0.688 -1.388,-0.646 -2.981,-0.422 -4.477,-0.415"
       id="path161"
       style="fill-rule:evenodd" /><path
       d="m 142.158,102.158 c -0.009,-2.173 0.903,-6.651 -0.929,-8.224 -1.373,2.008 0.1,3.401 -0.424,5.629 -0.43,1.817 -1.443,3.253 -1.77,5.204 1.583,-0.004 5.813,0.717 6.26,-1.324 -2.137,0.008 -1.569,-0.819 -3.137,-1.285"
       id="path163"
       style="fill-rule:evenodd" /><path
       d="m 137.69,104.773 c 0.508,-0.798 0.66,-1.703 0.888,-2.601 -3.006,-0.457 -2.546,3.347 -2.243,5.06 0.294,1.672 4.732,0.006 5.394,-0.744 -1.427,-0.391 -2.712,-1.081 -4.039,-1.715"
       id="path165"
       style="fill-rule:evenodd" /><path
       d="m 135.016,107.383 c 0.866,0.929 2.719,1.991 4.036,1.715 -0.783,2.999 -5.348,-0.188 -7.163,0.029 0.959,-0.832 0.9,-3.693 1.56,-4.016 2.046,-1 1.56,0.776 1.567,2.272"
       id="path167"
       style="fill-rule:evenodd" /><path
       d="m 131.895,110.424 c 0.493,-0.002 2.912,-0.262 3.133,-0.011 1.18,1.331 -1.858,2.362 -2.544,2.496 -0.869,0.172 -2.198,-0.662 -3.038,-1.063 -0.834,-0.397 1.245,-2.756 1.546,-3.147 0.303,0.574 0.601,1.151 0.903,1.725"
       id="path169"
       style="fill-rule:evenodd" /><path
       d="m 149.299,96.5 c -0.014,-3.425 -0.099,-6.09 1.754,-9.101 1.313,0.791 1.922,4.099 1.25,5.414 -0.436,0.849 0.121,1.613 0.126,2.605 0.002,0.516 -2.571,0.927 -3.13,1.082"
       id="path171"
       style="fill-rule:evenodd" /><path
       d="m 153.294,88.257 c 0.305,-0.594 2.156,-4.672 3.124,-3.045 0.596,1.008 -1.715,4.386 -2.22,5.206 -0.3,-0.72 -0.602,-1.442 -0.904,-2.161"
       id="path173"
       style="fill-rule:evenodd" /><path
       d="m 157.776,89.538 c 1.304,-0.083 6.327,0.944 5.813,-1.756 -1.044,0.148 -2.088,0.297 -3.133,0.445 0.595,-1.011 1.388,-2.325 -0.013,-3.032 -0.964,1.416 -1.7,2.928 -2.667,4.343"
       id="path175"
       style="fill-rule:evenodd" /><path
       d="m 161.793,86.49 c -0.004,-1.163 -0.657,-4.075 0.879,-4.333 0.063,1.058 0.902,1.641 0.906,2.812 0.002,0.404 2.201,0.206 2.688,0.204 -1.58,1.539 -2.285,1.838 -4.473,1.317"
       id="path177"
       style="fill-rule:evenodd" /><path
       d="m 164.916,83.879 c -0.659,-0.633 -2.711,-3.607 -0.015,-3.464 1.084,0.058 1.107,1.229 1.305,1.979 0.095,0.357 1.458,0.176 1.839,0.174 -0.22,1.585 -1.746,2.292 -3.129,1.311"
       id="path179"
       style="fill-rule:evenodd" /><path
       d="m 166.255,82.576 c -0.188,-1.096 0.605,-1.978 1.19,-2.834 0.667,-0.974 0.521,1.036 0.148,1.529 0.669,-0.221 1.34,-0.439 2.011,-0.657 0.584,-0.193 1.565,0.356 0.912,0.78 -1.328,0.866 -2.699,0.798 -4.261,1.182"
       id="path181"
       style="fill-rule:evenodd" /><path
       d="m 168.929,79.533 c -0.613,-0.622 -0.325,-0.789 -0.006,-1.3 0.594,-0.946 1.207,-0.606 1.789,-0.44 0.12,0.037 0.412,0.865 1.107,0.862 0.829,-0.004 1.403,-0.126 1.586,0.86 -1.621,0.4 -2.879,0.663 -4.476,0.018"
       id="path183"
       style="fill-rule:evenodd" /><path
       d="m 127.819,99.185 c -1.342,0.44 -2.668,1.251 -4.026,0.448 1.893,-2.584 3.55,-4.335 6.508,-5.782 2.609,-1.274 5.23,-3.392 8.042,-4.082 2.831,-0.696 5.463,-2.608 8.226,-3.648 3.16,-1.191 6.196,-2.405 9.313,-3.76 2.794,-1.213 5.498,-2.572 8.115,-4.104 2.428,-1.423 5.637,-2.889 7.617,-4.821 2.165,-2.11 5.203,-3.333 7.332,-5.409 0.859,-0.836 2.062,-1.987 3.141,-2.514 1.222,-0.598 1.641,-2.188 2.892,-2.498 0.046,2.491 -3.403,3.753 -4.902,5.215 -0.412,0.401 -0.541,1.133 -1.077,1.393 -0.77,0.375 -1.468,0.654 -2.073,1.24 -1.159,1.132 -2.657,1.723 -3.976,2.686 -4.598,3.365 -9.413,6.448 -14.568,8.966 -5.493,2.684 -10.881,5.493 -16.586,7.729 -5.435,2.128 -9.887,4.945 -13.978,8.941"
       id="path185"
       style="fill:#7fcc32;fill-rule:evenodd" /><path
       d="m 256.687,82.209 c 1.761,-0.268 3.678,0.873 5.378,1.276"
       id="path187"
       style="fill:none;stroke:#e5e5e5;stroke-width:0;stroke-linecap:square;stroke-miterlimit:10" /><line
       id="line189"
       style="fill:none;stroke:#e5e5e5;stroke-width:0;stroke-linecap:square;stroke-miterlimit:10"
       x1="253.563"
       x2="256.702"
       y1="84.818001"
       y2="86.105003" /><line
       id="line191"
       style="fill:none;stroke:#e5e5e5;stroke-width:0;stroke-linecap:square;stroke-miterlimit:10"
       x1="250.87801"
       x2="252.23801"
       y1="84.829002"
       y2="89.155998" /><path
       d="m 246.406,86.147 c 0.782,1.012 0.84,3.081 1.36,4.325"
       id="path193"
       style="fill:none;stroke:#e5e5e5;stroke-width:0;stroke-linecap:square;stroke-miterlimit:10" /><line
       id="line195"
       style="fill:none;stroke:#e5e5e5;stroke-width:0;stroke-linecap:square;stroke-miterlimit:10"
       x1="242.39"
       x2="242.399"
       y1="89.195"
       y2="91.792999" /><path
       d="m 236.568,89.219 c -0.828,0.656 -0.358,1.771 0.011,2.597"
       id="path197"
       style="fill:none;stroke:#e5e5e5;stroke-width:0;stroke-linecap:square;stroke-miterlimit:10" /><path
       d="m 229.411,90.547 c -0.199,1.008 -0.591,1.555 0.011,2.597"
       id="path199"
       style="fill:none;stroke:#e5e5e5;stroke-width:0;stroke-linecap:square;stroke-miterlimit:10" /><path
       d="m 262.075,86.083 c 0.538,1.387 1.975,2.177 3.147,3.02"
       id="path201"
       style="fill:none;stroke:#e5e5e5;stroke-width:0;stroke-linecap:square;stroke-miterlimit:10" /><path
       d="m 256.715,89.137 c 0.76,0.659 0.847,1.742 1.354,2.592"
       id="path203"
       style="fill:none;stroke:#e5e5e5;stroke-width:0;stroke-linecap:square;stroke-miterlimit:10" /><line
       id="line205"
       style="fill:none;stroke:#e5e5e5;stroke-width:0;stroke-linecap:square;stroke-miterlimit:10"
       x1="250.901"
       x2="253.597"
       y1="90.459"
       y2="93.044998" /><line
       id="line207"
       style="fill:none;stroke:#e5e5e5;stroke-width:0;stroke-linecap:square;stroke-miterlimit:10"
       x1="245.08701"
       x2="246.44099"
       y1="91.781998"
       y2="94.806999" /><line
       id="line209"
       style="fill:none;stroke:#e5e5e5;stroke-width:0;stroke-linecap:square;stroke-miterlimit:10"
       x1="239.271"
       x2="240.627"
       y1="93.103996"
       y2="96.128998" /><path
       d="m 233.452,93.128 c -0.223,1.36 0.911,2.168 1.804,3.023"
       id="path211"
       style="fill:none;stroke:#e5e5e5;stroke-width:0;stroke-linecap:square;stroke-miterlimit:10" /><line
       id="line213"
       style="fill:none;stroke:#e5e5e5;stroke-width:0;stroke-linecap:square;stroke-miterlimit:10"
       x1="226.29601"
       x2="226.30099"
       y1="94.889999"
       y2="96.188004" /><path
       d="m 267.902,87.793 c 1.099,0.086 1.563,1.62 1.354,2.592"
       id="path215"
       style="fill:none;stroke:#e5e5e5;stroke-width:0;stroke-linecap:square;stroke-miterlimit:10" /><path
       d="m 262.093,90.414 c 1.203,0.288 1.494,1.578 1.802,2.591"
       id="path217"
       style="fill:none;stroke:#e5e5e5;stroke-width:0;stroke-linecap:square;stroke-miterlimit:10" /><path
       d="m 256.73,93.033 c 0.005,1.011 0.009,2.022 0.013,3.03"
       id="path219"
       style="fill:none;stroke:#e5e5e5;stroke-width:0;stroke-linecap:square;stroke-miterlimit:10" /><path
       d="m 249.576,94.795 c 0.84,0.027 1.091,1.843 1.354,2.592"
       id="path221"
       style="fill:none;stroke:#e5e5e5;stroke-width:0;stroke-linecap:square;stroke-miterlimit:10" /><path
       d="m 243.76,96.116 c 0.527,0.373 0.471,0.817 0.006,1.297"
       id="path223"
       style="fill:none;stroke:#e5e5e5;stroke-width:0;stroke-linecap:square;stroke-miterlimit:10" /><path
       d="m 237.94,96.14 c -0.776,0.123 -0.538,0.836 0.005,1.299"
       id="path225"
       style="fill:none;stroke:#e5e5e5;stroke-width:0;stroke-linecap:square;stroke-miterlimit:10" /><path
       d="m 229.439,97.473 c 0.448,-0.003 0.896,-0.005 1.344,-0.007"
       id="path227"
       style="fill:none;stroke:#e5e5e5;stroke-width:0;stroke-linecap:square;stroke-miterlimit:10" /><path
       d="m 267.923,92.987 c 1.232,1.322 1.347,0.951 1.355,3.026"
       id="path229"
       style="fill:none;stroke:#e5e5e5;stroke-width:0;stroke-linecap:square;stroke-miterlimit:10" /><line
       id="line231"
       style="fill:none;stroke:#e5e5e5;stroke-width:0;stroke-linecap:square;stroke-miterlimit:10"
       x1="260.772"
       x2="262.121"
       y1="96.046997"
       y2="97.339996" /><line
       id="line233"
       style="fill:none;stroke:#e5e5e5;stroke-width:0;stroke-linecap:square;stroke-miterlimit:10"
       x1="253.614"
       x2="254.964"
       y1="97.375999"
       y2="98.670998" /><path
       d="m 247.794,97.398 c 0.004,0.868 0.008,1.731 0.011,2.6"
       id="path235"
       style="fill:none;stroke:#e5e5e5;stroke-width:0;stroke-linecap:square;stroke-miterlimit:10" /><line
       id="line237"
       style="fill:none;stroke:#e5e5e5;stroke-width:0;stroke-linecap:square;stroke-miterlimit:10"
       x1="240.638"
       x2="240.64301"
       y1="98.728996"
       y2="100.027" /><line
       id="line239"
       style="fill:none;stroke:#e5e5e5;stroke-width:0;stroke-linecap:square;stroke-miterlimit:10"
       x1="233.47501"
       x2="233.48599"
       y1="98.757004"
       y2="101.787" /><path
       d="m 250.855,79.201 c 1.953,0.763 3.907,0.792 5.826,1.709"
       id="path241"
       style="fill:none;stroke:#e5e5e5;stroke-width:0;stroke-linecap:square;stroke-miterlimit:10" /><line
       id="line243"
       style="fill:none;stroke:#e5e5e5;stroke-width:0;stroke-linecap:square;stroke-miterlimit:10"
       x1="249.52"
       x2="252.216"
       y1="80.938004"
       y2="83.526001" /><path
       d="m 245.053,83.555 c 0.005,0.867 0.008,1.731 0.012,2.598"
       id="path245"
       style="fill:none;stroke:#e5e5e5;stroke-width:0;stroke-linecap:square;stroke-miterlimit:10" /><line
       id="line247"
       style="fill:none;stroke:#e5e5e5;stroke-width:0;stroke-linecap:square;stroke-miterlimit:10"
       x1="237.896"
       x2="237.90601"
       y1="84.880997"
       y2="87.914001" /><path
       d="m 232.08,86.205 c 0.896,0.717 0.401,2.127 0.013,3.032"
       id="path249"
       style="fill:none;stroke:#e5e5e5;stroke-width:0;stroke-linecap:square;stroke-miterlimit:10" /><path
       d="m 224.923,87.967 c 0.753,0.037 1.097,0.608 1.35,1.293"
       id="path251"
       style="fill:none;stroke:#e5e5e5;stroke-width:0;stroke-linecap:square;stroke-miterlimit:10" /><path
       d="m 271.07,96.005 c 0.467,0.479 0.528,0.925 0.005,1.3"
       id="path253"
       style="fill:none;stroke:#e5e5e5;stroke-width:0;stroke-linecap:square;stroke-miterlimit:10" /><path
       d="m 265.255,97.327 c 0.757,0.66 0.846,1.744 1.354,2.593"
       id="path255"
       style="fill:none;stroke:#e5e5e5;stroke-width:0;stroke-linecap:square;stroke-miterlimit:10" /><path
       d="m 259.44,98.652 c 0.458,0.993 1.576,1.875 1.355,3.024"
       id="path257"
       style="fill:none;stroke:#e5e5e5;stroke-width:0;stroke-linecap:square;stroke-miterlimit:10" /><path
       d="m 254.97,99.968 c 0.955,0.918 2.12,1.572 1.802,3.024"
       id="path259"
       style="fill:none;stroke:#e5e5e5;stroke-width:0;stroke-linecap:square;stroke-miterlimit:10" /><path
       d="m 250.94,99.985 c 0.519,0.995 1.027,1.949 1.354,3.023"
       id="path261"
       style="fill:none;stroke:#e5e5e5;stroke-width:0;stroke-linecap:square;stroke-miterlimit:10" /><path
       d="m 243.782,101.745 c 0.002,0.435 0.004,0.866 0.005,1.298"
       id="path263"
       style="fill:none;stroke:#e5e5e5;stroke-width:0;stroke-linecap:square;stroke-miterlimit:10" /><path
       d="m 236.62,101.774 c 0.002,0.435 0.003,0.866 0.005,1.3"
       id="path265"
       style="fill:none;stroke:#e5e5e5;stroke-width:0;stroke-linecap:square;stroke-miterlimit:10" /><path
       d="m 242.35,79.235 c 1.475,-0.147 2.864,0.968 4.035,1.716"
       id="path267"
       style="fill:none;stroke:#e5e5e5;stroke-width:0;stroke-linecap:square;stroke-miterlimit:10" /><path
       d="m 239.222,80.98 c 0.854,0.82 1.637,1.303 1.354,2.593"
       id="path269"
       style="fill:none;stroke:#e5e5e5;stroke-width:0;stroke-linecap:square;stroke-miterlimit:10" /><path
       d="m 233.408,82.304 c 0.868,0.757 0.745,1.891 1.802,2.588"
       id="path271"
       style="fill:none;stroke:#e5e5e5;stroke-width:0;stroke-linecap:square;stroke-miterlimit:10" /><path
       d="m 226.245,82.333 c 1.28,0.847 1.452,2.542 1.806,3.889"
       id="path273"
       style="fill:none;stroke:#e5e5e5;stroke-width:0;stroke-linecap:square;stroke-miterlimit:10" /><path
       d="m 222.221,83.647 c 0.004,0.866 0.008,1.731 0.011,2.598"
       id="path275"
       style="fill:none;stroke:#e5e5e5;stroke-width:0;stroke-linecap:square;stroke-miterlimit:10" /><path
       d="m 235.177,76.668 c -1.133,0.681 -2.567,0.847 -3.844,1.162 -1.81,0.444 -0.431,2.042 -0.616,3.186"
       id="path277"
       style="fill:none;stroke:#e5e5e5;stroke-width:0;stroke-linecap:square;stroke-miterlimit:10" /><line
       id="line279"
       style="fill:none;stroke:#e5e5e5;stroke-width:0;stroke-linecap:square;stroke-miterlimit:10"
       x1="236.519"
       x2="239.214"
       y1="76.663002"
       y2="79.248001" /><path
       d="m 229.36,77.988 c -1.163,0.352 -2.282,0.808 -3.41,1.249 -0.606,0.24 -0.866,2.471 -1.05,3.101"
       id="path281"
       style="fill:none;stroke:#e5e5e5;stroke-width:0;stroke-linecap:square;stroke-miterlimit:10" /><path
       d="m 222.176,72.389 c -0.095,1.588 0.643,2.953 1.36,4.326"
       id="path283"
       style="fill:none;stroke:#e5e5e5;stroke-width:0;stroke-linecap:square;stroke-miterlimit:10" /><path
       d="m 216.361,74.145 c 1.211,1.104 1.354,2.388 1.358,3.891"
       id="path285"
       style="fill:none;stroke:#e5e5e5;stroke-width:0;stroke-linecap:square;stroke-miterlimit:10" /><path
       d="m 223.554,81.044 c -2.739,0.012 -3.638,-0.028 -5.828,-1.708"
       id="path287"
       style="fill:none;stroke:#e5e5e5;stroke-width:0;stroke-linecap:square;stroke-miterlimit:10" /><path
       d="m 232.042,76.681 c -0.076,-1.465 -1.566,-1.294 -2.692,-1.289"
       id="path289"
       style="fill:none;stroke:#e5e5e5;stroke-width:0;stroke-linecap:square;stroke-miterlimit:10" /><path
       d="m 226.232,79.3 c -0.805,-0.061 -2.029,-1.946 -2.696,-2.585"
       id="path291"
       style="fill:none;stroke:#e5e5e5;stroke-width:0;stroke-linecap:square;stroke-miterlimit:10" /><path
       d="m 217.732,81.068 c -0.746,0.664 -0.966,1.709 -1.333,2.603"
       id="path293"
       style="fill:none;stroke:#e5e5e5;stroke-width:0;stroke-linecap:square;stroke-miterlimit:10" /><path
       d="m 204.75,81.121 c 0.006,1.299 0.011,2.598 0.017,3.896"
       id="path295"
       style="fill:none;stroke:#e5e5e5;stroke-width:0;stroke-linecap:square;stroke-miterlimit:10" /><path
       d="m 204.756,82.42 c -5.813,0.023 -11.457,0.537 -17.017,-1.231"
       id="path297"
       style="fill:none;stroke:#e5e5e5;stroke-width:0;stroke-linecap:square;stroke-miterlimit:10" /><path
       d="m 200.703,76.808 c 0.007,1.44 0.012,2.885 0.019,4.329"
       id="path299"
       style="fill:none;stroke:#e5e5e5;stroke-width:0;stroke-linecap:square;stroke-miterlimit:10" /><path
       d="m 192.203,78.139 c 0.004,1.011 0.009,2.022 0.013,3.033"
       id="path301"
       style="fill:none;stroke:#e5e5e5;stroke-width:0;stroke-linecap:square;stroke-miterlimit:10" /><path
       d="m 185.041,78.167 c 0.209,1.259 0.358,1.67 0.012,3.033"
       id="path303"
       style="fill:none;stroke:#e5e5e5;stroke-width:0;stroke-linecap:square;stroke-miterlimit:10" /><path
       d="m 202.035,74.203 c 0.004,0.867 0.009,1.733 0.012,2.6"
       id="path305"
       style="fill:none;stroke:#e5e5e5;stroke-width:0;stroke-linecap:square;stroke-miterlimit:10" /><path
       d="m 196.221,75.526 c 0.003,0.867 0.006,1.733 0.011,2.596"
       id="path307"
       style="fill:none;stroke:#e5e5e5;stroke-width:0;stroke-linecap:square;stroke-miterlimit:10" /><path
       d="m 190.408,76.85 c 0.539,0.462 0.781,1.173 0.005,1.296"
       id="path309"
       style="fill:none;stroke:#e5e5e5;stroke-width:0;stroke-linecap:square;stroke-miterlimit:10" /><path
       d="m 202.08,85.027 c -0.2,1.26 -0.347,1.671 0.013,3.033"
       id="path311"
       style="fill:none;stroke:#e5e5e5;stroke-width:0;stroke-linecap:square;stroke-miterlimit:10" /><path
       d="m 192.231,85.067 c 0.002,0.433 0.003,0.866 0.005,1.3"
       id="path313"
       style="fill:none;stroke:#e5e5e5;stroke-width:0;stroke-linecap:square;stroke-miterlimit:10" /><path
       d="m 197.591,82.449 c 0.872,0.756 0.748,1.891 1.803,2.589"
       id="path315"
       style="fill:none;stroke:#e5e5e5;stroke-width:0;stroke-linecap:square;stroke-miterlimit:10" /><path
       d="m 190.431,82.478 c 0.468,0.477 0.526,0.923 0.006,1.298"
       id="path317"
       style="fill:none;stroke:#e5e5e5;stroke-width:0;stroke-linecap:square;stroke-miterlimit:10" /><path
       d="m 183.261,81.208 c 0.002,0.433 0.004,0.866 0.005,1.299"
       id="path319"
       style="fill:none;stroke:#e5e5e5;stroke-width:0;stroke-linecap:square;stroke-miterlimit:10" /><line
       id="line321"
       style="fill:none;stroke:#e5e5e5;stroke-width:0;stroke-linecap:square;stroke-miterlimit:10"
       x1="196.271"
       x2="196.276"
       y1="88.083"
       y2="89.382004" /><path
       d="m 200.76,90.662 c 0.001,0.434 0.004,0.865 0.006,1.3"
       id="path323"
       style="fill:none;stroke:#e5e5e5;stroke-width:0;stroke-linecap:square;stroke-miterlimit:10" /><path
       d="m 204.8,93.243 c 0.004,1.012 0.008,2.021 0.013,3.03"
       id="path325"
       style="fill:none;stroke:#e5e5e5;stroke-width:0;stroke-linecap:square;stroke-miterlimit:10" /><path
       d="m 209.276,93.226 c 0.004,1.01 0.007,2.021 0.012,3.031"
       id="path327"
       style="fill:none;stroke:#e5e5e5;stroke-width:0;stroke-linecap:square;stroke-miterlimit:10" /><path
       d="m 210.637,97.55 c 0.95,0.763 0.036,1.869 1.354,2.593"
       id="path329"
       style="fill:none;stroke:#e5e5e5;stroke-width:0;stroke-linecap:square;stroke-miterlimit:10" /><path
       d="m 206.607,97.564 c 0.002,0.434 0.003,0.867 0.005,1.302"
       id="path331"
       style="fill:none;stroke:#e5e5e5;stroke-width:0;stroke-linecap:square;stroke-miterlimit:10" /><path
       d="m 200.787,97.59 c 0.002,0.432 0.005,0.867 0.006,1.299"
       id="path333"
       style="fill:none;stroke:#e5e5e5;stroke-width:0;stroke-linecap:square;stroke-miterlimit:10" /><path
       d="m 194.961,96.315 c 0.002,0.432 0.004,0.863 0.005,1.297"
       id="path335"
       style="fill:none;stroke:#e5e5e5;stroke-width:0;stroke-linecap:square;stroke-miterlimit:10" /><path
       d="m 187.796,95.046 c -0.2,1.008 -0.595,1.555 0.01,2.596"
       id="path337"
       style="fill:none;stroke:#e5e5e5;stroke-width:0;stroke-linecap:square;stroke-miterlimit:10" /><path
       d="m 180.624,93.342 c 0.004,1.012 0.008,2.021 0.013,3.03"
       id="path339"
       style="fill:none;stroke:#e5e5e5;stroke-width:0;stroke-linecap:square;stroke-miterlimit:10" /><path
       d="m 173.455,92.072 c 0.005,1.01 0.009,2.021 0.013,3.032"
       id="path341"
       style="fill:none;stroke:#e5e5e5;stroke-width:0;stroke-linecap:square;stroke-miterlimit:10" /><path
       d="m 200.771,93.26 c 0.002,0.578 0.004,1.157 0.006,1.733"
       id="path343"
       style="fill:none;stroke:#e5e5e5;stroke-width:0;stroke-linecap:square;stroke-miterlimit:10" /><path
       d="m 194.944,91.986 c 0.896,0.716 0.402,2.127 0.012,3.03"
       id="path345"
       style="fill:none;stroke:#e5e5e5;stroke-width:0;stroke-linecap:square;stroke-miterlimit:10" /><path
       d="m 190.47,92.004 c 0.001,0.432 0.003,0.864 0.005,1.297"
       id="path347"
       style="fill:none;stroke:#e5e5e5;stroke-width:0;stroke-linecap:square;stroke-miterlimit:10" /><path
       d="m 185.097,92.025 c 0.002,0.433 0.004,0.865 0.005,1.298"
       id="path349"
       style="fill:none;stroke:#e5e5e5;stroke-width:0;stroke-linecap:square;stroke-miterlimit:10" /><line
       id="line351"
       style="fill:none;stroke:#e5e5e5;stroke-width:0;stroke-linecap:square;stroke-miterlimit:10"
       x1="177.92799"
       x2="179.27499"
       y1="90.754997"
       y2="92.049004" /><line
       id="line353"
       style="fill:none;stroke:#e5e5e5;stroke-width:0;stroke-linecap:square;stroke-miterlimit:10"
       x1="193.592"
       x2="193.60201"
       y1="89.392998"
       y2="91.989998" /><path
       d="m 187.76,86.384 c 0.197,1.161 -0.715,2.134 -1.331,3.038"
       id="path355"
       style="fill:none;stroke:#e5e5e5;stroke-width:0;stroke-linecap:square;stroke-miterlimit:10" /><path
       d="m 183.294,89.435 c 0.47,0.477 0.529,0.922 0.005,1.298"
       id="path357"
       style="fill:none;stroke:#e5e5e5;stroke-width:0;stroke-linecap:square;stroke-miterlimit:10" /><path
       d="m 180.585,83.816 c -0.047,0.885 -1.339,0.928 -1.337,1.53 0.004,0.936 0.009,1.871 0.012,2.807"
       id="path359"
       style="fill:none;stroke:#e5e5e5;stroke-width:0;stroke-linecap:square;stroke-miterlimit:10" /><path
       d="m 179.265,89.452 c -0.75,0.044 -1.091,0.616 -1.337,1.303"
       id="path361"
       style="fill:none;stroke:#e5e5e5;stroke-width:0;stroke-linecap:square;stroke-miterlimit:10" /><path
       d="m 177.889,81.229 c 0.002,0.433 0.003,0.866 0.006,1.299"
       id="path363"
       style="fill:none;stroke:#e5e5e5;stroke-width:0;stroke-linecap:square;stroke-miterlimit:10" /><path
       d="m 179.22,78.191 c 0.004,1.011 0.009,2.022 0.012,3.033"
       id="path365"
       style="fill:none;stroke:#e5e5e5;stroke-width:0;stroke-linecap:square;stroke-miterlimit:10" /><path
       d="m 196.208,72.494 c 0.004,1.011 0.009,2.021 0.013,3.032"
       id="path367"
       style="fill:none;stroke:#e5e5e5;stroke-width:0;stroke-linecap:square;stroke-miterlimit:10" /><path
       d="m 190.397,74.25 c 0.205,1.007 0.604,1.552 0.011,2.599"
       id="path369"
       style="fill:none;stroke:#e5e5e5;stroke-width:0;stroke-linecap:square;stroke-miterlimit:10" /><path
       d="m 200.675,69.88 c -0.604,0.279 -1.121,0.622 -1.338,1.301"
       id="path371"
       style="fill:none;stroke:#e5e5e5;stroke-width:0;stroke-linecap:square;stroke-miterlimit:10" /><path
       d="m 193.513,69.909 c 0.003,0.866 0.007,1.729 0.011,2.596"
       id="path373"
       style="fill:none;stroke:#e5e5e5;stroke-width:0;stroke-linecap:square;stroke-miterlimit:10" /><path
       d="m 187.694,69.932 c -0.76,0.658 -1.063,1.679 -1.334,2.602"
       id="path375"
       style="fill:none;stroke:#e5e5e5;stroke-width:0;stroke-linecap:square;stroke-miterlimit:10" /><path
       d="m 185.018,72.539 c 0.005,1.444 0.012,2.888 0.018,4.332"
       id="path377"
       style="fill:none;stroke:#e5e5e5;stroke-width:0;stroke-linecap:square;stroke-miterlimit:10" /><path
       d="m 180.557,76.89 c -0.522,0.374 -0.462,0.819 0.006,1.296"
       id="path379"
       style="fill:none;stroke:#e5e5e5;stroke-width:0;stroke-linecap:square;stroke-miterlimit:10" /><path
       d="m 173.423,83.845 c -0.019,0.973 -0.795,1.816 -1.333,2.603"
       id="path381"
       style="fill:none;stroke:#e5e5e5;stroke-width:0;stroke-linecap:square;stroke-miterlimit:10" /><path
       d="m 173.439,88.175 c -0.804,0.286 -1.539,1.472 -1.332,2.603"
       id="path383"
       style="fill:none;stroke:#e5e5e5;stroke-width:0;stroke-linecap:square;stroke-miterlimit:10" /><path
       d="m 167.626,89.499 c 0.002,0.431 0.004,0.865 0.005,1.298"
       id="path385"
       style="fill:none;stroke:#e5e5e5;stroke-width:0;stroke-linecap:square;stroke-miterlimit:10" /><path
       d="m 166.293,92.102 c 0.926,0.72 0.252,2.093 0.013,3.03"
       id="path387"
       style="fill:none;stroke:#e5e5e5;stroke-width:0;stroke-linecap:square;stroke-miterlimit:10" /><path
       d="m 163.62,95.144 c 0.047,0.905 1.148,1.538 1.352,2.591"
       id="path389"
       style="fill:none;stroke:#e5e5e5;stroke-width:0;stroke-linecap:square;stroke-miterlimit:10" /><path
       d="m 170.787,96.412 c 0.026,0.97 0.811,1.811 1.354,2.594"
       id="path391"
       style="fill:none;stroke:#e5e5e5;stroke-width:0;stroke-linecap:square;stroke-miterlimit:10" /><path
       d="m 177.951,96.383 c 0.056,0.938 0.948,1.718 1.353,2.594"
       id="path393"
       style="fill:none;stroke:#e5e5e5;stroke-width:0;stroke-linecap:square;stroke-miterlimit:10" /><path
       d="m 185.119,97.652 c 0.057,0.937 0.949,1.719 1.354,2.593"
       id="path395"
       style="fill:none;stroke:#e5e5e5;stroke-width:0;stroke-linecap:square;stroke-miterlimit:10" /><path
       d="m 192.288,98.925 c 10e-4,0.434 0.003,0.865 0.005,1.297"
       id="path397"
       style="fill:none;stroke:#e5e5e5;stroke-width:0;stroke-linecap:square;stroke-miterlimit:10" /><path
       d="m 204.828,100.172 c 0.002,0.578 0.004,1.154 0.007,1.732"
       id="path399"
       style="fill:none;stroke:#e5e5e5;stroke-width:0;stroke-linecap:square;stroke-miterlimit:10" /><path
       d="m 173.343,64.362 c -0.195,0.895 -0.791,0.98 -1.575,1.236 -0.551,0.18 -0.847,1.315 -1.099,1.804"
       id="path401"
       style="fill:none;stroke:#e5e5e5;stroke-width:0;stroke-linecap:square;stroke-miterlimit:10" /><path
       d="m 167.524,64.386 c 0.252,1.142 -1.113,1.857 -1.331,3.035"
       id="path403"
       style="fill:none;stroke:#e5e5e5;stroke-width:0;stroke-linecap:square;stroke-miterlimit:10" /><path
       d="m 173.366,69.99 c -1.557,1.807 -7.752,-1.05 -9.854,-1.259 -3.782,-0.375 -7.832,0.032 -11.64,0.047"
       id="path405"
       style="fill:none;stroke:#e5e5e5;stroke-width:0;stroke-linecap:square;stroke-miterlimit:10" /><path
       d="m 161.716,67.438 c 0.47,0.478 0.528,0.923 0.006,1.3"
       id="path407"
       style="fill:none;stroke:#e5e5e5;stroke-width:0;stroke-linecap:square;stroke-miterlimit:10" /><path
       d="m 164.859,70.025 c 0.002,0.433 0.003,0.866 0.005,1.296"
       id="path409"
       style="fill:none;stroke:#e5e5e5;stroke-width:0;stroke-linecap:square;stroke-miterlimit:10" /><path
       d="m 159.04,70.048 c -0.446,0.436 -0.893,0.87 -1.337,1.302"
       id="path411"
       style="fill:none;stroke:#e5e5e5;stroke-width:0;stroke-linecap:square;stroke-miterlimit:10" /><path
       d="m 150.529,68.783 c 0.996,0.113 0.313,1.897 0.011,2.596"
       id="path413"
       style="fill:none;stroke:#e5e5e5;stroke-width:0;stroke-linecap:square;stroke-miterlimit:10" /><path
       d="m 151.889,72.674 c 0.498,0.667 0.29,1.554 1.349,1.727"
       id="path415"
       style="fill:none;stroke:#e5e5e5;stroke-width:0;stroke-linecap:square;stroke-miterlimit:10" /><line
       id="line417"
       style="fill:none;stroke:#e5e5e5;stroke-width:0;stroke-linecap:square;stroke-miterlimit:10"
       x1="159.05"
       x2="159.058"
       y1="72.644997"
       y2="74.376999" /><path
       d="m 164.87,72.621 c 0.213,1.243 -0.728,1.751 0.013,3.032"
       id="path419"
       style="fill:none;stroke:#e5e5e5;stroke-width:0;stroke-linecap:square;stroke-miterlimit:10" /><path
       d="m 160.406,75.671 c 0,0.433 0.003,0.867 0.005,1.299"
       id="path421"
       style="fill:none;stroke:#e5e5e5;stroke-width:0;stroke-linecap:square;stroke-miterlimit:10" /><path
       d="m 156.378,75.688 c -0.456,0.577 -1.081,1.049 -1.785,1.308"
       id="path423"
       style="fill:none;stroke:#e5e5e5;stroke-width:0;stroke-linecap:square;stroke-miterlimit:10" /><path
       d="m 156.389,78.284 c -0.322,0.506 -0.424,0.884 0.006,1.3"
       id="path425"
       style="fill:none;stroke:#e5e5e5;stroke-width:0;stroke-linecap:square;stroke-miterlimit:10" /><path
       d="m 150.563,77.011 c 0.003,0.863 0.007,1.729 0.01,2.596"
       id="path427"
       style="fill:none;stroke:#e5e5e5;stroke-width:0;stroke-linecap:square;stroke-miterlimit:10" /><path
       d="m 144.742,77.035 c 0.835,0.651 0.373,1.768 0.011,2.596"
       id="path429"
       style="fill:none;stroke:#e5e5e5;stroke-width:0;stroke-linecap:square;stroke-miterlimit:10" /><path
       d="m 147.439,79.62 c -0.135,0.765 -0.742,1.158 -1.336,1.738"
       id="path431"
       style="fill:none;stroke:#e5e5e5;stroke-width:0;stroke-linecap:square;stroke-miterlimit:10" /><path
       d="m 151.924,81.335 c 0.747,0.082 0.451,0.75 0.005,1.299"
       id="path433"
       style="fill:none;stroke:#e5e5e5;stroke-width:0;stroke-linecap:square;stroke-miterlimit:10" /><path
       d="m 142.068,79.642 c -0.597,0.58 -1.19,1.16 -1.785,1.74"
       id="path435"
       style="fill:none;stroke:#e5e5e5;stroke-width:0;stroke-linecap:square;stroke-miterlimit:10" /><path
       d="m 147.419,74.424 c 0.002,0.434 0.003,0.867 0.004,1.299"
       id="path437"
       style="fill:none;stroke:#e5e5e5;stroke-width:0;stroke-linecap:square;stroke-miterlimit:10" /><path
       d="m 142.046,74.446 c -0.188,0.852 -0.951,1.193 -1.785,1.307"
       id="path439"
       style="fill:none;stroke:#e5e5e5;stroke-width:0;stroke-linecap:square;stroke-miterlimit:10" /><path
       d="m 146.063,71.397 c 0.326,0.503 0.432,0.88 0.004,1.3"
       id="path441"
       style="fill:none;stroke:#e5e5e5;stroke-width:0;stroke-linecap:square;stroke-miterlimit:10" /><path
       d="m 156.333,64.431 c -0.522,0.57 -1.264,0.736 -1.787,1.304"
       id="path443"
       style="fill:none;stroke:#e5e5e5;stroke-width:0;stroke-linecap:square;stroke-miterlimit:10" /><path
       d="m 149.169,64.459 c -0.458,0.563 -1.083,1.062 -1.786,1.305"
       id="path445"
       style="fill:none;stroke:#e5e5e5;stroke-width:0;stroke-linecap:square;stroke-miterlimit:10" /><path
       d="m 140.214,64.496 c -0.141,0.72 -0.804,0.722 -1.339,1.302"
       id="path447"
       style="fill:none;stroke:#e5e5e5;stroke-width:0;stroke-linecap:square;stroke-miterlimit:10" /><path
       d="m 161.703,64.409 c -0.04,0.726 -0.629,1.06 -1.338,1.303"
       id="path449"
       style="fill:none;stroke:#e5e5e5;stroke-width:0;stroke-linecap:square;stroke-miterlimit:10" /><path
       d="m 130.366,64.536 c -0.446,0.432 -0.892,0.867 -1.336,1.302"
       id="path451"
       style="fill:none;stroke:#e5e5e5;stroke-width:0;stroke-linecap:square;stroke-miterlimit:10" /><path
       d="m 140.243,71.421 c -0.224,0.609 -0.869,0.525 -1.338,1.305"
       id="path453"
       style="fill:none;stroke:#e5e5e5;stroke-width:0;stroke-linecap:square;stroke-miterlimit:10" /><path
       d="m 133.082,71.45 c 0.001,0.434 0.003,0.87 0.005,1.3"
       id="path455"
       style="fill:none;stroke:#e5e5e5;stroke-width:0;stroke-linecap:square;stroke-miterlimit:10" /><path
       d="m 136.226,74.47 c 0.778,0.117 0.545,0.83 0.005,1.299"
       id="path457"
       style="fill:none;stroke:#e5e5e5;stroke-width:0;stroke-linecap:square;stroke-miterlimit:10" /><path
       d="m 138.921,77.058 c -0.058,0.722 -0.705,0.89 -1.338,1.302"
       id="path459"
       style="fill:none;stroke:#e5e5e5;stroke-width:0;stroke-linecap:square;stroke-miterlimit:10" /><path
       d="m 137.589,79.66 c 0.002,0.578 0.004,1.155 0.006,1.733"
       id="path461"
       style="fill:none;stroke:#e5e5e5;stroke-width:0;stroke-linecap:square;stroke-miterlimit:10" /><path
       d="m 133.109,78.378 c 0.006,1.61 -0.133,1.869 -1.332,3.038"
       id="path463"
       style="fill:none;stroke:#e5e5e5;stroke-width:0;stroke-linecap:square;stroke-miterlimit:10" /><line
       id="line465"
       style="fill:none;stroke:#e5e5e5;stroke-width:0;stroke-linecap:square;stroke-miterlimit:10"
       x1="130.411"
       x2="130.422"
       y1="75.792999"
       y2="78.389" /><path
       d="m 129.058,72.767 c 0.73,0.949 0.453,2.022 0.012,3.032"
       id="path467"
       style="fill:none;stroke:#e5e5e5;stroke-width:0;stroke-linecap:square;stroke-miterlimit:10" /><path
       d="m 140.298,85.277 c 0.002,0.434 0.004,0.867 0.006,1.3"
       id="path469"
       style="fill:none;stroke:#e5e5e5;stroke-width:0;stroke-linecap:square;stroke-miterlimit:10" /><path
       d="m 134.921,84.001 c 0.004,0.866 0.007,1.731 0.01,2.598"
       id="path471"
       style="fill:none;stroke:#e5e5e5;stroke-width:0;stroke-linecap:square;stroke-miterlimit:10" /><path
       d="m 129.104,84.024 c 0.325,0.501 0.43,0.879 0.004,1.298"
       id="path473"
       style="fill:none;stroke:#e5e5e5;stroke-width:0;stroke-linecap:square;stroke-miterlimit:10" /><line
       id="line475"
       style="fill:none;stroke:#e5e5e5;stroke-width:0;stroke-linecap:square;stroke-miterlimit:10"
       x1="123.283"
       x2="123.289"
       y1="84.047997"
       y2="85.346001" /><path
       d="m 144.766,82.663 c -0.169,0.654 -0.661,1.135 -1.339,1.303"
       id="path477"
       style="fill:none;stroke:#e5e5e5;stroke-width:0;stroke-linecap:square;stroke-miterlimit:10" /><path
       d="m 138.939,81.387 c 0.003,0.866 0.008,1.731 0.011,2.598"
       id="path479"
       style="fill:none;stroke:#e5e5e5;stroke-width:0;stroke-linecap:square;stroke-miterlimit:10" /><path
       d="m 130.433,81.421 c 0.637,0.67 0.75,1.724 1.355,2.592"
       id="path481"
       style="fill:none;stroke:#e5e5e5;stroke-width:0;stroke-linecap:square;stroke-miterlimit:10" /><path
       d="m 125.959,81.439 c -0.171,0.655 -0.664,1.137 -1.34,1.305"
       id="path483"
       style="fill:none;stroke:#e5e5e5;stroke-width:0;stroke-linecap:square;stroke-miterlimit:10" /><path
       d="m 127.736,78.4 c 0.043,0.82 1.09,2.021 1.357,3.027"
       id="path485"
       style="fill:none;stroke:#e5e5e5;stroke-width:0;stroke-linecap:square;stroke-miterlimit:10" /><path
       d="m 124.602,78.413 c -0.046,0.394 -1.987,0.859 -2.681,1.311"
       id="path487"
       style="fill:none;stroke:#e5e5e5;stroke-width:0;stroke-linecap:square;stroke-miterlimit:10" /><path
       d="m 118.783,78.436 c -0.787,0.92 -1.934,0.036 -2.683,1.312 -0.9,-0.863 -1.797,-1.726 -2.695,-2.585"
       id="path489"
       style="fill:none;stroke:#e5e5e5;stroke-width:0;stroke-linecap:square;stroke-miterlimit:10" /><path
       d="m 124.591,75.816 c 0.002,0.434 0.003,0.867 0.005,1.3"
       id="path491"
       style="fill:none;stroke:#e5e5e5;stroke-width:0;stroke-linecap:square;stroke-miterlimit:10" /><path
       d="m 120.562,75.833 c -0.813,0.184 -0.798,1.06 -1.785,1.307"
       id="path493"
       style="fill:none;stroke:#e5e5e5;stroke-width:0;stroke-linecap:square;stroke-miterlimit:10" /><path
       d="m 114.742,75.856 c 10e-4,0.433 0.003,0.867 0.005,1.3"
       id="path495"
       style="fill:none;stroke:#e5e5e5;stroke-width:0;stroke-linecap:square;stroke-miterlimit:10" /><path
       d="m 124.579,72.785 c 0.199,1.16 -0.712,2.131 -1.329,3.037"
       id="path497"
       style="fill:none;stroke:#e5e5e5;stroke-width:0;stroke-linecap:square;stroke-miterlimit:10" /><path
       d="m 118.76,72.808 c 0.529,0.582 0.629,1.25 0.006,1.733"
       id="path499"
       style="fill:none;stroke:#e5e5e5;stroke-width:0;stroke-linecap:square;stroke-miterlimit:10" /><path
       d="m 127.706,71.472 c 0.002,0.433 0.004,0.87 0.006,1.3"
       id="path501"
       style="fill:none;stroke:#e5e5e5;stroke-width:0;stroke-linecap:square;stroke-miterlimit:10" /><path
       d="m 121.888,71.496 c 0.526,0.373 0.47,0.818 0.005,1.299"
       id="path503"
       style="fill:none;stroke:#e5e5e5;stroke-width:0;stroke-linecap:square;stroke-miterlimit:10" /><path
       d="m 116.067,71.519 c 0.002,0.434 0.003,0.87 0.004,1.3"
       id="path505"
       style="fill:none;stroke:#e5e5e5;stroke-width:0;stroke-linecap:square;stroke-miterlimit:10" /><path
       d="m 123.205,64.565 c 0.657,0.852 0.663,2.169 0.011,3.029"
       id="path507"
       style="fill:none;stroke:#e5e5e5;stroke-width:0;stroke-linecap:square;stroke-miterlimit:10" /><line
       id="line509"
       style="fill:none;stroke:#e5e5e5;stroke-width:0;stroke-linecap:square;stroke-miterlimit:10"
       x1="123.222"
       x2="123.227"
       y1="68.893997"
       y2="70.194" /><path
       d="m 118.743,68.912 c 0.002,0.433 0.004,0.867 0.006,1.3"
       id="path511"
       style="fill:none;stroke:#e5e5e5;stroke-width:0;stroke-linecap:square;stroke-miterlimit:10" /><path
       d="m 113.372,68.934 c 0.002,0.433 0.003,0.867 0.004,1.3"
       id="path513"
       style="fill:none;stroke:#e5e5e5;stroke-width:0;stroke-linecap:square;stroke-miterlimit:10" /><path
       d="m 112.038,71.536 c 0.002,0.433 0.004,0.87 0.006,1.3"
       id="path515"
       style="fill:none;stroke:#e5e5e5;stroke-width:0;stroke-linecap:square;stroke-miterlimit:10" /><path
       d="m 129.042,68.871 c 0.746,0.083 0.451,0.748 0.005,1.3"
       id="path517"
       style="fill:none;stroke:#e5e5e5;stroke-width:0;stroke-linecap:square;stroke-miterlimit:10" /><path
       d="m 136.199,67.542 c -0.503,0.853 -0.582,1.938 -1.334,2.604"
       id="path519"
       style="fill:none;stroke:#e5e5e5;stroke-width:0;stroke-linecap:square;stroke-miterlimit:10" /><path
       d="m 142.018,67.519 c 0.017,1.007 0.471,2.01 1.354,2.594"
       id="path521"
       style="fill:none;stroke:#e5e5e5;stroke-width:0;stroke-linecap:square;stroke-miterlimit:10" /><path
       d="m 134.831,61.918 c -0.791,0.136 -1.188,0.724 -1.783,1.308"
       id="path523"
       style="fill:none;stroke:#e5e5e5;stroke-width:0;stroke-linecap:square;stroke-miterlimit:10" /><path
       d="m 125.879,61.955 c 0.815,0.181 0.805,1.054 1.793,1.293"
       id="path525"
       style="fill:none;stroke:#e5e5e5;stroke-width:0;stroke-linecap:square;stroke-miterlimit:10" /><path
       d="m 127.655,58.916 c 0.002,0.578 0.004,1.156 0.006,1.733"
       id="path527"
       style="fill:none;stroke:#e5e5e5;stroke-width:0;stroke-linecap:square;stroke-miterlimit:10" /><path
       d="m 123.182,58.934 c -0.326,0.515 -0.536,1.182 0.006,1.732"
       id="path529"
       style="fill:none;stroke:#e5e5e5;stroke-width:0;stroke-linecap:square;stroke-miterlimit:10" /><path
       d="m 116.016,58.963 c 0.003,0.577 0.005,1.155 0.007,1.733"
       id="path531"
       style="fill:none;stroke:#e5e5e5;stroke-width:0;stroke-linecap:square;stroke-miterlimit:10" /><line
       id="line533"
       style="fill:none;stroke:#e5e5e5;stroke-width:0;stroke-linecap:square;stroke-miterlimit:10"
       x1="118.698"
       x2="118.703"
       y1="57.654999"
       y2="58.952" /><path
       d="m 136.288,89.625 c -1.167,-1.229 -3.618,-1.706 -5.146,-0.958 -0.28,0.136 -1.542,-0.656 -2.024,-0.746 -1.007,-0.188 -1.989,0.071 -2.923,0.377 -0.955,0.313 -1.563,0.063 -2.217,-0.565 -1.047,-1.005 -0.506,-0.824 -2.029,-1.083 -1.776,-0.302 -4.008,0.017 -5.821,0.023"
       id="path535"
       style="fill:none;stroke:#e5e5e5;stroke-width:0;stroke-linecap:square;stroke-miterlimit:10" /><line
       id="line537"
       style="fill:none;stroke:#e5e5e5;stroke-width:0;stroke-linecap:square;stroke-miterlimit:10"
       x1="121.944"
       x2="121.949"
       y1="85.351997"
       y2="86.651001" /><path
       d="m 125.975,85.335 c -0.011,1.18 -0.684,2.089 -1.333,3.039"
       id="path539"
       style="fill:none;stroke:#e5e5e5;stroke-width:0;stroke-linecap:square;stroke-miterlimit:10" /><path
       d="m 131.799,86.611 c -0.187,0.789 -1.091,0.78 -1.336,1.738"
       id="path541"
       style="fill:none;stroke:#e5e5e5;stroke-width:0;stroke-linecap:square;stroke-miterlimit:10" /><path
       d="m 126.003,92.265 c -1.655,-0.792 -3.593,-2.188 -5.384,-2.576 -0.764,-0.166 -1.519,0.31 -2.071,-0.309 -0.806,-0.901 -1.613,-1.803 -2.42,-2.706 -0.444,0.578 -0.891,1.158 -1.334,1.738 -0.901,-1.006 -1.799,-2.014 -2.699,-3.021"
       id="path543"
       style="fill:none;stroke:#e5e5e5;stroke-width:0;stroke-linecap:square;stroke-miterlimit:10" /><path
       d="m 127.796,93.555 c -1.043,-1.286 -2.463,-4.416 -4.49,-3.876"
       id="path545"
       style="fill:none;stroke:#e5e5e5;stroke-width:0;stroke-linecap:square;stroke-miterlimit:10" /><line
       id="line547"
       style="fill:none;stroke:#e5e5e5;stroke-width:0;stroke-linecap:square;stroke-miterlimit:10"
       x1="123.312"
       x2="121.972"
       y1="90.976997"
       y2="92.280998" /><line
       id="line549"
       style="fill:none;stroke:#e5e5e5;stroke-width:0;stroke-linecap:square;stroke-miterlimit:10"
       x1="118.833"
       x2="114.793"
       y1="90.994003"
       y2="88.413002" /><path
       d="m 116.14,89.707 c -2.537,0.531 -5.317,-2.962 -7.178,-4.303"
       id="path551"
       style="fill:none;stroke:#e5e5e5;stroke-width:0;stroke-linecap:square;stroke-miterlimit:10" /><path
       d="m 110.315,88.432 c -1.491,-1.267 -2.625,-2.954 -4.045,-4.314"
       id="path553"
       style="fill:none;stroke:#e5e5e5;stroke-width:0;stroke-linecap:square;stroke-miterlimit:10" /><path
       d="m 106.281,86.715 c -1.628,-0.533 -2.437,-2.516 -3.15,-3.884"
       id="path555"
       style="fill:none;stroke:#e5e5e5;stroke-width:0;stroke-linecap:square;stroke-miterlimit:10" /><line
       id="line557"
       style="fill:none;stroke:#e5e5e5;stroke-width:0;stroke-linecap:square;stroke-miterlimit:10"
       x1="106.27"
       x2="104.932"
       y1="84.116997"
       y2="85.419998" /><line
       id="line559"
       style="fill:none;stroke:#e5e5e5;stroke-width:0;stroke-linecap:square;stroke-miterlimit:10"
       x1="121.972"
       x2="118.828"
       y1="92.280998"
       y2="89.695999" /><path
       d="m 103.141,85.428 c -1.09,-1.046 -2.617,-3.482 -4.044,-3.879"
       id="path561"
       style="fill:none;stroke:#e5e5e5;stroke-width:0;stroke-linecap:square;stroke-miterlimit:10" /><line
       id="line563"
       style="fill:none;stroke:#e5e5e5;stroke-width:0;stroke-linecap:square;stroke-miterlimit:10"
       x1="100.445"
       x2="99.102997"
       y1="82.843002"
       y2="82.848" /><path
       d="m 84.826,95.463 c -0.03,0.706 -0.811,0.831 -0.914,1.445 -0.124,0.729 -0.087,1.794 -0.415,2.456 -0.667,1.358 -2.509,2.801 -3.425,4.142 -0.388,0.568 -0.245,1.356 -0.577,1.937 -0.331,0.57 -1.085,0.893 -1.438,1.465 -0.947,1.54 -1.569,3.1 -2.388,4.694 -1.62,3.169 -2.688,6.514 -4.112,9.765 -0.496,1.132 -0.943,2.567 -0.938,3.8 0.008,2.165 -1.79,2.108 -3.353,1.108 -2.307,-1.476 -0.632,-6.788 0.247,-8.79 1.383,-3.153 2.425,-6.377 3.717,-9.54 1.279,-3.129 3.851,-5.446 4.542,-8.853 0.312,-1.546 0.518,-8.033 3.83,-6.324 1.74,0.899 3.482,1.796 5.224,2.695"
       id="path565"
       style="fill:#b2ff3b;fill-rule:evenodd;stroke:#000000;stroke-width:0;stroke-linecap:square;stroke-miterlimit:10" /><path
       d="m 104.81,55.113 c 2.806,1.795 5.766,3.289 8.526,5.161 2.49,1.688 6.228,3.9 1.979,5.977 -3.068,1.496 -5.123,4.513 -7.749,6.603 -2.557,2.038 -5.293,3.859 -7.585,6.092 -1.102,1.077 -1.681,2.729 -2.67,3.91 -1.188,1.417 -2.171,2.492 -3.023,4.162 -1.577,3.083 -2.219,5.732 -4.852,8.297 -0.542,0.53 -3.813,0.298 -4.61,0.148 -1.706,-0.321 -3.371,-1.475 -4.934,-2.146 -3.019,-1.297 -6.088,-2.368 -9.206,-3.359 -0.07,-0.021 -0.14,-0.044 -0.21,-0.065 0.006,1.486 0.128,2.428 -0.74,3.698 -0.572,0.837 -0.85,1.188 -1.704,0.641 -1.021,-0.652 -1.04,-0.292 -1.566,0.007 -0.229,0.126 0.033,1.3 -0.591,1.303 -0.782,0.003 -1.777,0.179 -2.538,0.01 -1.563,-0.347 -3.338,-1.447 -4.401,-2.595 -1.24,-1.338 -2.51,-2.609 -3.546,-4.098 -0.308,-0.446 0.136,-1.286 -0.271,-1.596 -0.506,-0.391 -2.118,-1.212 -2.12,-1.853 -0.006,-1.358 -1.175,-2.457 -1.378,-3.795 -0.279,-1.839 -0.607,-3.614 -1.034,-5.422 -0.555,-2.382 -1.815,-6.917 -1.213,-9.283 0.813,-3.21 2.116,-5.883 4.551,-8.261 1.093,-1.064 2.216,-2.098 3.613,-2.78 1.614,-0.79 3.267,-0.575 5.054,-0.583 3.267,-0.013 6.67,0.821 9.936,1.158 5.81,0.6 11.376,1.079 17.178,0.306 4.963,-0.663 10.145,-2.416 15.104,-1.637"
       id="path567"
       style="fill:#b2ff3b;fill-rule:evenodd;stroke:#000000;stroke-width:0;stroke-linecap:square;stroke-miterlimit:10" /><path
       d="m 103.019,55.12 c 1.199,-0.226 2.993,1.168 4.035,1.717 1.644,0.863 3.292,1.716 4.936,2.576 2.195,1.152 7.536,3.659 3.829,5.831 -2.727,1.597 -4.626,4.035 -7.948,4.69 -3.467,0.687 -7.381,-0.314 -10.858,-0.782 -6.939,-0.931 -13.147,-3.176 -19.828,-4.992 -1.512,-0.411 -3.043,-0.796 -4.576,-1.122 -0.848,-0.18 -3.877,-0.347 -4.482,-0.848 -1.212,-1.006 -0.861,-3.093 -0.156,-4.125 1.101,-1.611 2.55,-1.498 4.307,-1.333 5.426,0.5 10.665,1.069 16.122,1.046 5.013,-0.02 9.698,-2.638 14.619,-2.658"
       id="path569"
       style="fill:#cccc7f;fill-rule:evenodd" /><path
       d="M 114.691,63.3 C 109.523,63.321 104.47,63.808 99.305,63.473 96.94,63.32 94.89,62.275 92.597,61.727 90.201,61.159 87.815,61.058 85.377,60.73 80.247,60.041 75,59.722 69.937,58.694 c -2.029,-0.412 -13.736,-2.46 -13.91,0.944 4.641,-2.133 9.42,1.261 13.98,1.243 2.431,-0.01 4.86,-0.02 7.292,-0.03 2.447,-0.01 4.753,0.718 7.182,0.89 5.452,0.384 10.478,1.731 15.805,2.898 4.191,0.917 10.977,0.985 14.853,-0.908 -0.146,-0.143 -0.297,-0.287 -0.448,-0.431"
       id="path571"
       style="fill:#e5e5bf;fill-rule:evenodd" /><path
       d="m 67.231,62.193 c 6.911,-0.028 14.57,2.469 21.089,4.541 3.372,1.074 7.169,1.719 10.684,2.19 1.571,0.212 2.954,1.356 4.565,1.349 1.778,-0.007 3.554,-0.014 5.331,-0.021"
       id="path573"
       style="fill:none;stroke:#cccc7f;stroke-width:0;stroke-linecap:square;stroke-miterlimit:10" /><path
       d="m 67.231,62.193 c 0.543,0.904 2.033,1.337 2.917,1.503 1.685,0.319 3.36,0.684 5.042,1.04 2.776,0.584 6.059,0.553 8.729,1.316 2.926,0.837 6.248,2.264 9.277,2.578 2.943,0.305 6.1,1.64 8.989,1.65 -0.149,0.001 -0.299,0.002 -0.448,0.002 1.321,0.175 4.837,1.144 5.819,-0.024"
       id="path575"
       style="fill:none;stroke:#c9d17c;stroke-width:0;stroke-linecap:square;stroke-miterlimit:10" /><path
       d="m 69.027,63.485 c 0,0.144 0.002,0.289 0.002,0.434 0,-0.145 -0.002,-0.29 -0.002,-0.434 5.563,1.053 11.061,2.57 16.609,3.74 2.688,0.567 5.364,1.155 8.037,1.789 2.722,0.646 5.387,0.63 8.063,1.268 -2.174,1.587 4.935,1.276 5.824,1.272"
       id="path577"
       style="fill:none;stroke:#c6d779;stroke-width:0;stroke-linecap:square;stroke-miterlimit:10" /><path
       d="m 69.027,63.485 c -0.61,2.092 4.743,2.249 6.278,2.571 2.815,0.593 5.628,1.24 8.455,1.775 5.59,1.056 11.409,3.772 17.087,3.75 -0.15,10e-4 -0.299,10e-4 -0.448,0.002 1.618,0.218 4.358,1.042 5.82,-0.023"
       id="path579"
       style="fill:none;stroke:#c3dd77;stroke-width:0;stroke-linecap:square;stroke-miterlimit:10" /><path
       d="m 69.032,64.784 c 0.001,0.145 0.001,0.286 0.002,0.43 0,-0.144 0,-0.285 -0.002,-0.43 5.104,1.949 11.073,2.668 16.468,3.805 2.502,0.527 4.953,1.095 7.417,1.764 1.351,0.367 2.675,0.763 4.062,0.982 0.813,0.129 3.407,0.042 3.422,0.681 -10e-4,-0.145 -0.002,-0.286 -0.002,-0.434 2.204,1.058 3.399,1.286 5.825,1.276"
       id="path581"
       style="fill:none;stroke:#c0e274;stroke-width:0;stroke-linecap:square;stroke-miterlimit:10" /><path
       d="m 69.038,66.081 c 5.758,2.201 12.408,2.073 18.342,3.96 3.39,1.077 6.665,1.927 10.201,2.401 2.015,0.271 5.487,1.731 7.3,0.422"
       id="path583"
       style="fill:none;stroke:#bde871;stroke-width:0;stroke-linecap:square;stroke-miterlimit:10" /><path
       d="m 69.038,66.081 c 0.002,0.289 0.002,0.578 0.004,0.866 -0.051,-0.272 -0.002,-0.587 -0.004,-0.866 5.136,1.964 10.369,2.619 15.714,3.746 2.449,0.516 4.862,1.172 7.275,1.829 1.351,0.366 2.674,0.764 4.06,0.982 0.807,0.126 2.893,0.038 2.976,0.683 -0.001,-0.145 0,-0.289 0,-0.433 1.675,0.534 4.062,1.873 5.825,1.709"
       id="path585"
       style="fill:none;stroke:#bbee6e;stroke-width:0;stroke-linecap:square;stroke-miterlimit:10" /><path
       d="m 69.045,67.814 c 2.998,0.568 5.984,0.882 8.956,1.586 2.874,0.683 5.76,1.66 8.632,2.263 3.041,0.642 6.352,1.147 9.3,2.104 1.266,0.413 1.828,0.78 3.136,0.854 1.329,0.077 2.694,-0.011 4.028,-0.017"
       id="path587"
       style="fill:none;stroke:#b8f36b;stroke-width:0;stroke-linecap:square;stroke-miterlimit:10" /><path
       d="m 69.045,67.814 c 0.103,1.637 5.756,1.82 7.172,2.137 2.963,0.664 5.96,1.159 8.931,1.786 3.275,0.69 6.565,1.316 9.792,2.194 2.495,0.678 5.566,2.134 8.163,1.973"
       id="path589"
       style="fill:none;stroke:#b5f969;stroke-width:0;stroke-linecap:square;stroke-miterlimit:10" /><path
       d="m 69.05,69.113 c 11.271,-0.045 21.446,6.842 32.708,6.796"
       id="path591"
       style="fill:none;stroke:#b2ff65;stroke-width:0;stroke-linecap:square;stroke-miterlimit:10" /><path
       d="m 123.434,121.284 c 1.734,2.414 -0.781,6.801 -2.203,8.886 -0.897,1.313 -1.103,2.666 -2.124,3.995 -0.793,1.033 -1.229,2.988 -1.971,4.193 -1.829,2.97 -3.044,6.44 -4.16,9.733 -0.467,1.37 -1.241,2.638 -1.645,4.025 -0.208,0.717 -0.794,1.817 -0.748,2.559 0.038,0.545 1.15,1.602 0.907,2.163 -0.454,1.042 -3.488,0.36 -4.295,0.17 -1.303,-0.313 -0.362,-2.688 -0.02,-3.699 1.202,-3.533 2.353,-6.887 3.204,-10.522 0.674,-2.882 1.046,-6.044 2.238,-8.767 1.404,-3.202 2.697,-6.91 4.207,-9.858 1.441,-2.817 3.593,-2.867 6.61,-2.878"
       id="path593"
       style="fill:#d8cc7f;fill-rule:evenodd;stroke:#000000;stroke-width:0;stroke-linecap:square;stroke-miterlimit:10" /><path
       d="m 109.253,157.279 c 2.853,0.96 0.008,2.37 0.016,4.114 0.003,0.895 0.351,1.515 -0.673,1.52 -0.942,0.004 -1.727,0.438 -2.67,0.441 -1.453,0.009 -3.439,-2.396 -1.813,-3.455 1.628,-1.061 0.555,-3.324 2.448,-3.907 -0.376,1.371 1.692,1.404 2.692,1.287"
       id="path595"
       style="fill:#d8cc7f;fill-rule:evenodd;stroke:#000000;stroke-width:0;stroke-linecap:square;stroke-miterlimit:10" /><path
       d="m 66.141,124.548 c 0.083,-0.686 2.073,-0.009 2.948,-0.013 2.47,-0.009 0.871,2.372 0.299,3.303 -1.575,2.565 -1.905,6.388 -2.634,9.261 -0.856,3.366 -1.517,6.259 -1.776,9.721 -0.19,2.515 0.101,6.426 -1.065,8.703 -0.732,1.434 -2.813,1.027 -4.173,0.705 -0.923,-0.223 -0.644,-2.798 -0.646,-3.507 -0.014,-3.231 1.48,-6.371 2.174,-9.564 0.663,-3.054 1.318,-6.168 2.254,-9.154 0.81,-2.588 3.007,-6.695 2.619,-9.455"
       id="path599"
       style="fill:#d8cc7f;fill-rule:evenodd;stroke:#000000;stroke-width:0;stroke-linecap:square;stroke-miterlimit:10" /><path
       d="m 63.583,156.166 c 0.007,1.713 0.025,2.995 -0.524,4.611 -0.451,1.322 -2.306,2.853 -3.924,2.334 -1.812,-0.578 -1.276,-2.449 -0.957,-3.709 0.25,-0.979 0.482,-4.131 1.827,-2.787 0.683,-0.81 0.928,0.057 1.791,-0.009 0.689,-0.052 0.984,-0.563 1.787,-0.44"
       id="path601"
       style="fill:#d8cc7f;fill-rule:evenodd;stroke:#000000;stroke-width:0;stroke-linecap:square;stroke-miterlimit:10" /><path
       d="m 64.573,69.131 c -0.438,-1.668 -0.259,-3.271 -1.594,-4.55 -1.313,-1.257 -1.604,-2.74 -3.808,-2.356 -3.697,0.646 -3.114,4.67 -3.103,7.549 0.012,2.704 1.108,7.805 4.956,7.166 3.155,-0.524 4.277,-5.037 3.549,-7.809"
       id="path605"
       style="fill:#190000;fill-rule:evenodd" /><path
       d="m 61.875,66.11 c 0.255,-1.178 -0.64,-2.723 -2.031,-2.044 -1.396,0.681 -1.051,2.355 -0.826,3.632 0.097,0.546 1.411,3.576 2.117,2.544 0.95,-1.389 0.747,-2.463 0.74,-4.132"
       id="path607"
       style="fill:#190000;fill-rule:evenodd" /><path
       d="m 61.875,66.11 c -0.201,-0.288 -1.833,-2.53 -2.339,-1.542 -0.785,1.533 -0.729,1.945 -0.427,3.636 0.186,1.068 1.145,1.999 2.107,1.374 1.137,-0.738 0.663,-2.205 0.659,-3.468"
       id="path609"
       style="fill:#321900;fill-rule:evenodd" /><path
       d="m 61.875,66.11 c -1.707,-2.454 -3.284,-0.835 -2.856,1.588 0.137,0.779 0.654,1.875 1.756,1.335 1.096,-0.532 0.909,-1.798 1.1,-2.923"
       id="path611"
       style="fill:#4c3219;fill-rule:evenodd" /><path
       d="m 61.875,66.11 c -1.378,-1.718 -3.674,-1.021 -2.602,1.033 1.429,2.732 1.855,1.158 2.602,-1.033"
       id="path613"
       style="fill:#664c33;fill-rule:evenodd" /><path
       d="m 61.875,66.11 c -1.531,-1.084 -1.792,-0.254 -1.787,1.092 0.011,2.618 1.364,-0.061 1.787,-1.092"
       id="path615"
       style="fill:#ffffff;fill-rule:evenodd" /><path
       d="m 60.106,71.746 c -1.494,-0.228 -2.119,-1.337 -2.696,-2.586 -2.614,1.446 -0.134,6.966 2.715,6.918 1.263,-0.023 3.141,-1.795 3.121,-3.045 -0.027,-1.588 -1.784,-1.293 -3.14,-1.287"
       id="path617"
       style="fill:#190000;fill-rule:evenodd" /><path
       d="m 60.106,71.746 c -2.322,0.697 -1.54,-2.473 -3.144,-2.584 0.149,0 0.298,-0.001 0.447,-0.002 -0.465,1.831 -0.223,6.263 2.713,6.485 0.792,0.058 3.167,-1.801 3.123,-2.612 -0.061,-1.14 -2.254,-1.076 -3.139,-1.287"
       id="path619"
       style="fill:#2c1300;fill-rule:evenodd" /><path
       d="m 60.106,71.746 c -1.264,0.269 -2.48,-0.567 -2.693,-1.719 -0.357,1.707 0.298,4.076 2.036,5.188 1.286,0.82 4.072,-2.868 0.657,-3.469"
       id="path621"
       style="fill:#3f260c;fill-rule:evenodd" /><path
       d="m 60.113,73.046 c -1.237,-0.791 -1.872,-1.397 -2.697,-2.585 0,0.144 0.001,0.289 0.002,0.433 -10e-4,-0.145 -0.002,-0.289 -0.002,-0.433 -0.167,1.278 0.533,4.327 2.032,4.321 1.355,-0.006 1.509,0.107 2.143,-1.13 0.535,-1.051 -0.73,-1.258 -1.478,-0.606"
       id="path623"
       style="fill:#52391f;fill-rule:evenodd" /><path
       d="m 60.113,73.046 c -0.956,-0.264 -2.01,-0.554 -2.692,-1.29 0.052,3.239 2.762,3.8 4.482,1.282 -0.598,0.003 -1.195,0.005 -1.79,0.008"
       id="path625"
       style="fill:#664c33;fill-rule:evenodd" /><path
       d="m 28.478,0 c 2.69,10.238 4.348,20.509 8.249,30.451 4.192,10.681 8.976,20.582 14.83,30.506 1.136,-1.477 1.322,-1.336 0.551,-2.807 C 51.51,57 50.624,56.174 49.88,55.105 48.331,52.875 47.361,50.378 46.131,47.989 43.437,42.756 40.925,37.515 38.514,32.13 36.314,27.223 34.825,22.024 33.225,16.943 31.457,11.319 30.097,5.656 28.478,0"
       id="path627"
       style="fill:#ccbf99;fill-rule:evenodd;stroke:#000000;stroke-width:0;stroke-linecap:square;stroke-miterlimit:10" /><path
       d="m 0,42.98 c 7.685,1.948 14.937,4.692 22.375,7.4 6.355,2.312 11.948,6.395 17.708,9.831 3.813,2.28 7.629,4.556 11.445,6.832 0.274,0.165 1.8,0.832 1.848,1.268 0.209,1.879 -2.279,0.347 -2.686,0.011 -2.179,-1.797 -4.649,-3.997 -7.187,-5.6 -1.416,-0.897 -2.782,-1.374 -4.015,-2.559 -1.158,-1.11 -2.904,-1.336 -4.198,-2.269 -0.958,-0.69 -2.496,-2.257 -3.642,-2.532 -1.632,-0.387 -2.957,-1.026 -4.318,-2.004 -1.353,-0.975 -2.785,-1.104 -4.186,-1.909 -1.46,-0.839 -2.843,-1.581 -4.468,-2.1 -3.295,-1.046 -6.3,-2.58 -9.629,-3.635 C 6.044,44.76 3.004,43.936 0,42.98"
       id="path629"
       style="fill:#ccbf99;fill-rule:evenodd;stroke:#000000;stroke-width:0;stroke-linecap:square;stroke-miterlimit:10" /><path
       d="m 74.512,91.175 c -3.823,-1.27 -4.371,-6.922 -5.147,-10.124 -0.812,-3.345 -0.295,-7.194 -0.309,-10.638 -0.523,3.102 -1.073,6.379 -0.718,9.515 0.253,2.236 0.507,4.472 0.758,6.707 0.21,1.849 0.157,2.336 -1.566,3.179 -0.537,0.262 -1.289,1.188 -1.759,0.738 -0.723,-0.693 -1.51,-1.248 -2.329,-1.835 -1.104,-0.794 -3.078,-1.319 -4.406,-1.743 -1.936,-0.616 -1.756,-1.183 -3.007,-2.781 -1.346,-1.721 -2.243,-1.942 -4.388,-2.453 0.671,0.034 1.447,0.968 1.796,1.292 0.615,0.572 1.303,1.68 2.032,2.381 0.901,0.863 0.595,2.371 2.241,2.364 1.31,-0.005 2.23,0.858 3.6,0.852 1.062,-0.004 2.213,1.391 3.167,1.847 1.062,0.508 2.338,1.291 3.504,1.005 1.182,-0.292 2.068,-1.69 3.128,-1.439 1.168,0.275 2.348,0.553 3.403,1.133"
       id="path631"
       style="fill-rule:evenodd" /><path
       d="m 88.702,57.777 c 2.42,3.481 1.827,8.316 1.842,12.347 0.009,2.175 -1.612,3.46 -2.142,5.551 -0.61,2.395 -0.74,4.758 -0.941,7.22 0.39,-1.642 -1.345,-0.784 -1.351,-1.936 -0.005,-1.259 -0.044,-2.292 0.362,-3.485 0.621,-1.824 0.743,-4.888 1.835,-6.49 0.793,-1.159 1.036,-0.954 0.593,-2.638 -0.252,-0.967 0.949,-2.25 0.661,-2.94 -0.713,-1.706 -0.794,-2.212 -0.432,-4.008 0.222,-1.083 -0.522,-2.444 -0.427,-3.621"
       id="path633"
       style="fill-rule:evenodd" /><path
       d="m 83.329,57.799 c 0.355,2.116 0.019,4.415 0.027,6.725 0.011,2.538 0.532,4.972 0.173,7.468 -0.418,2.905 -1.226,5.787 -1.873,8.653 -0.654,2.908 1.553,6.164 -2.685,6.181 0.68,-0.028 1.287,-1.887 1.332,-2.604 0.033,-0.541 -0.611,-0.988 -0.34,-1.521 0.252,-0.493 0.27,-0.717 0.353,-1.221 0.47,-2.791 0.864,-5.588 1.266,-8.39 0.318,-2.228 2.114,-4.878 1.759,-7.196 -0.371,-2.459 -1.156,-5.749 -0.012,-8.095"
       id="path635"
       style="fill-rule:evenodd" /><path
       d="m 78.854,57.817 c 0.012,3.275 -1.319,6.233 -1.307,9.404 0.006,1.733 0.911,3.28 0.917,5.103 0.011,2.292 -0.824,3.084 -2.218,4.989 0.016,-0.753 0.465,-1.338 0.888,-1.955 0.554,-0.81 0.441,-1.403 0.437,-2.383 -0.007,-1.748 -0.139,-3.321 -0.441,-5.049 -0.583,-3.294 2.295,-7.352 0.38,-10.104 0.423,-0.001 0.932,-0.086 1.344,-0.005"
       id="path637"
       style="fill-rule:evenodd" /><path
       d="m 69,56.557 c -4.05,3.596 0.039,9.745 0.056,13.856"
       id="path639"
       style="fill:none;stroke:#7fcc32;stroke-width:0;stroke-linecap:square;stroke-miterlimit:10" /><path
       d="m 107.718,110.522 c -1.167,-0.34 -2.288,-0.788 -3.419,-1.22 -1.182,-0.45 -1.731,-1.788 -3.075,-1.783 -1.247,0.006 -2.062,0.481 -2.887,1.286 -0.932,0.908 0.266,2.163 0.883,3.052 0.126,-2.408 2.151,-1.31 3.8,-1.316 1.565,-0.006 3.133,-0.012 4.698,-0.019"
       id="path641"
       style="fill:#196500;fill-rule:evenodd" /><path
       d="m 99.224,113.155 c 1.571,0.651 2.578,1.69 4.262,2.149 1.959,0.53 3.947,0.876 5.944,1.254 2.77,0.523 8.61,2.064 10.419,4.309 -0.932,0.199 -2.413,2.618 -2.224,3.473 -1.039,-2.896 -6.693,-4.86 -9.312,-5.975 -1.986,-0.843 -3.192,-1.201 -4.925,-2.53 -0.572,-0.439 -1.509,-0.262 -2.128,-0.655 -0.974,-0.625 -1.382,-1.082 -2.036,-2.025"
       id="path643"
       style="fill:#4c9900;fill-rule:evenodd" /><path
       d="m 69.141,91.196 c -1.01,0.979 -1.937,1.837 -3.125,2.611 2.502,1.965 -3.159,1.744 -4.022,1.747 1.647,0.014 4.412,-2.761 4.011,-4.347 0.75,0.86 2.206,0.372 3.136,-0.011"
       id="path645"
       style="fill:#4c9900;fill-rule:evenodd" /><path
       d="m 81.708,99.373 c -0.394,1.798 -2.688,4.038 -3.908,5.522 -1.327,1.618 -2.365,4.29 -3.108,6.227 -1.731,4.522 -4.095,8.515 -4.075,13.406 1.792,-8.843 7.131,-17.067 11.091,-25.155"
       id="path647"
       style="fill:#4c9900;fill-rule:evenodd" /><path
       d="m 118.89,104.852 c -1.181,1.287 -2.721,1.299 -4.287,0.926 -2.309,-0.549 -2.417,2.454 -2.41,3.701 0.004,1.323 2.698,3.092 2.694,2.099 -0.005,-1.459 3.14,-1.526 4.026,-1.099 -0.009,-1.876 -0.016,-3.751 -0.023,-5.627"
       id="path649"
       style="fill:#4c9900;fill-rule:evenodd" /><path
       d="m 107.685,102.299 c -1.766,1.756 -3.494,1.761 -5.813,1.32 1.405,1.125 -0.582,2.173 0.907,3.244 1.336,0.962 2.811,1.549 4.354,2.14 3.121,1.194 1.192,-5.692 0.552,-6.704"
       id="path651"
       style="fill:#4c9900;fill-rule:evenodd" /><path
       d="m 106.213,70.263 c -2.558,0.136 -5.121,-0.458 -7.583,-1.044 -1.881,-0.448 -5.01,-1.351 -6.747,-0.198 2.379,-0.131 4.512,1.101 6.816,1.408 2.564,0.345 4.993,0.452 7.514,-0.166"
       id="path653"
       style="fill:#e5e5bf;fill-rule:evenodd" /><path
       d="m 88.742,67.734 c -1.406,-1.768 -3.305,-1.719 -5.38,-1.711 0.818,0.943 4.07,1.21 5.38,1.711"
       id="path655"
       style="fill:#e5e5bf;fill-rule:evenodd" /><path
       d="m 81.572,66.03 c -0.097,-1.06 -1.686,-1.499 -2.691,-1.285 0.971,0.045 1.785,0.902 2.691,1.285"
       id="path657"
       style="fill:#e5e5bf;fill-rule:evenodd" /><path
       d="m 67.293,77.349 c -0.251,1.438 -2.893,2.967 -4.254,3.412 -2.226,0.728 -3.216,-0.106 -4.247,-2.082 0.626,2.022 1.251,3.762 3.725,2.793 2.205,-0.863 3.375,-2.302 4.776,-4.123"
       id="path659"
       style="fill:#7fcc32;fill-rule:evenodd" /><path
       d="m 67.242,64.792 c -0.647,-1.243 -2.197,-4.311 -3.601,-4.751 -1.488,-0.463 -4.68,0.667 -6.264,0.892 2.018,-0.497 3.625,-0.249 5.707,-0.035 1.164,0.121 3.288,3.059 4.158,3.894"
       id="path661"
       style="fill:#7fcc32;fill-rule:evenodd" /><path
       d="m 193.502,67.31 c -2.101,-0.591 -3.191,-1.354 -4.489,-3.012 0.418,1.873 -2,0.448 -2.686,0.011 -0.943,3.479 5.271,2.867 7.175,3.001"
       id="path663"
       style="fill:#4c9900;fill-rule:evenodd" /><path
       d="m 197.489,57.336 c 0.199,1.539 -0.332,2.665 0.019,4.329 -2.075,-0.007 -4.719,-1.277 -5.384,-3.011 -0.276,0.143 -0.667,0.236 -0.894,0.437 0.244,-0.751 1.755,-0.44 2.685,-0.444 1.77,-0.007 2.151,-0.271 3.574,-1.311"
       id="path665"
       style="fill:#7fcc32;fill-rule:evenodd" /><path
       d="m 203.328,61.641 c -1.844,0.294 -2.4,-2.156 -3.365,-2.152 -1.507,0.007 0.36,2.602 -1.56,2.173 1.797,-0.336 3.679,2.065 4.044,3.447 0.38,-0.647 1.031,-1.022 1.786,-0.871 -0.843,-0.725 -1.136,-1.547 -0.008,-2.166 -0.282,-0.135 -0.591,-0.367 -0.897,-0.431"
       id="path667"
       style="fill:#d59758;fill-rule:evenodd" /><path
       d="m 197.489,57.336 c 0.199,1.539 -0.332,2.665 0.019,4.329"
       id="path669"
       style="fill:none;stroke:#000000;stroke-width:0;stroke-linecap:square;stroke-miterlimit:10" /><path
       d="m 204.509,21.368 c -2.128,2.334 -4.132,-1.363 -5.6,-0.411 -1.144,0.745 -1.56,1.564 -1.555,2.86 0.004,1.084 1.509,0.605 2.464,0.601 0.965,-0.004 1.807,0.094 2.678,-0.333 0.889,-0.435 0.27,1.621 1.349,1.617 0.418,-0.002 1.158,-2.008 1.427,-2.402 0.758,-1.11 0.7,-1.766 -0.763,-1.932"
       id="path671"
       style="fill:#d59758;fill-rule:evenodd" /><path
       d="m 93.311,89.8 c -0.575,2.253 -1.081,4.37 -2.314,6.375 -0.802,1.306 -4.6,1.335 -5.933,0.698 -1.229,-0.587 0.135,-1.411 0.896,-1.415 0.833,-0.003 2.096,0.208 2.895,-0.011 2.642,-0.73 3.377,-3.543 4.456,-5.647"
       id="path673"
       style="fill:#65b219;fill-rule:evenodd" /></g></g>

</svg>