<?xml version="1.0" encoding="UTF-8" standalone="no"?>
<!-- Generator: Adobe Illustrator 14.0.0, SVG Export Plug-In . SVG Version: 6.00 Build 43363)  -->

<svg
   xmlns:dc="http://purl.org/dc/elements/1.1/"
   xmlns:cc="http://creativecommons.org/ns#"
   xmlns:rdf="http://www.w3.org/1999/02/22-rdf-syntax-ns#"
   xmlns:svg="http://www.w3.org/2000/svg"
   xmlns="http://www.w3.org/2000/svg"
   xmlns:xlink="http://www.w3.org/1999/xlink"
   xmlns:sodipodi="http://sodipodi.sourceforge.net/DTD/sodipodi-0.dtd"
   xmlns:inkscape="http://www.inkscape.org/namespaces/inkscape"
   version="1.1"
   x="0px"
   y="0px"
   width="483.6351"
   height="438.08862"
   viewBox="0 0 483.6351 438.08862"
   enable-background="new 0 0 500 500"
   xml:space="preserve"
   id="svg2"
   inkscape:version="0.47 r22583"
   sodipodi:docname="ladybug.svg"><metadata
   id="metadata164"><rdf:RDF><cc:Work
       rdf:about=""><dc:format>image/svg+xml</dc:format><dc:type
         rdf:resource="http://purl.org/dc/dcmitype/StillImage" /><dc:title></dc:title></cc:Work></rdf:RDF></metadata><defs
   id="defs162"><inkscape:perspective
   sodipodi:type="inkscape:persp3d"
   inkscape:vp_x="0 : 250 : 1"
   inkscape:vp_y="0 : 1000 : 0"
   inkscape:vp_z="500 : 250 : 1"
   inkscape:persp3d-origin="250 : 166.66667 : 1"
   id="perspective166" />
	<linearGradient
   y2="357.00049"
   x2="248.4995"
   y1="118"
   x1="248.4995"
   gradientUnits="userSpaceOnUse"
   id="SVGID_3_">
		<stop
   id="stop70"
   style="stop-color:#FDFEFF;stop-opacity:0.41"
   offset="0" />
		<stop
   id="stop72"
   style="stop-color:#FDFEFF;stop-opacity:0.1"
   offset="1" />
	</linearGradient>
	
	<linearGradient
   y2="62.5"
   x2="246"
   y1="62.5"
   x1="220"
   gradientUnits="userSpaceOnUse"
   id="SVGID_4_">
		<stop
   id="stop77"
   style="stop-color:#FDFEFF;stop-opacity:0.42"
   offset="0" />
		<stop
   id="stop79"
   style="stop-color:#FDFEFF;stop-opacity:0.24"
   offset="1" />
	</linearGradient>
	
	<linearGradient
   y2="49.5"
   x2="290"
   y1="49.5"
   x1="264"
   gradientUnits="userSpaceOnUse"
   id="SVGID_5_">
		<stop
   id="stop84"
   style="stop-color:#FDFEFF;stop-opacity:0.44"
   offset="0" />
		<stop
   id="stop86"
   style="stop-color:#FDFEFF;stop-opacity:0.24"
   offset="1" />
	</linearGradient>
	
	<linearGradient
   y2="92.5"
   x2="298"
   y1="92.5"
   x1="281"
   gradientUnits="userSpaceOnUse"
   id="SVGID_6_">
		<stop
   id="stop91"
   style="stop-color:#FDFEFF;stop-opacity:0.24"
   offset="0" />
		<stop
   id="stop93"
   style="stop-color:#FDFEFF;stop-opacity:0.24"
   offset="1" />
	</linearGradient>
	
	<linearGradient
   y2="96"
   x2="228.5"
   y1="96"
   x1="201.5"
   gradientUnits="userSpaceOnUse"
   id="SVGID_7_">
		<stop
   id="stop98"
   style="stop-color:#FDFEFF;stop-opacity:0.24"
   offset="0" />
		<stop
   id="stop100"
   style="stop-color:#FDFEFF;stop-opacity:0.24"
   offset="1" />
	</linearGradient>
	
	<linearGradient
   y2="159"
   x2="431"
   y1="159"
   x1="392"
   gradientUnits="userSpaceOnUse"
   id="SVGID_8_">
		<stop
   id="stop105"
   style="stop-color:#FDFEFF;stop-opacity:0.24"
   offset="0" />
		<stop
   id="stop107"
   style="stop-color:#FDFEFF;stop-opacity:0.24"
   offset="1" />
	</linearGradient>
	
	<linearGradient
   y2="167.3398"
   x2="98"
   y1="167.3398"
   x1="54"
   gradientUnits="userSpaceOnUse"
   id="SVGID_9_">
		<stop
   id="stop112"
   style="stop-color:#FDFEFF;stop-opacity:0.24"
   offset="0" />
		<stop
   id="stop114"
   style="stop-color:#FDFEFF;stop-opacity:0.24"
   offset="1" />
	</linearGradient>
	
	<linearGradient
   y2="431.25"
   x2="122"
   y1="431.25"
   x1="89"
   gradientUnits="userSpaceOnUse"
   id="SVGID_10_">
		<stop
   id="stop119"
   style="stop-color:#FDFEFF;stop-opacity:0.24"
   offset="0" />
		<stop
   id="stop121"
   style="stop-color:#FDFEFF;stop-opacity:0.24"
   offset="1" />
	</linearGradient>
	
	<linearGradient
   y2="279.75"
   x2="46.5"
   y1="279.75"
   x1="10.6938"
   gradientUnits="userSpaceOnUse"
   id="SVGID_11_">
		<stop
   id="stop126"
   style="stop-color:#FDFEFF;stop-opacity:0.24"
   offset="0" />
		<stop
   id="stop128"
   style="stop-color:#FDFEFF;stop-opacity:0.24"
   offset="1" />
	</linearGradient>
	
	<linearGradient
   y2="435.92679"
   x2="392.58011"
   y1="435.92679"
   x1="361.5"
   gradientUnits="userSpaceOnUse"
   id="SVGID_12_">
		<stop
   id="stop133"
   style="stop-color:#FDFEFF;stop-opacity:0.24"
   offset="0" />
		<stop
   id="stop135"
   style="stop-color:#FDFEFF;stop-opacity:0.24"
   offset="1" />
	</linearGradient>
	
	<linearGradient
   y2="327.5"
   x2="333"
   y1="327.5"
   x1="255"
   gradientUnits="userSpaceOnUse"
   id="SVGID_13_">
		<stop
   id="stop140"
   style="stop-color:#FDFEFF;stop-opacity:0.44"
   offset="0" />
		<stop
   id="stop142"
   style="stop-color:#FDFEFF;stop-opacity:0.24"
   offset="1" />
	</linearGradient>
	
	<linearGradient
   y2="317"
   x2="161"
   y1="317"
   x1="87.580101"
   gradientUnits="userSpaceOnUse"
   id="SVGID_14_">
		<stop
   id="stop147"
   style="stop-color:#FDFEFF;stop-opacity:0.44"
   offset="0" />
		<stop
   id="stop149"
   style="stop-color:#FDFEFF;stop-opacity:0.24"
   offset="1" />
	</linearGradient>
	
	<linearGradient
   y2="167.0005"
   x2="174"
   y1="167.0005"
   x1="104.6665"
   gradientUnits="userSpaceOnUse"
   id="SVGID_15_">
		<stop
   id="stop154"
   style="stop-color:#FDFEFF;stop-opacity:0.44"
   offset="0" />
		<stop
   id="stop156"
   style="stop-color:#FDFEFF;stop-opacity:0.24"
   offset="1" />
	</linearGradient>
	
<linearGradient
   inkscape:collect="always"
   xlink:href="#SVGID_15_"
   id="linearGradient3012"
   gradientUnits="userSpaceOnUse"
   x1="104.6665"
   y1="167.0005"
   x2="174"
   y2="167.0005" /><linearGradient
   inkscape:collect="always"
   xlink:href="#SVGID_14_"
   id="linearGradient3015"
   gradientUnits="userSpaceOnUse"
   x1="87.580101"
   y1="317"
   x2="161"
   y2="317" /><linearGradient
   inkscape:collect="always"
   xlink:href="#SVGID_13_"
   id="linearGradient3018"
   gradientUnits="userSpaceOnUse"
   x1="255"
   y1="327.5"
   x2="333"
   y2="327.5" /><linearGradient
   inkscape:collect="always"
   xlink:href="#SVGID_12_"
   id="linearGradient3021"
   gradientUnits="userSpaceOnUse"
   x1="361.5"
   y1="435.92679"
   x2="392.58011"
   y2="435.92679" /><linearGradient
   inkscape:collect="always"
   xlink:href="#SVGID_11_"
   id="linearGradient3024"
   gradientUnits="userSpaceOnUse"
   x1="10.6938"
   y1="279.75"
   x2="46.5"
   y2="279.75" /><linearGradient
   inkscape:collect="always"
   xlink:href="#SVGID_10_"
   id="linearGradient3027"
   gradientUnits="userSpaceOnUse"
   x1="89"
   y1="431.25"
   x2="122"
   y2="431.25" /><linearGradient
   inkscape:collect="always"
   xlink:href="#SVGID_9_"
   id="linearGradient3030"
   gradientUnits="userSpaceOnUse"
   x1="54"
   y1="167.3398"
   x2="98"
   y2="167.3398" /><linearGradient
   inkscape:collect="always"
   xlink:href="#SVGID_8_"
   id="linearGradient3033"
   gradientUnits="userSpaceOnUse"
   x1="392"
   y1="159"
   x2="431"
   y2="159" /><linearGradient
   inkscape:collect="always"
   xlink:href="#SVGID_7_"
   id="linearGradient3036"
   gradientUnits="userSpaceOnUse"
   x1="201.5"
   y1="96"
   x2="228.5"
   y2="96" />
	
<linearGradient
   inkscape:collect="always"
   xlink:href="#SVGID_1_"
   id="linearGradient3835"
   gradientUnits="userSpaceOnUse"
   x1="82.313004"
   y1="328.5"
   x2="245"
   y2="328.5" /><linearGradient
   inkscape:collect="always"
   xlink:href="#SVGID_2_"
   id="linearGradient3837"
   gradientUnits="userSpaceOnUse"
   x1="250.3125"
   y1="328.5"
   x2="413"
   y2="328.5" />
		
		
		
	
			
			
			
			
			
			
			
			
			
		<linearGradient
   inkscape:collect="always"
   xlink:href="#SVGID_2_"
   id="linearGradient3868"
   gradientUnits="userSpaceOnUse"
   x1="250.3125"
   y1="328.5"
   x2="413"
   y2="328.5" />
			<linearGradient
   y2="328.5"
   x2="413"
   y1="328.5"
   x1="250.3125"
   gradientUnits="userSpaceOnUse"
   id="SVGID_2_">
				<stop
   id="stop43"
   style="stop-color:#CF2027"
   offset="0" />
				<stop
   id="stop45"
   style="stop-color:#CF2027"
   offset="1" />
			</linearGradient>
			
		<linearGradient
   inkscape:collect="always"
   xlink:href="#SVGID_1_"
   id="linearGradient3876"
   gradientUnits="userSpaceOnUse"
   x1="82.313004"
   y1="328.5"
   x2="245"
   y2="328.5" />
			<linearGradient
   y2="328.5"
   x2="245"
   y1="328.5"
   x1="82.313004"
   gradientUnits="userSpaceOnUse"
   id="SVGID_1_">
				<stop
   id="stop35"
   style="stop-color:#CF2027"
   offset="0" />
				<stop
   id="stop37"
   style="stop-color:#CF2027"
   offset="1" />
			</linearGradient>
			
		</defs><sodipodi:namedview
   pagecolor="#ffffff"
   bordercolor="#666666"
   borderopacity="1"
   objecttolerance="10"
   gridtolerance="10"
   guidetolerance="10"
   inkscape:pageopacity="0"
   inkscape:pageshadow="2"
   inkscape:window-width="798"
   inkscape:window-height="544"
   id="namedview160"
   showgrid="false"
   inkscape:zoom="0.5"
   inkscape:cx="188.36485"
   inkscape:cy="242.76583"
   inkscape:window-x="0"
   inkscape:window-y="24"
   inkscape:window-maximized="0"
   inkscape:current-layer="svg2" />
<g
   id="Reference"
   display="none"
   style="display:none"
   transform="translate(-7.7919535,-31.000001)">
	
		<image
   sodipodi:absref="/home/rob/sayoperation/resources/svg/Spring_Ladybug_Ref.jpg"
   xlink:href="Spring_Ladybug_Ref.jpg"
   style="display:inline;overflow:visible"
   id="image5"
   transform="matrix(1.5437,0,0,1.5437,3,26.5063)"
   height="286"
   width="320"
   overflow="visible"
   display="inline">
	</image>
</g>

<g
   id="g2895"
   transform="matrix(0.16541397,0,0,0.16541397,2.2643606e-8,365.62264)"
   inkscape:export-filename="/home/rob/sayoperation/resources/svg/ladybug.png"
   inkscape:export-xdpi="90"
   inkscape:export-ydpi="90"><g
     transform="translate(-7.7919535,-31)"
     id="Outline">
	<g
   id="Background">
		<circle
   d="m 423,281 c 0,96.64983 -78.35017,175 -175,175 -96.64983,0 -175,-78.35017 -175,-175 0,-96.64983 78.35017,-175 175,-175 96.64983,0 175,78.35017 175,175 z"
   sodipodi:ry="175"
   sodipodi:rx="175"
   sodipodi:cy="281"
   sodipodi:cx="248"
   id="circle9"
   r="175"
   cy="281"
   cx="248" />
		<path
   id="path11"
   d="m 76,133 c 0,0 -18,-13 -26,4 1,14 6,40 6,40 l 43,32 16,-25 -30,-19 c 0,0 -6,1 -9,-32 z" />
		<path
   id="path13"
   d="m 418,131 c 0,0 18,-13 26,4 -1,14 -6,40 -6,40 l -43,32 -16,-25 30,-19 c 0,0 6,1 9,-32 z" />
		<path
   id="path15"
   d="m 477.679,300.13 c 0,0 20.838,-7.669 11.205,-23.801 -12.171,-6.991 -36.529,-17.366 -36.529,-17.366 l -50.562,17.793 11.799,27.235 32.518,-14.271 c -0.001,10e-4 2.521,-5.535 31.569,10.41 z" />
		<path
   id="path17"
   d="m 21.54,300.13 c 0,0 -20.838,-7.669 -11.205,-23.801 12.171,-6.991 36.529,-17.366 36.529,-17.366 L 97.426,276.756 85.627,303.991 53.109,289.72 c 0,10e-4 -2.521,-5.535 -31.569,10.41 z" />
		<path
   id="path19"
   d="m 112.795,462.58 c 0,0 -16.251,15.131 -26.296,-0.748 -0.743,-14.016 0.997,-40.435 0.997,-40.435 l 38.704,-37.082 18.975,22.825 -27.415,22.571 c 10e-4,10e-4 -6.077,-0.249 -4.965,32.869 z" />
		<path
   id="path21"
   d="m 378.695,462.58 c 0,0 16.25,15.131 26.295,-0.748 0.743,-14.016 -0.996,-40.435 -0.996,-40.435 l -38.705,-37.082 -18.975,22.825 27.415,22.571 c 0,10e-4 6.079,-0.249 4.966,32.869 z" />
		<path
   id="path23"
   d="m 227,74 c 0,0 -27,26 -37,55 14,7 34,15 34,15 0,0 5,-42 15,-65 -3,-5 -12,-5 -12,-5 z" />
		<path
   id="path25"
   d="m 278,66 c 0,0 5,33 4,73 21,3 49,3 49,3 0,0 -24,-37 -41,-83 -7,0 -12,7 -12,7 z" />
		<circle
   d="m 256,65 c 0,11.045695 -8.95431,20 -20,20 -11.04569,0 -20,-8.954305 -20,-20 0,-11.045695 8.95431,-20 20,-20 11.04569,0 20,8.954305 20,20 z"
   sodipodi:ry="20"
   sodipodi:rx="20"
   sodipodi:cy="65"
   sodipodi:cx="236"
   id="circle27"
   r="20"
   cy="65"
   cx="236" />
		<circle
   d="m 301,51 c 0,11.045695 -8.95431,20 -20,20 -11.04569,0 -20,-8.954305 -20,-20 0,-11.045695 8.95431,-20 20,-20 11.04569,0 20,8.954305 20,20 z"
   sodipodi:ry="20"
   sodipodi:rx="20"
   sodipodi:cy="51"
   sodipodi:cx="281"
   id="circle29"
   r="20"
   cy="51"
   cx="281" />
	</g>
</g><path
     d="m 237.20805,178 v 239 c 0,0 -88,1 -136,-76 C 53.208046,264 83.208046,196 90.208046,178 c 15.000004,0 147.000004,0 147.000004,0 z"
     id="path39"
     style="fill:#ef0000;fill-opacity:1" /><path
     d="m 242.52005,178 v 239 c 0,0 88,1 136,-76 48,-77 18,-145 11,-163 -15,0 -147,0 -147,0 z"
     id="path47"
     style="fill:#ef0000;fill-opacity:1" /><circle
     transform="translate(-7.7919535,-31)"
     cx="207.5"
     cy="251.5"
     r="26.5"
     id="circle50"
     sodipodi:cx="207.5"
     sodipodi:cy="251.5"
     sodipodi:rx="26.5"
     sodipodi:ry="26.5"
     d="m 234,251.5 c 0,14.63555 -11.86445,26.5 -26.5,26.5 -14.63555,0 -26.5,-11.86445 -26.5,-26.5 0,-14.63555 11.86445,-26.5 26.5,-26.5 14.63555,0 26.5,11.86445 26.5,26.5 z" /><circle
     transform="translate(-7.7919535,-31)"
     cx="131"
     cy="245"
     r="14"
     id="circle52"
     sodipodi:cx="131"
     sodipodi:cy="245"
     sodipodi:rx="14"
     sodipodi:ry="14"
     d="m 145,245 c 0,7.73199 -6.26801,14 -14,14 -7.73199,0 -14,-6.26801 -14,-14 0,-7.73199 6.26801,-14 14,-14 7.73199,0 14,6.26801 14,14 z" /><circle
     transform="translate(-7.7919535,-31)"
     cx="214.5"
     cy="342.5"
     r="20.5"
     id="circle54"
     sodipodi:cx="214.5"
     sodipodi:cy="342.5"
     sodipodi:rx="20.5"
     sodipodi:ry="20.5"
     d="m 235,342.5 c 0,11.32184 -9.17816,20.5 -20.5,20.5 -11.32184,0 -20.5,-9.17816 -20.5,-20.5 0,-11.32184 9.17816,-20.5 20.5,-20.5 11.32184,0 20.5,9.17816 20.5,20.5 z" /><circle
     transform="translate(-7.7919535,-31)"
     cx="331.5"
     cy="262.5"
     r="19.5"
     id="circle56"
     sodipodi:cx="331.5"
     sodipodi:cy="262.5"
     sodipodi:rx="19.5"
     sodipodi:ry="19.5"
     d="m 351,262.5 c 0,10.76955 -8.73045,19.5 -19.5,19.5 -10.76955,0 -19.5,-8.73045 -19.5,-19.5 0,-10.76955 8.73045,-19.5 19.5,-19.5 10.76955,0 19.5,8.73045 19.5,19.5 z" /><circle
     transform="translate(-7.7919535,-31)"
     cx="376"
     cy="225"
     r="11"
     id="circle58"
     sodipodi:cx="376"
     sodipodi:cy="225"
     sodipodi:rx="11"
     sodipodi:ry="11"
     d="m 387,225 c 0,6.07513 -4.92487,11 -11,11 -6.07513,0 -11,-4.92487 -11,-11 0,-6.07513 4.92487,-11 11,-11 6.07513,0 11,4.92487 11,11 z" /><circle
     transform="translate(-7.7919535,-31)"
     cx="311"
     cy="373"
     r="31"
     id="circle60"
     sodipodi:cx="311"
     sodipodi:cy="373"
     sodipodi:rx="31"
     sodipodi:ry="31"
     d="m 342,373 c 0,17.12083 -13.87917,31 -31,31 -17.12083,0 -31,-13.87917 -31,-31 0,-17.12083 13.87917,-31 31,-31 17.12083,0 31,13.87917 31,31 z" /><circle
     transform="translate(-7.7919535,-31)"
     cx="378.5"
     cy="322.5"
     r="25.5"
     id="circle62"
     sodipodi:cx="378.5"
     sodipodi:cy="322.5"
     sodipodi:rx="25.5"
     sodipodi:ry="25.5"
     d="m 404,322.5 c 0,14.08326 -11.41674,25.5 -25.5,25.5 -14.08326,0 -25.5,-11.41674 -25.5,-25.5 0,-14.08326 11.41674,-25.5 25.5,-25.5 14.08326,0 25.5,11.41674 25.5,25.5 z" /><circle
     transform="translate(-7.7919535,-31)"
     cx="129"
     cy="347"
     r="28"
     id="circle64"
     sodipodi:cx="129"
     sodipodi:cy="347"
     sodipodi:rx="28"
     sodipodi:ry="28"
     d="m 157,347 c 0,15.46397 -12.53603,28 -28,28 -15.46397,0 -28,-12.53603 -28,-28 0,-15.46397 12.53603,-28 28,-28 15.46397,0 28,12.53603 28,28 z" /><circle
     transform="translate(-7.7919535,-31)"
     cx="189"
     cy="412"
     r="15"
     id="circle66"
     sodipodi:cx="189"
     sodipodi:cy="412"
     sodipodi:rx="15"
     sodipodi:ry="15"
     d="m 204,412 c 0,8.28427 -6.71573,15 -15,15 -8.28427,0 -15,-6.71573 -15,-15 0,-8.28427 6.71573,-15 15,-15 8.28427,0 15,6.71573 15,15 z" /></g>

</svg>