<?xml version="1.0" encoding="UTF-8" standalone="no"?>
<!-- Created with Sodipodi ("http://www.sodipodi.com/") -->

<svg
   xmlns:dc="http://purl.org/dc/elements/1.1/"
   xmlns:cc="http://creativecommons.org/ns#"
   xmlns:rdf="http://www.w3.org/1999/02/22-rdf-syntax-ns#"
   xmlns:svg="http://www.w3.org/2000/svg"
   xmlns="http://www.w3.org/2000/svg"
   xmlns:sodipodi="http://sodipodi.sourceforge.net/DTD/sodipodi-0.dtd"
   xmlns:inkscape="http://www.inkscape.org/namespaces/inkscape"
   height="664.66553"
   id="svg602"
   sodipodi:docname="red-frog.svg"
   sodipodi:version="0.32"
   space="preserve"
   width="651.79187"
   inkscape:version="0.47 r22583"
   inkscape:output_extension="org.inkscape.output.svg.inkscape"
   version="1.0"
   inkscape:export-filename="/home/rob/sayoperation/resources/png/red-frog.png"
   inkscape:export-xdpi="89.483162"
   inkscape:export-ydpi="89.483162">
  <metadata
     id="metadata3">
    <rdf:RDF>
      <cc:Work
         rdf:about="">
        <dc:title>red-eye frog</dc:title>
        <dc:description />
        <dc:subject>
          <rdf:Bag>
            <rdf:li />
            <rdf:li>animal</rdf:li>
            <rdf:li>rana</rdf:li>
            <rdf:li>frog</rdf:li>
            <rdf:li>red-eyed</rdf:li>
            <rdf:li>red-eye</rdf:li>
          </rdf:Bag>
        </dc:subject>
        <dc:publisher>
          <cc:Agent
             rdf:about="http://www.openclipart.org">
            <dc:title>Mirko Maischberger</dc:title>
          </cc:Agent>
        </dc:publisher>
        <dc:creator>
          <cc:Agent>
            <dc:title>Mirko Maischberger</dc:title>
          </cc:Agent>
        </dc:creator>
        <dc:rights>
          <cc:Agent>
            <dc:title>Mirko Maischberger</dc:title>
          </cc:Agent>
        </dc:rights>
        <dc:date />
        <dc:format>image/svg+xml</dc:format>
        <dc:type
           rdf:resource="http://purl.org/dc/dcmitype/StillImage" />
        <cc:license
           rdf:resource="http://web.resource.org/cc/PublicDomain" />
        <dc:language>en</dc:language>
      </cc:Work>
      <cc:License
         rdf:about="http://web.resource.org/cc/PublicDomain">
        <cc:permits
           rdf:resource="http://web.resource.org/cc/Reproduction" />
        <cc:permits
           rdf:resource="http://web.resource.org/cc/Distribution" />
        <cc:permits
           rdf:resource="http://web.resource.org/cc/DerivativeWorks" />
      </cc:License>
    </rdf:RDF>
  </metadata>
  <defs
     id="defs604">
    <inkscape:perspective
       sodipodi:type="inkscape:persp3d"
       inkscape:vp_x="0 : 332.33276 : 1"
       inkscape:vp_y="0 : 1000 : 0"
       inkscape:vp_z="651.79187 : 332.33276 : 1"
       inkscape:persp3d-origin="325.89594 : 221.55518 : 1"
       id="perspective2981" />
  </defs>
  <sodipodi:namedview
     id="base"
     showgrid="false"
     inkscape:zoom="0.3550658"
     inkscape:cx="325.89594"
     inkscape:cy="332.33276"
     inkscape:window-width="800"
     inkscape:window-height="576"
     inkscape:window-x="-1"
     inkscape:window-y="-3"
     inkscape:window-maximized="1"
     inkscape:current-layer="svg602" />
  <g
     id="g2983"
     transform="matrix(0.12036129,0,0,0.12036129,-2.2761011e-5,584.66551)">
    <rect
       y="325.06726"
       x="-217.65562"
       width="554.94928"
       transform="matrix(0.8309348,-0.5563698,0.5563698,0.8309348,0,0)"
       style="font-size:12px;fill:#214d21;fill-opacity:1;fill-rule:evenodd;stroke-width:1"
       id="rect627"
       height="329.09778" />
    <path
       style="fill:#004c00;fill-opacity:1;fill-rule:evenodd;stroke:#000000;stroke-width:1pt;stroke-linecap:butt;stroke-linejoin:miter;stroke-opacity:1"
       sodipodi:nodetypes="ccccccccccccccccccccccccccccccccccc"
       id="path606"
       d="m 182.41088,141.79141 c 0.5761,-4.1257 13.4542,-29.6763 16.1959,-31.8548 4.2323,-3.3629 8.546,-7.6027 11.5408,-12.120599 0.6374,-0.9615 4.7687,-1.4907 2.4567,-1.5191 -1.8729,-0.023 8.8427,-7.7374 9.4211,-8.6136 4.8945,-7.4143 5.453,-22.6399 9.3059,-32.0981 6.4026,-15.7168 11.3712,-26.7821 20.5064,-41.1274 2.5777,-4.048 8.794,-21.5979 15.0069,-9.8371 6.8884,13.0396 27.4158,8.5462 38.5266,18.4169 11.376,10.1062 16.8507,22.7058 31.5864,25.6873 12.5912,2.5477 37.86,2.4329 50.2498,5.9599 27.9974,3.7137 60.4361,15.4894 77.5071,23.3173 7.4341,3.315 43.6558,20.1713 53.6666,27.414099 10.3217,7.4676 36.2018,30.9907 42.025,39.2788 0.3569,0.508 22.2322,11.5911 25.355,13.3337 15.7145,8.7687 21.0851,6.3445 26.7766,24.0819 4.2634,13.2866 -5.1433,26.3039 -1.1747,39.4184 4.3703,14.4415 16.83,21.972 26.5754,32.5546 12.2612,13.3144 17.3298,29.4947 9.4525,46.1197 -8.7502,18.4673 -31.3227,3.7763 -42.2178,-3.9815 -5.4401,-3.8737 -24.8954,-19.4712 -31.6901,-13.9099 -5.9769,4.8918 12.3144,22.5047 -4.4194,15.1959 -2.0465,-0.8939 -12.7887,-18.0931 -16.9043,-21.5335 -9.2259,-7.7124 -10.7169,-12.8804 -17.0874,-22.5188 -5.5659,-8.4211 -23.7882,-0.7421 -16.2471,-15.0606 2.2525,-4.2769 0.6691,-4.1964 3.249,-8.2837 0.0378,-0.0599 -5.6414,3.052 -6.5252,3.5262 -13.3768,7.1782 -3.2445,11.6911 -22.2509,10.3638 -17.1474,-1.1976 -34.5178,-2.8539 -51.6974,-3.1854 -8.23,-0.1587 -15.0195,2.3503 -23.2593,0.6319 -13.8698,-2.8923 -34.6613,-2.304 -49.2442,-2.9936 -17.3325,-0.8196 -35.6119,-11.6469 -52.1264,-17.3865 -24.0369,-8.3541 -47.6919,-17.2822 -70.4325,-28.7277 -16.619,-8.3645 -35.8902,-15.2694 -48.2848,-29.6851 -4.5665,-5.3112 -16.5548,-12.768 -15.8422,-20.8634 z" />
    <path
       style="fill:#003f00;fill-opacity:0.98819999;fill-rule:evenodd;stroke:#000000;stroke-width:1pt;stroke-linecap:butt;stroke-linejoin:miter;stroke-opacity:1"
       sodipodi:nodetypes="ccccccccccccccccccccccc"
       id="path607"
       d="m 294.86508,216.97011 c -6.3043,3.1522 1.9151,25.3763 0.3764,32.2824 -1.5814,7.0978 -3.274,14.0013 -4.6756,21.1606 -4.2385,21.6508 -5.701,43.5268 -12.8601,64.5735 -4.0652,11.9508 -7.2463,22.6079 -7.9404,35.3733 -1.1142,20.4907 -3.877,40.8431 -3.9143,61.4114 0,0.005 1.2186,-1.3468 3.7171,-3.3495 16.9473,-13.5844 22.3782,-23.5362 44.9992,-14.1431 9.0486,3.7573 9.1038,-1.8475 11.4354,-9.3388 5.8679,-18.8538 6.1799,-37.4791 10.0898,-56.4986 4.7915,-23.3077 12.2015,-47.3024 12.1799,-71.2828 -10e-4,-1.5401 1.5063,1.3651 4.1998,1.97 13.4123,3.0121 26.2934,6.2657 39.9922,7.9004 16.4468,1.9625 31.3167,2.4934 47.8282,1.2902 15.032,-1.0953 16.0884,-8.5837 23.2596,-18.758 6.7577,-9.5878 20.0172,-14.3339 30.5572,-18.032 3.502,-1.2287 3.0216,-2.9227 6.0793,-4.667 0.9748,-0.556 -5.7323,0.5527 -6.8541,0.5818 -16.9546,0.4399 -27.7975,-0.738 -44.7617,-1.2795 -20.495,-0.6541 -41.0493,-1.0487 -61.5167,-2.3685 -14.1328,-0.9113 -27.6741,-2.5676 -41.3069,-6.3261 -10.7715,-2.9697 -17.3315,-5.737 -26.9921,-11.2865 -7.2684,-4.1754 -15.9161,-7.6132 -23.8922,-9.2132 z" />
    <path
       style="fill:#e85728;fill-opacity:0.98680001;fill-rule:evenodd;stroke:#000000;stroke-width:1pt;stroke-linecap:butt;stroke-linejoin:miter;stroke-opacity:1"
       sodipodi:nodetypes="cccccccccccccccccccccc"
       id="path608"
       d="m 466.19138,279.28431 c -4.6573,9.3149 -1.1838,21.2536 2.604,29.9136 -3.7768,30.5293 -25.6166,30.7157 -4.8313,44.2568 22.2867,14.6526 10.034,-15.8678 25.9809,-38.0773 6.7258,-9.335 11.413,3.2436 11.4278,8.5389 0.0197,7.0337 2.7681,36.8018 2.7862,44.2818 0.0423,17.4784 -12.0876,15.8155 -4.8602,32.1727 10.0145,22.665 25.7683,13.2429 32.0847,0.8954 4.8618,-9.5037 -3.334,-15.0699 -8.0446,-33.4909 -4.4009,-24.8685 -1.2099,-49.539 -1.2636,-59.2416 -0.0191,-3.458 5.0497,-16.7977 11.2961,-14.2661 8.5492,3.465 19.4687,9.6689 24.8572,18.0387 4.0397,6.2746 17.0709,21.1628 18.6151,28.4164 1.2729,5.9796 8.7228,11.3607 13.4563,10.1189 13.8304,-3.628 13.8297,-3.7326 22.0706,-15.2215 12.1082,-16.8808 3.8278,-22.7146 -10.6644,-22.1374 -11.7316,0.4673 -14.0726,-1.8552 -24.3273,-6.1562 -18.2643,-7.6605 -19.5325,-33.755 -31.531,-48.359 -3.2381,-3.9414 -20.9789,-15.1186 -26.1421,-13.6183 -6.3515,1.8455 -10.9492,2.7449 -16.6963,6.5465 -11.1961,7.4059 -20.9983,5.4229 -30.2392,16.9967 -0.7896,0.989 -5.9141,9.4003 -6.5789,10.3919 z" />
    <path
       style="fill:#e85728;fill-opacity:0.98819999;fill-rule:evenodd;stroke:#000000;stroke-width:1pt;stroke-linecap:butt;stroke-linejoin:miter;stroke-opacity:1"
       sodipodi:nodetypes="ccccccccccccccccccccc"
       id="path609"
       d="m 261.59238,422.92381 c -6.0625,0 -19.4101,-0.3076 -29.4829,9.3332 -10.5614,15.6135 -23.0011,26.2867 -29.6067,38.6913 -10.6716,20.0402 -16.5362,16.3705 -31.5153,29.1178 -4.3942,3.7395 -18.5236,23.8123 -8.6075,26.7381 34.5655,9.7742 35.4171,-24.7456 48.6334,-34.6449 4.1108,-3.0791 29.3826,-24.9912 34.2255,-23.0599 8.8289,3.521 2.4394,49.2897 9.6333,57.8711 11.098,13.2387 26.6748,15.3515 29.445,-2.8003 2.8298,-18.542 -21.8034,-30.9609 -13.1277,-52.0942 4.3691,-10.6424 30.346,-29.6683 44.3916,-22.9517 14.1691,6.7757 19.8072,32.6738 38.5612,35.2052 15.0588,2.0326 28.5049,-0.4417 20.295,-22.2489 -4.389,-11.658 -22.3208,-10.8723 -31.17,-17.7706 -13.1555,-10.2551 6.1637,-23.8638 13.9028,-28.4828 15.2516,-9.1029 34.2829,-15.3845 29.2708,-36.9707 -3.9865,-17.1693 -12.5125,-7.2479 -19.0408,0.1764 -7.076,8.0474 -18.3607,11.7 -25.9022,19.4968 -9.8314,10.1641 -27.7434,7.1131 -40.6768,8.1556 -13.4817,1.0868 -11.1073,-5.161 -25.2635,4.1069 -5.8986,3.8617 -5.0297,12.2793 -13.9652,12.1316 z" />
    <path
       style="fill:#990000;fill-opacity:1;fill-rule:evenodd;stroke:#000000;stroke-width:1pt;stroke-linecap:butt;stroke-linejoin:miter;stroke-opacity:1"
       id="path610"
       d="m 374.27488,110.14371 c -11.312,0 -23.0395,19.8279 -24.6595,29.3103 -2.4802,14.5172 -2.6391,22.6331 3.5507,36.1905 8.6328,18.9086 16.4877,24.0659 37.7195,27.2531 15.5752,2.338 41.6421,-0.1097 47.112,-17.4387 2.9898,-9.4721 7.682,-17.1949 8.0288,-27.4173 0.6537,-19.2728 1.2654,-29.1878 -15.2966,-42.3184 -14.6274,-11.5967 -34.4406,-11.1818 -51.5605,-7.8225 -1.5225,0.2987 -3.0657,0.8036 -4.8944,2.243 z" />
    <path
       style="fill:#000000;fill-opacity:1;fill-rule:evenodd;stroke:#000000;stroke-width:1pt;stroke-linecap:butt;stroke-linejoin:miter;stroke-opacity:1"
       sodipodi:nodetypes="ccccc"
       id="path611"
       d="m 378.51128,155.92961 c -2.6103,13.1414 7.9109,26.1558 13.5304,37.2204 1.6101,3.1701 13.1185,-12.4681 22.0663,-20.8646 12.5076,-12.2397 5.2409,-37.4637 -1.091,-54.7242 -16.2039,7.0491 -31.1212,21.3291 -34.5057,38.3684 z" />
    <path
       style="fill:#990000;fill-opacity:1;fill-rule:evenodd;stroke:#000000;stroke-width:1pt;stroke-linecap:butt;stroke-linejoin:miter;stroke-opacity:1"
       id="path612"
       d="m 252.95878,5.970211 c -14.5699,0 -16.0874,-1.6515 -30.5321,5.435 -26.3471,12.9258 -32.5294,26.8458 -24.214,54.2668 1.8699,6.1664 10.7673,28.7964 19.9305,25.4686 7.9928,-2.9028 12.249,-30.5654 14.6043,-37.9583 3.8951,-12.2261 6.5226,-23.2011 13.6395,-34.1572 2.536,-3.9041 5.7344,-8.1733 6.5718,-13.0549 z" />
    <path
       style="fill:#000000;fill-opacity:1;fill-rule:evenodd;stroke:#000000;stroke-width:1pt;stroke-linecap:butt;stroke-linejoin:miter;stroke-opacity:1"
       id="path613"
       d="m 229.22308,9.996411 c -2.6759,0 -12.7167,4.5984 -14.0709,5.9967 -4.6904,4.8433 -9.9784,7.0305 -13.9851,12.9569 -8.1881,12.1113 -8.8884,20.573 -2.795,33.7822 3.5882,7.7785 6.7759,15.3076 12.6505,4.6635 6.8396,-12.3929 13.7491,-31.8523 17.9277,-45.4712 0.8485,-2.7652 3.8273,-9.6266 0.2728,-11.9281 z" />
    <path
       style="fill:#007f00;fill-opacity:1;fill-rule:evenodd;stroke:#000000;stroke-width:1pt;stroke-linecap:butt;stroke-linejoin:miter;stroke-opacity:1"
       id="path614"
       d="m 219.33318,129.26421 c 21.8883,10.9434 44.4525,29.0468 63.8027,3.3195 7.2775,-9.676 24.7881,-26.1189 38.2725,-20.2606 11.4601,4.9789 6.5492,32.275 10.3219,43.9987 3.7714,11.72 15.8357,23.7694 15.7057,35.5395 -0.1661,15.0286 -28.7548,-0.4275 -34.5391,-3.3092 -30.5986,-15.2442 -63.4936,-25.3159 -94.8631,-38.8142 -4.1745,-1.7962 -23.5254,-13.1672 -13.4809,-18.1482 3.954,-1.9609 7.3416,-2.3386 14.7803,-2.3255 z" />
    <path
       style="fill:#007f00;fill-opacity:1;fill-rule:evenodd;stroke:#000000;stroke-width:1pt;stroke-linecap:butt;stroke-linejoin:miter;stroke-opacity:1"
       id="path615"
       d="m 464.60248,158.27451 c 9.5973,4.7985 20.0067,27.9612 16.8481,38.2267 -3.679,11.9566 -5.6492,15.9709 1.3108,27.2948 1.7896,2.9116 5.2032,6.3505 1.2076,6.3473 -15.2363,-0.0122 -30.2784,0.1425 -45.5051,-0.4298 -16.087,-0.6047 -31.7947,0.762 -47.5897,-2.9984 -10.128,-2.4112 -36.9625,-4.2516 -41.6873,-14.3727 -1.3541,-2.9005 14.0754,-6.1719 18.1387,-5.6261 11.5597,1.5525 21.3293,6.7529 33.6286,7.6333 14.8604,1.0638 34.0112,-6.5988 42.0852,-19.278 6.2706,-9.8471 10.0216,-21.0618 16.0079,-30.949 1.2641,-2.0879 3.4764,-2.7922 5.5552,-5.8481 z" />
    <path
       style="fill:#ffffff;fill-opacity:1;fill-rule:evenodd;stroke:#000000;stroke-width:1pt;stroke-linecap:butt;stroke-linejoin:miter;stroke-opacity:1"
       id="path617"
       d="m 348.56108,122.01161 c 0,-10.8507 26.9345,-23.339499 34.9475,-25.106399 22.177,-4.89 42.194,2.7705 57.3069,19.445199 9.8755,10.8962 8.7597,26.8501 13.4434,39.8215 1.6685,4.6208 5.2422,-0.1852 5.5999,-2.8626 2.6486,-19.8222 -11.3384,-36.5752 -23.5774,-50.8486 -19.6985,-22.972899 -49.4344,-13.847799 -72.7191,-3.470499 -10.4579,4.660799 -16.3942,14.800699 -20.8634,24.835299 -0.6092,1.3677 4.1821,0.4404 4.5383,0.2154 0.5417,-0.3421 1.8751,-1.7098 1.3239,-2.0293 z" />
    <path
       style="fill:#8f90ff;fill-opacity:0.3;fill-rule:evenodd;stroke:#000000;stroke-width:1pt;stroke-linecap:butt;stroke-linejoin:miter;stroke-opacity:1"
       sodipodi:nodetypes="ccccccccccc"
       id="path618"
       d="m 574.05068,167.50511 c -10.9876,0 -28.4941,19.0185 -33.7826,27.5847 -6.2354,10.1 -12.212,19.5456 -16.4398,30.64 -0.463,1.2148 17.3852,10.3192 19.5485,17.3012 4.7727,15.4045 11.8607,15.4943 21.9281,26.875 5.7083,6.4529 2.2482,-11.3534 1.8852,-12.0807 -7.7756,-15.5731 -34.2987,-30.2089 -21.2151,-54.3254 5.6686,-13.2806 17.4441,-28.7633 32.696,-31.922 3.516,-0.7281 8.3245,-3.5732 11.7848,-2.1509 0.8229,0.3383 -1.7628,-0.2432 -2.6438,-0.3679 -5.6303,-0.7975 -10.8538,-1.5546 -13.7613,-1.554 z" />
    <path
       style="fill:#8d8dff;fill-opacity:0.29800002;fill-rule:evenodd;stroke:#000000;stroke-width:1pt;stroke-linecap:butt;stroke-linejoin:miter;stroke-opacity:1"
       sodipodi:nodetypes="ccccc"
       id="path619"
       d="m 604.87808,243.84161 c 3.4259,2.7099 10.4396,9.5412 14.6387,13.0075 6.8866,5.6847 21.1879,17.5201 11.4035,-2.0835 -19.0477,-12.1917 -18.3873,-27.926 -27.1648,-26.4741 -3.658,0.6051 -4.0348,8.9056 1.1226,15.5501 z" />
    <path
       style="fill:#006648;fill-opacity:0.98819999;fill-rule:evenodd;stroke:#000000;stroke-width:1pt;stroke-linecap:butt;stroke-linejoin:miter;stroke-opacity:1"
       id="path620"
       d="m 317.57278,251.89881 c 25.1292,0 41.8998,4.9655 65.3317,13.9651 11.3966,4.3771 23.3181,5.7544 35.3917,6.8269 8.126,0.7219 -11.1647,3.5801 -12.0611,3.6329 -16.9842,1.0012 -34.0877,-6.1747 -51.4362,-7.3187 -17.8218,-1.1751 -20.1983,-7.2408 -34.5868,-12.9986 -4.2292,-1.6924 -8.4868,-2.979 -12.8801,-4.2061 -0.1532,-0.0428 2.5772,0.0432 4.565,0.0667 1.6892,0.02 3.3788,0.0289 5.6758,0.0318 z" />
    <path
       style="fill:#007061;fill-opacity:0.98819999;fill-rule:evenodd;stroke:#000000;stroke-width:1pt;stroke-linecap:butt;stroke-linejoin:miter;stroke-opacity:1"
       id="path621"
       d="m 273.39788,348.81981 c 3.738,0 7.4134,-1.8774 11.4372,-1.7532 12.9936,0.401 21.7165,7.0105 30.3894,15.837 4.5634,4.6442 8.5386,9.1598 5.3472,15.5215 -2.2387,4.4629 -2.0048,15.9962 -4.9198,22.8094 -1.6258,3.7998 -7.2494,0.1409 -10.5568,-0.5909 -13.962,-3.0894 -27.1888,0.3515 -36.8749,10.7744 -2.5156,2.707 -5.988,5.7286 -5.6698,0.307 1.2219,-20.8224 8.2758,-41.0175 10.8475,-62.9052 z" />
    <path
       style="fill:#ffffff;fill-opacity:1;fill-rule:evenodd;stroke:#000000;stroke-width:1pt;stroke-linecap:butt;stroke-linejoin:miter;stroke-opacity:1"
       id="path622"
       d="m 264.16738,9.266811 c -6.5799,13.1596 -12.6841,26.7339 -18.782,40.1537 -1.4121,3.1075 -6.6544,15.312 -8.8982,16.8179 -0.5466,0.3669 -0.018,-1.3163 -0.0169,-1.9746 0.0238,-14.9168 12.4584,-31.5677 17.4235,-45.9685 0.9111,-2.6424 8.8948,-21.1283 10.2957,-9.7201 0.0386,0.3145 0.9324,0.8438 -0.0221,0.6916 z" />
    <path
       style="fill:#007f00;fill-opacity:1;fill-rule:evenodd;stroke:#000000;stroke-width:1pt;stroke-linecap:butt;stroke-linejoin:miter;stroke-opacity:1"
       id="path623"
       d="m 341.30848,75.199411 c -8.2348,0 -1.1156,12.8197 6.6795,5.7991 3.0102,-2.7112 -4.5587,-6.2946 -6.6795,-5.7991 z" />
    <path
       style="fill:#007f00;fill-opacity:1;fill-rule:evenodd;stroke:#000000;stroke-width:1pt;stroke-linecap:butt;stroke-linejoin:miter;stroke-opacity:1"
       id="path624"
       d="m 355.15438,66.628111 c -11.2749,0 8.8379,15.9386 9.969,4.2707 0.313,-3.2279 -7.5912,-2.957 -9.969,-4.2707 z" />
    <path
       style="fill:#007f00;fill-opacity:1;fill-rule:evenodd;stroke:#000000;stroke-width:1pt;stroke-linecap:butt;stroke-linejoin:miter;stroke-opacity:1"
       id="path625"
       d="m 229.22308,112.12171 c -2.7695,0 -12.0054,-0.2225 -8.7983,5.639 3.1245,5.7103 16.9248,0.2349 11.6806,-5.7612 -0.1746,-0.1995 -2.3572,0.1255 -2.8823,0.1222 z" />
    <path
       style="fill:#007f00;fill-opacity:1;fill-rule:evenodd;stroke:#000000;stroke-width:1pt;stroke-linecap:butt;stroke-linejoin:miter;stroke-opacity:1"
       id="path626"
       d="m 262.84868,120.03361 c -8.5896,0 -15.4814,3.5127 -8.9445,12.8488 5.4356,7.7632 23.5084,3.4443 16.2677,-6.9268 -1.1693,-1.6749 -7.3768,-5.3157 -7.3232,-5.922 z" />
  </g>
</svg>
