<?xml version="1.0" encoding="UTF-8" standalone="no"?>
<!-- Created with Inkscape (http://www.inkscape.org/) -->

<svg
   xmlns:dc="http://purl.org/dc/elements/1.1/"
   xmlns:cc="http://creativecommons.org/ns#"
   xmlns:rdf="http://www.w3.org/1999/02/22-rdf-syntax-ns#"
   xmlns:svg="http://www.w3.org/2000/svg"
   xmlns="http://www.w3.org/2000/svg"
   xmlns:sodipodi="http://sodipodi.sourceforge.net/DTD/sodipodi-0.dtd"
   xmlns:inkscape="http://www.inkscape.org/namespaces/inkscape"
   width="533.8136"
   height="333.93192"
   id="svg2438"
   sodipodi:version="0.32"
   inkscape:version="0.47 r22583"
   sodipodi:docname="snail.svg"
   inkscape:output_extension="org.inkscape.output.svg.inkscape"
   version="1.0">
  <defs
     id="defs2440">
    <inkscape:perspective
       sodipodi:type="inkscape:persp3d"
       inkscape:vp_x="0 : 526.18109 : 1"
       inkscape:vp_y="0 : 1000 : 0"
       inkscape:vp_z="744.09448 : 526.18109 : 1"
       inkscape:persp3d-origin="372.04724 : 350.78739 : 1"
       id="perspective2446" />
  </defs>
  <sodipodi:namedview
     id="base"
     pagecolor="#ffffff"
     bordercolor="#666666"
     borderopacity="1.0"
     gridtolerance="10000"
     guidetolerance="10"
     objecttolerance="10"
     inkscape:pageopacity="0.0"
     inkscape:pageshadow="2"
     inkscape:zoom="0.9822362"
     inkscape:cx="266.9068"
     inkscape:cy="166.96597"
     inkscape:document-units="px"
     inkscape:current-layer="capa1"
     showgrid="false"
     inkscape:window-width="800"
     inkscape:window-height="576"
     inkscape:window-x="-1"
     inkscape:window-y="-3"
     showguides="true"
     inkscape:guide-bbox="true"
     inkscape:window-maximized="1" />
  <metadata
     id="metadata2443">
    <rdf:RDF>
      <cc:Work
         rdf:about="">
        <dc:format>image/svg+xml</dc:format>
        <dc:type
           rdf:resource="http://purl.org/dc/dcmitype/StillImage" />
        <dc:title></dc:title>
      </cc:Work>
    </rdf:RDF>
  </metadata>
  <g
     inkscape:label="Capa 1"
     inkscape:groupmode="layer"
     id="capa1"
     transform="translate(-111.7058,-180.70189)">
    <g
       id="g3357"
       transform="matrix(0.24004268,0,0,0.24004268,95.630725,325.87849)"
       inkscape:export-filename="/home/rob/sayoperation/resources/png/snail.png"
       inkscape:export-xdpi="90"
       inkscape:export-ydpi="90">
      <path
         sodipodi:nodetypes="ccccc"
         id="path3313"
         d="M 239.8816,785.89192 C 170.32671,772.81934 98.48304,821.22189 92.412246,665.66628 c 2.771607,-56.51528 61.192834,-44.77357 47.352004,-4.12033 -8.93183,76.11763 22.86167,102.74168 64.96456,102.51558 l 35.15279,21.83039 z"
         style="fill:#ff9955;fill-opacity:1;fill-rule:evenodd;stroke:none" />
      <path
         sodipodi:nodetypes="cccc"
         id="path2539"
         d="m 330.93839,764.97573 c 15.88225,-1.81995 28.14287,-11.72705 49.34634,-3.58883 60.08418,20.22589 -31.15496,15.37737 -68.18767,17.94413 l 18.84133,-14.3553 z"
         style="fill:#ff9955;fill-rule:evenodd;stroke:none" />
      <path
         sodipodi:nodetypes="cccc"
         id="path2537"
         d="m 176.74963,759.87293 c 41.40153,31.72732 73.81399,30.21547 144.45022,19.73854 58.02492,-9.7354 81.04082,-169.33237 -63.70165,-161.76566 -151.58099,10.20557 -39.15788,126.80751 -80.74857,142.02712 z"
         style="fill:#e9c6af;fill-rule:evenodd;stroke:none" />
      <path
         sodipodi:nodetypes="ccc"
         id="path2541"
         d="m 273.64791,706.04056 c 22.48092,3.28976 33.23503,-36.48638 -8.97206,-39.47707 -97.07742,-1.96726 -32.95711,165.65688 100.39552,42.73837"
         style="fill:none;stroke:#784421;stroke-width:3;stroke-linecap:round;stroke-linejoin:miter;stroke-miterlimit:4;stroke-opacity:1;stroke-dasharray:none" />
      <path
         sodipodi:nodetypes="ccccc"
         id="path3317"
         d="m 91.855896,599.3907 c 19.267844,5.19584 16.407444,25.73425 19.436064,38.87213 l 5.83083,-5.83083 c -6.51842,-12.82954 -0.98549,-32.76775 -23.971155,-36.28065 l -1.295739,3.23935 z"
         style="fill:#ff9955;fill-opacity:1;fill-rule:evenodd;stroke:none" />
      <path
         sodipodi:nodetypes="cc"
         id="path3323"
         d="m 92.401184,664.54375 c 3.708027,-0.0965 13.112916,1.68416 19.102166,-6.81163"
         style="fill:none;stroke:#784421;stroke-width:1px;stroke-linecap:butt;stroke-linejoin:miter;stroke-opacity:1" />
      <g
         transform="matrix(1.796319,0,0,1.796319,-80.502846,-483.62887)"
         id="g3339">
        <path
           sodipodi:type="arc"
           style="fill:#ff9955;fill-opacity:1;stroke:none"
           id="path3315"
           sodipodi:cx="84.508057"
           sodipodi:cy="597.40057"
           sodipodi:rx="6.3779664"
           sodipodi:ry="6.3779664"
           d="m 90.886023,597.40057 c 0,3.52246 -2.855513,6.37797 -6.377966,6.37797 -3.522454,0 -6.377967,-2.85551 -6.377967,-6.37797 0,-3.52245 2.855513,-6.37796 6.377967,-6.37796 3.522453,0 6.377966,2.85551 6.377966,6.37796 z"
           transform="translate(8.46958,6.1426268)" />
        <path
           sodipodi:type="arc"
           style="fill:#ffffff;fill-opacity:1;stroke:none"
           id="path3319"
           sodipodi:cx="92.17907"
           sodipodi:cy="603.23914"
           sodipodi:rx="3.1836946"
           sodipodi:ry="2.9615765"
           d="m 95.362764,603.23914 c 0,1.63563 -1.425389,2.96157 -3.183694,2.96157 -1.758306,0 -3.183695,-1.32594 -3.183695,-2.96157 0,-1.63564 1.425389,-2.96158 3.183695,-2.96158 1.758305,0 3.183694,1.32594 3.183694,2.96158 z"
           transform="matrix(1.3488372,0,0,1.35,-31.785293,-209.35675)" />
        <path
           sodipodi:type="arc"
           style="fill:#000000;fill-opacity:1;stroke:none"
           id="path3321"
           sodipodi:cx="92.17907"
           sodipodi:cy="603.23914"
           sodipodi:rx="3.1836946"
           sodipodi:ry="2.9615765"
           d="m 95.362764,603.23914 c 0,1.63563 -1.425389,2.96157 -3.183694,2.96157 -1.758306,0 -3.183695,-1.32594 -3.183695,-2.96157 0,-1.63564 1.425389,-2.96158 3.183695,-2.96158 1.758305,0 3.183694,1.32594 3.183694,2.96158 z"
           transform="matrix(0.8139535,0,0,0.8146552,17.297671,113.77566)" />
        <path
           style="fill:none;stroke:#ff9955;stroke-width:1px;stroke-linecap:round;stroke-linejoin:miter;stroke-opacity:1"
           d="m 87.810741,601.46218 c -1.792899,-0.72073 -6.762387,-2.50078 -4.738523,-6.66355"
           id="path3325"
           sodipodi:nodetypes="cc" />
        <path
           style="fill:none;stroke:#ff9955;stroke-width:1px;stroke-linecap:round;stroke-linejoin:miter;stroke-opacity:1"
           d="m 90.438782,598.8708 c -1.792899,-0.72073 -4.541205,-2.3527 -3.85005,-6.51547"
           id="path3335"
           sodipodi:nodetypes="cc" />
        <path
           style="fill:none;stroke:#ff9955;stroke-width:1px;stroke-linecap:round;stroke-linejoin:miter;stroke-opacity:1"
           d="m 93.152098,598.7993 c -1.490089,-1.23028 -3.61443,-3.61852 -1.694003,-7.37595"
           id="path3337"
           sodipodi:nodetypes="cc" />
      </g>
      <path
         sodipodi:nodetypes="ccc"
         id="path3347"
         d="m 270.93451,618.45438 c -132.36752,0.0193 -90.21023,83.62484 -85.26873,111.39946 2.94134,-44.97364 -9.05806,-94.54442 85.26873,-111.39946 z"
         style="fill:#d38d5f;fill-rule:evenodd;stroke:#d38d5f;stroke-width:1px;stroke-linecap:butt;stroke-linejoin:miter;stroke-opacity:1" />
      <path
         sodipodi:nodetypes="ccc"
         id="path3351"
         d="m 364.49593,684.8376 c -27.0523,-91.30893 -113.05897,-54.9269 -133.34233,-43.61209 44.85249,-8.54553 79.93892,-19.08082 133.34233,43.61209 z"
         style="fill:#ffdd55;fill-rule:evenodd;stroke:none" />
      <path
         sodipodi:nodetypes="ccc"
         id="path3353"
         d="m 249.30035,670.92721 c -62.30087,20.88832 -10.15305,95.14069 33.54522,80.05719 -31.20877,1.33897 -76.93131,-47.00524 -33.54522,-80.05719 z"
         style="fill:#d4aa00;fill-rule:evenodd;stroke:none" />
      <path
         sodipodi:nodetypes="ccc"
         id="path3355"
         d="m 218.37093,744.71297 c 66.10946,68.54697 125.64936,-3.39605 138.42992,-22.78928 -35.85858,28.26545 -62.13386,53.79308 -138.42992,22.78928 z"
         style="fill:#ff6600;fill-rule:evenodd;stroke:none" />
    </g>
  </g>
</svg>
