<?xml version="1.0" encoding="UTF-8" standalone="no"?>
<!-- Generator: Adobe Illustrator 12.0.1, SVG Export Plug-In . SVG Version: 6.00 Build 51448)  -->

<svg
   xmlns:dc="http://purl.org/dc/elements/1.1/"
   xmlns:cc="http://creativecommons.org/ns#"
   xmlns:rdf="http://www.w3.org/1999/02/22-rdf-syntax-ns#"
   xmlns:svg="http://www.w3.org/2000/svg"
   xmlns="http://www.w3.org/2000/svg"
   xmlns:sodipodi="http://sodipodi.sourceforge.net/DTD/sodipodi-0.dtd"
   xmlns:inkscape="http://www.inkscape.org/namespaces/inkscape"
   version="1.1"
   id="Layer_1"
   width="272.668"
   height="392.75"
   viewBox="0 0 272.668 392.75"
   overflow="visible"
   enable-background="new 0 0 272.668 392.75"
   xml:space="preserve"
   inkscape:version="0.47 r22583"
   sodipodi:docname="turtle.svg"><metadata
   id="metadata5030"><rdf:RDF><cc:Work
       rdf:about=""><dc:format>image/svg+xml</dc:format><dc:type
         rdf:resource="http://purl.org/dc/dcmitype/StillImage" /><dc:title></dc:title></cc:Work></rdf:RDF></metadata><defs
   id="defs5028"><inkscape:perspective
     sodipodi:type="inkscape:persp3d"
     inkscape:vp_x="0 : 196.375 : 1"
     inkscape:vp_y="0 : 1000 : 0"
     inkscape:vp_z="272.668 : 196.375 : 1"
     inkscape:persp3d-origin="136.334 : 130.91667 : 1"
     id="perspective5032" /></defs><sodipodi:namedview
   pagecolor="#ffffff"
   bordercolor="#666666"
   borderopacity="1"
   objecttolerance="10"
   gridtolerance="10"
   guidetolerance="10"
   inkscape:pageopacity="0"
   inkscape:pageshadow="2"
   inkscape:window-width="800"
   inkscape:window-height="576"
   id="namedview5026"
   showgrid="false"
   inkscape:zoom="0.60089115"
   inkscape:cx="136.334"
   inkscape:cy="196.375"
   inkscape:window-x="-1"
   inkscape:window-y="-3"
   inkscape:window-maximized="1"
   inkscape:current-layer="Layer_1" />
<g
   id="g4808"
   transform="matrix(0.20369097,0,0,0.20369097,0.00238893,312.75177)"
   inkscape:export-filename="/home/rob/sayoperation/resources/png/turtle.png"
   inkscape:export-xdpi="90"
   inkscape:export-ydpi="90">
	<path
   clip-rule="evenodd"
   d="m 142,23.241 c 3.631,2.494 4.206,8.146 4,11.333 -2.956,-2.991 -2.007,-10.97 -4,-11.333 z"
   id="path4810"
   style="fill:#f8ed9b;fill-rule:evenodd" />
	<path
   clip-rule="evenodd"
   d="m 129.333,24.575 c 0.667,0 1.333,0 2,0 -0.864,2.474 2.015,2.475 1.333,6 -3.681,-0.336 -3.502,-2.167 -3.333,-6 z"
   id="path4812"
   style="fill:#f8ed9b;fill-rule:evenodd" />
	<path
   clip-rule="evenodd"
   d="m 146,58.575 c -0.376,2.455 1.339,6.929 -4,8 2.069,-2.639 -0.044,-4.634 -0.667,-8 2.451,0.417 3.32,-0.309 4.667,0 z"
   id="path4814"
   style="fill:#f8ed9b;fill-rule:evenodd" />
	<path
   clip-rule="evenodd"
   d="m 138,59.241 c -2.303,1.587 -2.921,0.952 -6.667,1.333 1.146,-1.426 5.264,-2.249 6.667,-1.333 z"
   id="path4816"
   style="fill:#f8ed9b;fill-rule:evenodd" />
	<path
   clip-rule="evenodd"
   d="m 112,61.241 c 1.31,-2.625 2.671,-1.619 6.667,-2 -0.1,3.975 -1.014,5.128 0,9.333 -0.593,-0.41 -1.192,-0.806 -1.333,0 -3.094,-2.365 -2.396,-8.117 -5.334,-7.333 z"
   id="path4818"
   style="fill:#f8ed9b;fill-rule:evenodd" />
	<path
   clip-rule="evenodd"
   d="m 126,79.241 c -1.592,1.927 -6.568,-0.557 -6,2 -5.119,0.132 -3.772,-2.743 -9.333,-2.667 4.919,-1.759 11.212,-3.695 15.333,0.667 z"
   id="path4820"
   style="fill:#f8ed9b;fill-rule:evenodd" />
	<path
   clip-rule="evenodd"
   d="m 104.667,79.241 c -2.726,1.05 -8.611,2.97 -9.333,5.333 -5.39,1.219 -10.533,2.629 -12.667,8 C 81.308,91.41 81.36,93.071 80,91.907 c 0.721,-4.281 5.988,-7.191 8.667,-7.333 0,-0.667 0,-1.333 0,-2 3.899,0.865 9.774,-6.039 16,-3.333 z"
   id="path4822"
   style="fill:#f8ed9b;fill-rule:evenodd" />
	<path
   clip-rule="evenodd"
   d="m 118.667,88.575 c 2.409,1.544 -0.654,2.185 0,5.333 -1.971,-0.964 -0.575,-1.489 -1.333,-4 0.593,-0.296 1.192,-0.586 1.333,-1.333 z"
   id="path4824"
   style="fill:#f8ed9b;fill-rule:evenodd" />
	<path
   clip-rule="evenodd"
   d="m 126.667,88.575 c 1.991,2.139 2.517,7.074 0,10 -0.536,-0.353 -1.082,-0.696 -2,-0.667 1.355,-3.79 1.649,-5.08 2,-9.333 z"
   id="path4826"
   style="fill:#f8ed9b;fill-rule:evenodd" />
	<path
   clip-rule="evenodd"
   d="m 112,89.908 c 0.96,0.151 0.232,1.99 1.333,2 -0.69,2.017 -2.644,2.293 -3.333,2.667 -1.391,-1.007 1.678,-3.167 2,-4.667 z"
   id="path4828"
   style="fill:#f8ed9b;fill-rule:evenodd" />
	<path
   clip-rule="evenodd"
   d="m 54,90.575 c 1.696,0.067 1.575,2.484 0.667,3.333 C 52.832,93.08 53.642,91.969 54,90.575 z"
   id="path4830"
   style="fill:#f8ed9b;fill-rule:evenodd" />
	<path
   clip-rule="evenodd"
   d="m 219.333,90.575 c 1.074,0.996 3.603,-0.834 3.334,2.667 -2.279,0.278 -3.799,-0.202 -3.334,-2.667 z"
   id="path4832"
   style="fill:#f8ed9b;fill-rule:evenodd" />
	<path
   clip-rule="evenodd"
   d="m 96,91.241 c 2.867,0.968 2.391,7.122 2,9.333 -3.528,-1.971 -3.844,-5.132 -2,-9.333 z"
   id="path4834"
   style="fill:#f8ed9b;fill-rule:evenodd" />
	<path
   clip-rule="evenodd"
   d="m 88.667,92.575 c 3.009,3.917 1.357,7.202 3.333,13.333 -4.378,-0.733 -2.235,-7.987 -4.667,-10.667 0.009,-1.324 1.819,-0.847 1.334,-2.666 z"
   id="path4836"
   style="fill:#f8ed9b;fill-rule:evenodd" />
	<path
   clip-rule="evenodd"
   d="m 224.667,93.241 c 0.987,1.179 3.445,-1.252 3.333,2 -0.987,0.998 -3.445,0.062 -3.333,-2 z"
   id="path4838"
   style="fill:#f8ed9b;fill-rule:evenodd" />
	<path
   clip-rule="evenodd"
   d="m 44,93.908 c 1.168,0.609 2.316,1.24 2,3.333 -0.889,0 -1.778,0 -2.667,0 C 44.087,95.148 43.142,95.48 44,93.908 z"
   id="path4840"
   style="fill:#f8ed9b;fill-rule:evenodd" />
	<path
   clip-rule="evenodd"
   d="m 70.667,115.241 c 7.007,0.014 7.544,-4.646 7.333,-8.667 -2.943,0.947 -0.201,-3.756 -3.333,-2.667 -0.282,-1.393 0.457,-1.765 0.667,-2.667 0.593,0.518 1.505,0.717 2.667,0.667 0.123,0.567 -0.26,0.629 -0.667,0.667 3.23,1.716 0.162,4.05 2.667,5.333 -2.237,1.129 -0.131,3.595 -0.667,4.667 -2.008,4.017 -8.588,5.655 -10.667,4.667 -1.449,-0.688 -7.044,-5.036 -1.333,-6 0.123,0.567 -0.26,0.629 -0.667,0.667 0.108,0.781 1.216,0.562 2,0.667 -1.676,2.196 1.672,-0.132 2,2.666 z"
   id="path4842"
   style="fill:#f8ed9b;fill-rule:evenodd" />
	<path
   clip-rule="evenodd"
   d="m 33.333,106.575 c -0.112,-1.446 2.364,-0.302 3.333,-0.667 0,0.889 0,1.778 0,2.667 -1.546,0.212 -2.56,-0.107 -3.333,-0.667 0.41,-0.594 0.806,-1.193 0,-1.333 z"
   id="path4844"
   style="fill:#f8ed9b;fill-rule:evenodd" />
	<path
   clip-rule="evenodd"
   d="m 57.333,113.908 c 4.094,5.49 -8.02,12.774 -3.333,18.667 -3.083,1.76 -3.379,3.839 -6,8 -2.809,-2.726 3.179,-12.275 2.667,-15.333 0.108,-0.781 1.216,-0.562 2,-0.667 -1.282,-3.4 3.429,-7.279 4.666,-10.667 z"
   id="path4846"
   style="fill:#f8ed9b;fill-rule:evenodd" />
	<path
   clip-rule="evenodd"
   d="m 61.333,121.908 c 6.338,7.956 -1.994,16.906 -6.667,18.667 -1.445,0.112 -0.302,-2.365 -0.667,-3.333 11.282,-2.654 4.668,-10.06 7.334,-15.334 z"
   id="path4848"
   style="fill:#f8ed9b;fill-rule:evenodd" />
	<path
   clip-rule="evenodd"
   d="m 50,159.241 c -1.249,2.529 -0.947,6.608 -5.333,6 1.615,-3.484 2.151,-5.101 5.333,-6 z"
   id="path4850"
   style="fill:#f8ed9b;fill-rule:evenodd" />
	<path
   clip-rule="evenodd"
   d="m 231.333,178.575 c 2.443,1.847 -2.084,2.307 -2.666,3.333 -1.173,6.346 -2.581,8.796 -0.667,13.333 2.52,-0.075 3.585,1.305 4,3.333 -1.333,0 -2.667,0 -4,0 -0.123,-0.566 0.26,-0.629 0.667,-0.666 -0.108,-0.781 -1.216,-0.562 -2,-0.667 -2.297,-6.066 -0.331,-11.761 1.333,-17.333 0.529,-2.055 3.134,-0.34 3.333,-1.333 z"
   id="path4852"
   style="fill:#f8ed9b;fill-rule:evenodd" />
	<path
   clip-rule="evenodd"
   d="m 236.667,183.908 c 2.233,5.73 2.394,12.853 2,16.667 -1.068,-4.375 -3.689,-10.526 -2,-16.667 z"
   id="path4854"
   style="fill:#f8ed9b;fill-rule:evenodd" />
	<path
   clip-rule="evenodd"
   d="m 32,205.908 c 11.236,0.194 6.688,12.418 4.667,19.333 -2.076,0.006 -4.344,1.576 -6,0 4.535,-2.16 7.329,-7.756 6,-14.667 -0.737,-1.707 -3.58,-1.309 -6,-1.333 0.744,-1.549 -0.143,-1.784 1.333,-3.333 z"
   id="path4856"
   style="fill:#f8ed9b;fill-rule:evenodd" />
	<path
   clip-rule="evenodd"
   d="m 52.667,272.574 c -0.346,-1.253 -6.128,-0.019 -7.333,-0.666 1.275,-2.245 2.831,-3.181 4.667,-3.334 3.611,1.723 6.116,4.552 8,8 -0.825,2.803 -6.771,-2.509 -5.334,-4 z"
   id="path4858"
   style="fill:#f8ed9b;fill-rule:evenodd" />
	<path
   clip-rule="evenodd"
   d="m 57.333,280.574 c 0.593,0.41 1.192,0.806 1.333,0 2.338,0.182 -1.204,2.952 0.667,2.667 -1.149,2.484 -4.684,1.961 -4,4.667 -1.111,0 -2.222,0 -3.333,0 0.41,-0.594 0.806,-1.192 0,-1.334 2.629,-1.148 4.072,-3.483 5.333,-6 z"
   id="path4860"
   style="fill:#f8ed9b;fill-rule:evenodd" />
	<path
   clip-rule="evenodd"
   d="m 194.667,300.574 c -1.629,-1.689 -1.421,1.405 -4,0.667 -0.429,2.967 -0.654,7.062 -2,12 -1.527,-1.14 -1.577,-3.757 -2,-6 1.99,-3.309 3.247,-11.197 8,-6.667 z"
   id="path4862"
   style="fill:#f8ed9b;fill-rule:evenodd" />
	<path
   clip-rule="evenodd"
   d="m 87.333,302.574 c 1.172,0.161 1.52,1.147 1.333,2.667 -2.853,1.558 -3.698,3.354 -7.333,5.333 -1.665,-3.552 3.465,-5.166 6,-8 z"
   id="path4864"
   style="fill:#f8ed9b;fill-rule:evenodd" />
	<path
   clip-rule="evenodd"
   d="m 172.667,315.241 c -1.862,-0.378 -1.623,-2.442 -2,-5.333 0.666,0 1.333,0 2,0 0.598,4.583 2.335,5.24 2,10 -1.196,0.084 -1.406,-0.816 -2.667,-0.667 1.281,-1.663 -1.018,-2.739 0.667,-4 z"
   id="path4866"
   style="fill:#f8ed9b;fill-rule:evenodd" />
	<path
   clip-rule="evenodd"
   d="m 66.667,312.574 c 4.54,-0.762 4.524,3.032 8,3.334 -1.236,3.558 -6.959,-0.621 -8,-3.334 z"
   id="path4868"
   style="fill:#f8ed9b;fill-rule:evenodd" />
	<path
   clip-rule="evenodd"
   d="m 143.333,312.574 c 1.678,5.242 5.437,4.311 6.667,10 -0.96,1.476 -1.627,-0.839 -2,0.667 -0.802,-4.347 -8.62,-11.793 -10,-5.333 -1.524,0.697 -2.362,2.082 -4.667,2 0.562,-6.176 4.704,-7.33 10,-7.334 z"
   id="path4870"
   style="fill:#f8ed9b;fill-rule:evenodd" />
	<path
   clip-rule="evenodd"
   d="m 99.333,313.908 c 1.259,0.073 0.462,2.204 2,2 -1.855,2.402 -0.812,3.598 -2.667,6 -1.98,-2.242 0.373,-5.822 0.667,-8 z"
   id="path4872"
   style="fill:#f8ed9b;fill-rule:evenodd" />
	<path
   clip-rule="evenodd"
   d="m 128,336.574 c -1,0.778 -1.63,1.926 -3.333,2 -1.577,-2.78 1.128,-3.001 3.333,-2 z"
   id="path4874"
   style="fill:#f8ed9b;fill-rule:evenodd" />
	<path
   clip-rule="evenodd"
   d="m 136,7.241 c 1.154,-0.204 6.513,2.739 7.333,2.667 3.963,4.012 1.709,10.347 5.334,14 -1.111,5.065 6.063,12.014 3.333,16.667 4.896,3.749 -2.794,19.168 1.333,20.667 -0.391,1.387 -1.4,2.155 -2,3.333 1.282,1.663 -1.017,2.739 0.667,4 -4.503,7.626 2.75,6.131 6,6.667 8.957,1.476 20.752,-0.274 30.667,7.333 3.628,2.783 2.808,7.009 10,6.667 5.604,2.042 19.54,-9.64 28,0 0.969,-2.894 7.536,4.625 10.666,4 4.706,7.7 6.274,-5.032 12,-5.333 4.899,-0.257 13.293,5 16.667,4.667 0.569,1.208 1.717,1.838 2,3.333 -1.036,-1.257 -2.598,0.957 -4,-0.667 3.52,5.488 8.744,1.327 8.667,10 -4.23,-0.42 -2.273,-3.924 -8,-2.667 0,1.111 0,2.222 0,3.333 3.154,1.061 5.394,4.422 3.333,6 -0.623,0.478 -6.782,-1.496 -10,0.667 -1.404,0.944 -2.521,2.426 -2.667,4.667 -1.884,0.993 -4.239,-0.037 -6,-2 -0.122,0.567 0.261,0.629 0.667,0.667 -2.269,-1.458 -18.392,2.227 -20,-4.667 -1.44,0.348 -11.183,-7.494 -12.667,-1.333 -0.153,0.637 5.648,10.401 6.667,12 0.385,0.605 1.003,0.698 2,0.667 1.207,6.955 2.842,14.912 7.333,26 0.108,0.781 1.216,0.562 2,0.667 1.344,8.069 0.111,16.042 2.667,25.333 0.373,1.506 1.04,-0.809 2,0.667 1.237,10.703 3.982,14.684 3.333,20.667 -4.633,5.88 0.814,8.517 0,15.333 1.145,-1.963 2.706,4.172 -0.666,4 0.181,1.57 2.952,0.407 2.666,-0.667 0.702,6.313 0.553,14.014 -0.666,20 -0.21,1.032 -4.369,11.248 0,14.667 -3.076,4.254 -1.314,10.227 -1.334,13.333 -2.985,2.028 -3.379,6.571 -3.333,8.667 -1,0.778 -1.63,1.926 -3.333,2 0.728,3.998 -5.436,6.184 -4.667,11.333 -2.528,-0.538 -0.922,4.522 -4,4 1.172,5.122 -7.341,9.033 -5.333,15.334 3.828,-1.229 2.291,1.513 3.333,2 3.256,1.522 13.892,-3.27 16.667,3.333 -0.573,-2.56 8.413,2.646 9.333,2.667 4.363,4.478 -2.39,5.762 -6.667,1.333 -2.503,1.149 0.096,3.518 -1.333,4.667 1.14,1.526 3.757,1.576 6,2 -0.71,1.072 0.167,1.949 2.667,2.666 -0.426,2.058 1.635,3.836 1.333,5.334 -0.609,0.743 -1.239,0.21 -3.333,0.666 0.853,-3.52 -2.548,-2.786 -2.667,-5.333 -2.052,-0.496 -1.281,1.83 -3.333,1.333 -0.034,4.762 -1.606,3.715 0,8 2.509,-1.987 -0.624,2.165 2.666,2 0.744,3.312 -0.219,5.388 0,6.667 -1.083,2.516 -2.164,-3.935 -2.666,-2 -0.312,-1.498 -0.363,-3.275 -2.667,-5.333 -2.546,3.023 -5.833,2.021 -8.667,5.333 0.712,0.622 0.208,2.459 2,2 -1.352,3.35 -3.9,1.398 -5.333,4.667 -1.796,-1.081 -8.468,0.993 -9.333,-4 -1.774,0.537 -3.066,-1.152 -2.667,-0.667 -3.842,-4.666 -7.918,-2.961 -10.667,-4.667 -4.115,-2.554 -2.47,-5.438 -6,-8 2.068,-5.273 -2.213,-5.106 -0.666,-8 -8.383,1.086 -8.32,4.072 -17.334,4 -6.92,7.932 -16.595,14.312 -25.333,9.334 -2.285,-1.303 -4.815,2.499 -8,4 -5.976,2.815 -11.251,-0.142 -16,2 0.398,9.28 0.32,19.102 2,28.666 0.165,0.936 0.767,0.121 0.667,0 2.143,2.591 -0.197,6.26 0.667,9.334 0.345,1.225 1.906,1.446 2,2 0.18,1.051 -1.323,-0.154 -1.333,0 -0.068,1.063 2.206,9.261 2,8.666 0.702,2.023 0.396,2.204 0.667,4 -8.719,1.395 -6.145,-5.908 -10,-8 0.841,-0.782 0.535,-2.77 -1.333,-2.666 -0.183,-7.162 -2.792,-9.487 -3.333,-20 -0.459,-0.153 -0.769,0.299 -0.667,0.666 -2.636,-9.465 -2.903,-14.612 -4.667,-26 -7.487,1.896 -14.665,-2.938 -19.333,-4 0.282,-1.394 -0.457,-1.765 -0.667,-2.666 -6.449,4.649 -14.077,-3.371 -19.333,-2 -0.39,0.102 -1.5,-1.267 -1.333,-1.334 -1.987,0.804 -1.036,4.268 0,5.334 3.064,8 -4.408,9.854 -5.333,14 -0.672,3.011 1.859,5.07 0,8.666 -1.271,-1.251 -1.206,0.396 -3.333,0 0.244,3.692 0.034,3.874 0.667,6.667 -2.316,1.847 -7.096,3.039 -8,4 -1.168,-0.609 -2.316,-1.239 -2,-3.333 -4.572,0.13 -1.329,3.97 -7.333,2.666 -3.119,2.703 2.215,9.18 -0.667,12 -4.95,-0.754 -5.813,-7.368 -4,-12.666 -1.624,-2.457 -4.077,-2.157 -7.333,-4 -1.916,0.921 -0.96,3.078 -0.667,4 0.629,1.232 -3.815,0.409 -1.333,1.333 -5.459,1.437 -1.831,-5.203 -0.667,-9.333 1.325,-4.701 -2.686,-11.13 -4.667,-11.334 -3.604,-0.37 0.476,4.679 -3.333,5.334 2.218,-0.433 1.31,0 2,2 -1.454,0.108 -1.936,2.503 -3.333,1.333 -5.28,-4.424 5.846,-19.488 10.667,-24 1.395,1.184 2.505,-0.524 3.333,0.667 3.965,-2.933 1.797,-8.284 7.333,-10 1.208,-3.422 -1.492,-5.018 2,-5.334 -2.481,-6.501 0.721,-7.134 -2.667,-13.333 -5.033,-1.382 -13.289,-9.571 -13.333,-14 -2.101,2.162 -0.281,-2.544 -3.333,-1.333 0.13,-1.864 1.694,-4.121 -1.333,-5.334 1.854,-5.474 -8.039,-12.701 -7.333,-18 -0.107,-0.781 -1.215,-0.562 -2,-0.666 0.667,-1.615 0.877,-2.948 -1.333,-4 1.856,-1.193 0.595,0.473 0,-1.334 -2.616,-7.945 0.396,-25.456 -1.333,-34.666 -0.704,-3.75 0.534,-10.99 -0.667,-14 4.815,-7.706 3.621,-16.856 6.667,-22 -0.538,-0.123 -0.667,0.26 -0.667,0.667 -0.005,-4.551 3.174,-10.086 5.333,-17.333 4.315,-0.024 0.979,-5.309 4.667,-5.333 -0.09,-9.026 5.271,-17.035 8,-26.667 0.698,-2.462 0.719,-4.766 1.333,-7.333 0,0.001 1.299,0.816 1.333,0.667 0.36,-1.558 1.728,-7.148 3.333,-10 2.385,-4.238 9.236,-10.026 -0.667,-10.667 -2.124,2.157 -11.308,8.194 -13.333,2.667 -6.81,2.106 -13.468,8.627 -20.667,0.667 -4.935,1.834 -2.448,8.049 -5.333,9.333 -1.486,0.662 -0.546,-4.752 -2,-0.667 -1.326,-0.451 0.659,-2.215 -0.667,-2.667 0.107,-0.781 1.215,-0.562 2,-0.667 -1.346,-2.09 0.484,-5.886 3.333,-7.333 0.396,-2.127 -1.251,-2.062 0,-3.333 -2.696,-3.31 -7.156,-0.349 -9.333,3.333 -1.333,0 -2.667,0 -4,0 0.462,-1.175 0.736,-2.064 0,-2.667 1.812,-0.834 2.011,-3.267 5.333,-6 1.829,-1.505 8.315,-1.715 4,-4 -0.946,-0.501 -1.952,2.067 -4,0.667 0,-0.667 0,-1.333 0,-2 2.293,0.354 2.613,-2.661 2.664,-3.336 3.405,-3.012 6.523,0.595 8,-0.667 1.309,-1.117 -0.537,-2.896 0,-3.333 2.673,-2.176 4.959,-1.145 9.333,0 4.826,-4.683 6.004,-0.12 9.333,2 -0.36,-0.229 3.591,-1.537 1.333,-0.667 5.402,-2.082 11.005,-4.843 16,-7.333 9.56,-0.534 14.264,5.888 21.333,9.333 1.181,-0.34 4.085,-4.365 2.667,-1.333 2.668,0.497 2.256,-4.136 2.667,-4.667 2.513,-3.246 13.579,-11.079 14.667,-10.667 3.349,1.268 11.838,-4.115 17.333,-0.667 1.915,-5.005 -4.288,-13.116 -2,-19.333 -1.897,0.781 -0.634,-1.483 -0.667,-2 -0.348,-5.621 -1.933,-12.004 1.333,-21.333 0.882,-2.52 2.966,-4.308 3.333,-6.667 0.291,-1.863 -1.062,-4.068 -0.667,-6.667 0.575,-3.787 3.683,-6.645 4.667,-10 2.054,1.402 3.349,-2.564 6.667,-2 0,-1.111 0,-2.222 0,-3.333 2.526,-1.229 6.724,-7.092 10,-3.333 0.829,1.127 3.328,4.146 2.668,6 z m 10,27.334 c 0.206,-3.188 -0.369,-8.839 -4,-11.333 1.993,0.362 1.044,8.341 4,11.333 z m -32,1.333 c 0.141,-0.806 0.74,-0.41 1.333,0 1.118,-4.345 3.894,-9.868 0.667,-10.667 -0.057,3.748 -3.702,8.396 -2,10.667 z m 18.667,-5.333 c 0.682,-3.525 -2.197,-3.526 -1.333,-6 -0.667,0 -1.333,0 -2,0 -0.17,3.833 -0.349,5.664 3.333,6 z m -7.334,4.666 c 0.038,-0.407 0.1,-0.789 0.667,-0.667 0.365,0.969 -0.779,3.446 0.667,3.333 0.446,-3.112 -1.072,-4.261 -2,-6 -0.993,1.395 0.666,2.507 0.666,3.334 z m 9.334,4 c 1.193,-1.251 2.381,-2.508 3.333,-4 -0.881,-0.008 -0.609,-1.168 -1.333,-1.333 2.204,2.626 -3.636,3.592 -2,5.333 z m 3.333,18 c 0.858,-0.213 3.313,-0.554 6,-0.667 2.222,-2.604 -1.456,-9.156 -1.333,-11.333 -1.357,-0.198 -1.776,-1.335 -2.667,-2 -0.562,5.29 -1.943,8.46 -2,14 z M 120,44.575 c -3.899,4.939 -4.846,17.377 3.333,12.667 -0.307,-3.953 0.305,-4.713 -2,-6.667 0.563,-1.601 0.563,-4.4 0,-6 -0.141,0.805 -0.74,0.409 -1.333,0 z m 21.333,14 c 0.623,3.366 2.736,5.361 0.667,8 5.339,-1.071 3.624,-5.545 4,-8 -1.347,-0.309 -2.216,0.417 -4.667,0 z m -10,2 c 3.746,-0.382 4.364,0.253 6.667,-1.333 -1.403,-0.917 -5.521,-0.094 -6.667,1.333 z m -14,8 c 0.141,-0.806 0.74,-0.41 1.333,0 -1.014,-4.206 -0.1,-5.359 0,-9.333 -3.996,0.381 -5.357,-0.625 -6.667,2 2.939,-0.785 2.241,4.967 5.334,7.333 z m -6.666,10 c 5.561,-0.077 4.214,2.798 9.333,2.667 -0.568,-2.557 4.408,-0.073 6,-2 -4.121,-4.363 -10.414,-2.427 -15.333,-0.667 z M 158,79.908 c 1.104,-3.054 -3.237,-2.106 -4,-1.333 -7.501,-3.621 -19.302,1.157 -26,-2 -0.396,2.127 1.251,2.062 0,3.333 18.2,1.634 12.812,0.312 30,0 z m -69.333,2.667 c 0,0.667 0,1.333 0,2 -2.679,0.142 -7.945,3.052 -8.667,7.333 1.359,1.164 1.307,-0.497 2.667,0.667 2.134,-5.371 7.277,-6.781 12.667,-8 0.722,-2.364 6.607,-4.284 9.333,-5.333 -6.226,-2.707 -12.101,4.197 -16,3.333 z m 80,-2.667 c 3.175,0.91 4.954,4.034 8.666,5.333 8.717,-1.82 9.816,4.662 14,4.667 -5.064,-7.54 -19.547,-12.147 -30,-11.333 0.706,3.607 4.933,0.645 7.334,1.333 z m -67.334,9.333 c 1.051,4.923 -1.075,5.354 2,8.667 -0.195,-4.367 -0.045,-4.935 -0.667,-8.667 0.37,0.002 0.757,-0.54 0,-0.667 -0.146,0.52 -0.558,0.776 -1.333,0.667 z m 16,0.667 c 0.758,2.511 -0.638,3.036 1.333,4 -0.654,-3.148 2.409,-3.789 0,-5.333 -0.14,0.747 -0.739,1.037 -1.333,1.333 z m 7.334,8 c 0.918,-0.029 1.464,0.314 2,0.667 2.517,-2.926 1.991,-7.861 0,-10 -0.351,4.253 -0.645,5.543 -2,9.333 z m 42,-6 c 2.542,0.877 -1.033,4.003 2.666,4 -1.103,-2.756 1.473,-5.228 0,-7.333 -0.159,1.25 -1.098,-0.378 -1.333,0.667 1.806,0.602 -1.524,1.49 -1.333,2.666 z m -24.667,0 c -0.288,1.526 0.264,4.469 0.667,7.333 0.196,-1.389 1.804,0.989 2,-1.333 -0.556,-3.396 -1.731,-10.963 -2.667,-6 z m -32,2.667 c 0.69,-0.374 2.644,-0.65 3.333,-2.667 -1.101,-0.01 -0.373,-1.849 -1.333,-2 -0.322,1.5 -3.391,3.66 -2,4.667 z m 65.333,5.333 c 1.714,-1.703 1.504,-7.464 0.667,-10 -1.817,2.653 -0.681,7.387 -0.667,10 z m -120.666,-6 c 0.909,-0.849 1.03,-3.266 -0.667,-3.333 -0.358,1.394 -1.168,2.505 0.667,3.333 z m 168,-0.667 c 0.269,-3.501 -2.26,-1.67 -3.334,-2.667 -0.465,2.466 1.055,2.946 3.334,2.667 z M 98,100.575 c 0.391,-2.212 0.867,-8.366 -2,-9.333 -1.844,4.2 -1.528,7.361 2,9.333 z m 83.333,4 c 1.165,-2.809 1.169,-5.591 3.334,-4.667 0.324,-5.125 2.278,-5.092 -0.667,-8.667 -0.16,1.25 -1.098,-0.378 -1.333,0.667 3.088,2.536 -4.338,8.085 -1.334,12.667 z m 12,-13.334 c -0.209,0.901 -0.948,1.273 -0.666,2.667 0.409,0.924 2.566,0.101 2.666,1.333 -2.568,3.369 -1.86,9.016 -4.666,12.667 5.124,1.929 6.307,9.627 16,9.333 0.53,-1.249 5.772,-3.404 4,-6.667 -5.171,2.822 -11.48,6.35 -13.334,0 1.841,1.821 0.626,-0.977 2,-1.333 0.828,1.191 1.939,-0.518 3.334,0.667 0.387,-1.835 1.659,-2.785 2,-4.667 -1.111,0 -2.223,0 -3.334,0 -1.151,0.404 0.052,3.162 -1.333,3.333 -0.444,0 -0.889,0 -1.333,0 1.11,-1.325 -0.061,-0.848 0,-2.667 1.844,0.113 2.288,-1.024 1.333,-2 2.539,2.198 1.405,-2.56 2,-2.667 1.364,2.841 5.336,4.676 5.333,2.667 1.604,0.871 4,4.407 5.334,3.333 0.357,-1.545 -2.777,-2.185 -2.667,-5.333 -6.823,-4.323 -8.152,-7.853 -16.667,-10.666 z m 16,0.667 c 1.102,0.01 0.373,1.849 1.334,2 0.141,-0.806 0.739,-0.41 1.333,0 0.462,-1.175 0.736,-2.064 0,-2.667 0.285,1.871 -2.485,-1.671 -2.667,0.667 z m -148,3.333 c 0,-0.444 0,-0.889 0,-1.333 -0.038,-0.407 -0.1,-0.789 -0.667,-0.667 -0.689,1.86 -2.644,-3.503 -3.333,0 2.54,-0.539 2.046,1.954 4,2 z m 26,0 c 2.432,2.68 0.289,9.934 4.667,10.667 -1.976,-6.131 -0.324,-9.417 -3.333,-13.333 0.485,1.819 -1.325,1.342 -1.334,2.666 z m 140.667,0 c 0.112,-3.252 -2.346,-0.821 -3.333,-2 -0.112,2.062 2.346,2.998 3.333,2 z m -184.667,2 c 0.889,0 1.778,0 2.667,0 0.316,-2.094 -0.832,-2.724 -2,-3.333 -0.858,1.572 0.087,1.24 -0.667,3.333 z M 74,109.908 c -0.806,-0.141 -0.41,-0.74 0,-1.333 -8.275,-3.465 -2.541,-10.934 3.333,-14 -4.954,-1.154 -9.181,5.477 -12.667,9.333 -2.135,2.362 -6.872,5.71 -4.667,8.667 2.415,-2.772 2.178,-7.917 9.333,-7.333 -0.833,2.843 3.156,4.855 4.668,4.666 z M 250,96.575 c 1.536,0.239 5.345,-1.573 4.667,-1.333 -0.374,-1.506 -1.04,0.809 -2,-0.667 -0.182,1.374 -2.952,0.158 -2.667,2 z M 22,95.908 c -0.038,0.407 -0.1,0.79 -0.667,0.667 -1.423,-1.46 -7.425,-1.699 -6,0.667 1.511,-1.324 6.817,1.042 6.667,-1.334 z m -9.333,7.333 c 2.8,2.27 6.271,-1.067 8,-2.667 -2.312,0.1 -4.671,1.266 -8,2.667 z M 138,104.575 c -0.806,-0.141 -0.41,-0.74 0,-1.333 -5.443,0.776 -8.143,-1.19 -10.667,-3.333 -6.308,3.568 -14.771,1.582 -16,6 8.614,-1 17.06,-7.343 21.333,0.667 1.084,8.129 -0.951,14.208 2,18 0.72,-3.832 -0.222,-16.473 3.334,-20.001 z m -69.333,8 c -0.784,-0.104 -1.892,0.114 -2,-0.667 0.407,-0.038 0.79,-0.1 0.667,-0.667 -5.711,0.964 -0.116,5.312 1.333,6 2.079,0.988 8.659,-0.65 10.667,-4.667 0.536,-1.072 -1.57,-3.538 0.667,-4.667 -2.505,-1.283 0.564,-3.617 -2.667,-5.333 0.407,-0.038 0.789,-0.1 0.667,-0.667 -1.161,0.05 -2.073,-0.149 -2.667,-0.667 -0.21,0.901 -0.949,1.273 -0.667,2.667 3.133,-1.089 0.391,3.614 3.333,2.667 0.211,4.02 -0.326,8.681 -7.333,8.667 -0.328,-2.798 -3.676,-0.47 -2,-2.666 z m 76.666,-10 c -1.075,-0.88 -5.873,-1.44 -6,0.667 2.804,0.003 5.574,-0.023 6,-0.667 z m -32.666,43.333 c -1.236,3.549 -6.836,4.417 -10,6.667 -4.129,2.938 -6.096,7.794 -8,9.333 -9.549,7.718 -22.231,-7.949 -32.667,-1.333 1.994,0.45 0.432,4.457 2.667,4.667 2.502,-1.892 6.637,-4.996 12,-2.667 -1.286,1.835 1.748,3.41 1.333,1.333 4.862,4.622 13.439,1.573 14,10.667 0.785,0.104 1.893,-0.115 2,0.667 -0.282,3.207 2.217,10.553 6,14.667 0.08,-9.568 -6.733,-16.147 -6.667,-23.333 5.218,-4.507 12.613,1.926 12.667,-11.333 0.747,-0.068 1.04,0.97 1.333,0 3.073,-10.156 15.559,-3.833 24,-4.667 -1.821,1.841 0.976,0.625 1.333,2 -3.963,9.314 0.38,15.491 -2,24.667 3.03,0.02 0.085,1.959 0,2.667 -0.003,0.024 1.366,0.814 1.333,1.333 -0.288,4.632 -0.942,13.667 -2.667,15.333 -14.08,-1.466 -19.396,4.82 -26.667,-2 -0.263,-1.147 0.99,-1.709 0,-2 -1.28,2.91 -1.206,-4.423 -2,-2 1.893,5.425 1.075,9.898 -2.667,12.667 5.521,-3.787 27.71,-4.445 29.333,-6 2.006,1.398 4.077,2.285 4,4.667 -0.268,8.307 -0.297,23.144 -1.333,36 -2.343,2.604 -3.642,0.569 -5.333,2.666 1.628,0.665 1.42,0.222 4,0.667 -1.821,1.841 0.977,0.626 1.333,2 -0.181,4.4 1.44,9.194 0.667,16 -0.57,5.019 -0.79,11.386 -2.667,15.333 2.236,1.868 1.013,6.853 -0.667,8 -2.56,-0.784 -5.058,-2.694 -8.667,-1.333 10.763,0.163 9.581,9.666 11.333,12.667 -1.966,11.46 -2.433,23.45 -0.667,36.666 4.701,-12.627 -0.802,-19.319 0.667,-32 0.663,-5.724 -0.323,-11.064 4,-14 -0.37,0.002 -0.757,-0.54 0,-0.666 6.206,-0.673 10.453,-1.813 14,-2 5.834,5.669 3.33,18.147 10,25.333 -1.374,-11.264 -11.494,-24.745 4,-30 0.067,0.748 -0.969,1.038 0,1.333 7.895,-6.725 22.903,-3.229 24,8.667 1.884,-0.551 1.728,0.939 3.333,0.667 -0.332,-5.273 -4.7,-5.991 -3.333,-11.334 -4.902,-5.271 -18.161,-1.879 -17.333,-14.666 -0.785,-0.104 -1.893,0.114 -2,-0.667 0.964,-0.16 1.55,-5.486 -0.667,-4.667 -2.136,4.392 4.837,13.522 -0.667,18.667 -11.83,2.324 -22.586,5.759 -32.667,7.333 -0.315,-2.798 -0.522,-0.47 -2,-2.666 0.386,-5.944 0.797,-12.167 0,-18.667 3.615,-2.083 0.203,-16.45 4,-19.333 3.393,-1.045 19.237,3.38 22.667,1.333 -9.198,-2.691 -19.878,-0.868 -24.667,-6.667 -0.833,-18.403 1.277,-30.811 1.333,-38.666 0.669,-0.003 0.793,0.54 1.333,0.666 -3.896,-6.936 0.292,-10.718 -2.667,-16 0.07,-10.307 1.48,-18.724 1.333,-26.667 -0.042,-2.293 -0.136,-4.095 2.667,-5.333 8.004,-3.538 28.292,-3.686 27.333,12 4.323,0.489 8.515,-0.998 8.667,-2.667 0.141,0.806 0.739,0.41 1.333,0 -0.417,1.299 3.655,3.14 4,6 -0.071,-0.595 -1.805,6.304 -2.667,8 -1.178,2.321 -3.869,2.929 -4.666,5.333 -1.078,3.252 -0.922,4.083 -2,6.667 -1.783,4.272 -4.495,10.669 -6.667,13.333 -7.727,0.826 -14.673,-1.146 -21.333,-2.667 9.832,8.051 17.187,-0.298 24,6.667 -0.449,-0.458 0.718,1.797 1.333,2.667 1.622,2.295 2.902,9.602 5.333,12 2.094,2.065 3.164,2.11 4.667,4 0.303,-7.023 -5.916,-11.517 -8.667,-16.667 -4.226,-7.912 0.534,-13.054 5.334,-20.667 -2.032,-0.815 0.975,-2.544 -0.667,-3.333 2.951,0.289 1.556,-1.408 1.333,-2.667 0.667,0 1.334,0 2,0 -0.866,-3.628 2.251,-6.399 4,-9.333 2.731,0.493 9.826,-0.385 14,-0.667 4.495,-8.785 12.024,0.424 16.667,0 -1.271,-0.068 0.531,-2.484 0.667,-3.333 -8.229,-4.071 -16.46,-1.423 -22.667,0.667 -0.067,-0.748 0.969,-1.038 0,-1.333 -5.132,2.939 -9.704,-1.274 -13.333,-4.667 -4.31,-4.027 -12.459,-9.809 -20.667,-13.333 6.16,-10.625 3.745,-30.052 13.333,-39.333 -0.806,-0.141 -0.409,-0.74 0,-1.333 -5.675,-1.605 -13.425,-1.588 -17.333,-1.333 3.455,1.211 7.324,2.009 12,2 -1.663,11.82 -6.309,26.29 -8,37.333 -0.002,-0.37 0.54,-0.756 0.667,0 -5.124,5.197 -11.694,3.466 -18.667,4.667 -3.247,-7.292 0.457,-13.316 -1.333,-20 -1.565,4.423 -1.627,8.035 -2,18 -7.946,4.492 -9.34,2.208 -17.333,1.333 -2.418,-4.733 -1.542,-7.493 -4.667,-11.333 -1.011,3.144 3.186,5.94 2.005,9.331 z M 80,220.574 c 0.194,-0.077 -0.97,-1.396 -1.333,-1.333 -2.896,0.503 -5.353,0.999 -8.667,1.333 -7.216,0.728 -15.319,2.708 -21.333,10 14.885,-6.775 38.387,-16.601 43.333,2.667 0.667,0 1.333,0 2,0 -0.062,2.405 1.706,5.37 3.333,6.667 -0.149,-1.937 -0.429,-5.257 -0.667,-6 -1.124,-3.512 -4.598,-4.413 -6.667,-8 -0.151,-0.263 -0.471,0.296 -1.333,-0.667 -2.678,-2.992 -3.215,-6.465 -2,-8 1.619,-2.045 2.573,-2.029 3.333,-3.333 0.328,-0.562 2.494,-0.632 3.333,-1.334 2.773,-2.317 0.792,-6.113 4.667,-6.666 -1.214,0.021 1.271,-3.354 -1.333,-3.334 -0.01,1.102 -1.849,0.373 -2,1.334 -1.473,2.156 -5.607,4.087 -6,8.666 -3.203,0.769 -3.812,6.05 -8.666,8 z m 44.667,18.667 c -9.027,0.952 -14.155,1.569 -23.333,4 -1.896,-1.337 -0.831,-3.099 -2.667,-3.333 -1.835,1.031 -0.064,4.001 0.667,4.666 -1.704,-1.763 -1.323,0.913 -1.333,2.667 -0.785,0.104 -1.893,-0.114 -2,0.667 -0.887,7.063 -6.339,20.304 -17.333,22.666 0.755,3.824 -2.913,7.073 -5.333,12 2.718,0.147 4.751,-2.762 4,-4 5.812,-4.896 18.59,-6.599 23.333,-6 -2.303,-0.871 -4.369,-1.255 -7.333,-1.333 -0.941,-2.88 -1.578,-5.159 -1.333,-7.333 0.262,-2.336 3.089,-3.454 2.667,-3.334 1.111,-0.317 1.119,-9.413 3.333,-13.333 7.911,-3.474 17.287,-4.838 26.667,-6.667 -0.808,-0.14 -0.412,-0.739 -0.002,-1.333 z m 42.666,1.333 c -3.835,4.82 4.696,-5.416 8,-6 3.681,-14.09 10.353,-7.975 24,-10 -5.264,-1.979 -11.401,-0.033 -16.666,-0.666 -3.134,-0.377 -4.191,-2.812 -6.667,-1.334 0.963,1.588 1.011,1.637 2,2 -3.044,8.341 -8.288,6.694 -10.667,16 z M 22.667,104.575 c -1.149,0.133 -3.517,1.971 -4.667,4 1.176,-1.298 5.806,-2.6 4.667,-4 z m 59.333,8 c 0.068,2.454 -4.674,4.257 -7.333,6.667 0.816,6.929 -4.175,8.534 0,11.333 -0.541,-12.387 11.25,-18.83 20,-21.333 -3.555,-1.056 -7.689,1.458 -12.667,3.333 z m 28,16 c -1.522,-10.382 -9.199,-16.216 -4,-23.333 -3.614,0.036 -7.937,1.904 -11.333,4 0.407,0.038 0.79,0.1 0.667,0.667 -0.37,-0.002 -0.757,0.54 0,0.667 5.215,-4.459 9.859,7.134 8.667,9.333 6.114,3.308 1.539,7.307 5.999,8.666 z M 33.333,107.908 c 0.773,0.56 1.787,0.879 3.333,0.667 0,-0.889 0,-1.778 0,-2.667 -0.969,0.365 -3.445,-0.779 -3.333,0.667 0.806,0.14 0.41,0.739 0,1.333 z m 155.334,5.333 c 2.074,1.719 4.373,6.717 6.666,6 -2.73,-2.345 -1.108,-2.797 -2.666,-6.667 -4.463,-1.767 -14.39,-1.602 -18,-2 4.111,1.445 9.721,1.39 14,2.667 z m 32,8 c -1.161,-4.396 -2.712,-6.353 -4.667,-8.667 -0.16,0.951 -1.098,1.125 -1.333,2 3.763,1.643 3.5,4.97 6,6.667 z m -168,3.334 c -0.784,0.104 -1.892,-0.115 -2,0.667 0.513,3.058 -5.476,12.608 -2.667,15.333 2.621,-4.161 2.917,-6.24 6,-8 -4.686,-5.893 7.428,-13.177 3.333,-18.667 -1.237,3.388 -5.948,7.267 -4.666,10.667 z M 54,137.241 c 0.365,0.969 -0.779,3.446 0.667,3.333 4.673,-1.761 13.005,-10.711 6.667,-18.667 -2.667,5.275 3.947,12.681 -7.334,15.334 z m 166.667,2.667 c -7.969,-3.872 -9.495,-8.368 -8,-18 -4.931,4.898 0.728,20.265 8,18 z m 6,-2.667 c -1.194,-2.387 -1.543,-10.653 -6,-14.667 0.577,4.009 0.235,5.128 0,9.333 4.243,1.297 3.634,4.683 6,5.334 z m -184,10.667 c -0.244,1.481 -0.22,7.987 -2.667,7.333 0.679,5.798 -3.351,6.901 -1.333,9.333 0.141,-0.806 0.74,-0.41 1.333,0 6.365,-7.868 3.95,-12.511 5.333,-21.333 -0.838,1.606 -0.425,4.464 -2.666,4.667 z m 8.666,-0.667 c -2.511,-0.344 -3.036,-0.843 -4,1.333 3.755,0.08 1.042,8.47 2.667,8.667 0.16,-1.25 1.098,0.378 1.333,-0.667 0.397,-2.388 1.151,-5.055 1.333,-8 -1.161,-1.255 -2.567,0.912 -1.333,-1.333 z m 170,14.667 c 0.535,-0.884 3.4,9.021 7.334,5.333 -7.937,-1.958 -8.928,-13.078 -4.667,-18.667 -5.442,0.93 -3.486,8.717 -2.667,13.334 z M 234,167.241 c -1.85,-6 -0.981,-15.996 -4.667,-18 -2.506,5.31 0.407,14.401 4.667,18 z m -189.333,-2 c 4.386,0.608 4.085,-3.471 5.333,-6 -3.182,0.899 -3.718,2.516 -5.333,6 z m -10,5.334 c 1.326,0.451 -0.659,2.215 0.667,2.667 1.466,-1.957 0.855,-3.519 3.333,-5.333 -1.52,-0.186 -2.506,0.161 -2.667,1.333 1.806,1.375 -1.524,0.582 -1.333,1.333 z m 22,10.666 c -0.529,1.399 -3.413,17.127 -6,19.333 -2.803,2.392 -2.495,5.569 -3.333,8 2.274,0.639 6.913,1.386 4.667,-2 0.667,0 1.333,0 2,0 3.167,-8.91 3.737,-16.954 5.333,-25.333 0.515,-2.705 3.144,-6.691 2,-11.333 -2.867,2.957 -2.705,6.147 -4.667,11.333 z m -16.667,-8 c 6.33,3.826 -0.225,9.642 2,14 -2.308,0.604 -6.62,2.683 -4.667,5.333 1.344,-2.474 2.606,-0.91 4.667,-2.667 2.697,-1.48 3.936,-15.35 0.667,-17.333 0.285,1.871 -2.486,-1.67 -2.667,0.667 z m -10,10 c 2.125,2.468 -3.339,9.378 0,12.667 -0.298,-2.982 1.766,-3.031 2,-8 5.433,-2.969 2.366,-9.926 2.667,-14 -0.16,1.25 -1.098,-0.378 -1.333,0.667 1.485,1.87 -0.905,5.734 -3.334,8.666 z m 198,-3.333 c -1.664,5.572 -3.63,11.267 -1.333,17.333 0.784,0.104 1.892,-0.114 2,0.667 -0.407,0.037 -0.79,0.1 -0.667,0.666 1.333,0 2.667,0 4,0 -0.415,-2.028 -1.48,-3.408 -4,-3.333 -1.914,-4.537 -0.506,-6.988 0.667,-13.333 0.582,-1.026 5.109,-1.486 2.666,-3.333 -0.199,0.993 -2.804,-0.722 -3.333,1.333 z m 10.667,20.666 c 0.394,-3.813 0.233,-10.937 -2,-16.667 -1.689,6.142 0.932,12.293 2,16.667 z m -23.334,7.334 c 1.913,-4.806 -1.623,-8.751 -3.333,-12.667 -0.429,-0.983 -1.39,-5.331 -2.667,-4.667 1.51,5.839 -1.53,15.26 6,17.334 z m -184.666,-8 c -0.806,-0.142 -0.41,-0.74 0,-1.334 -5.676,1.559 -3.577,8.177 -4,10.667 -1.253,7.377 -0.869,14.094 -1.333,21.333 4.891,0.346 -0.171,-9.48 4,-11.333 -2.003,-4.482 -2.089,-13.571 0.667,-19.333 -0.003,0.37 0.539,0.757 0.666,0 z m 0,9.333 c 2.42,0.024 5.263,-0.374 6,1.333 1.329,6.911 -1.465,12.507 -6,14.667 1.656,1.576 3.924,0.006 6,0 2.022,-6.915 6.57,-19.139 -4.667,-19.333 -1.476,1.549 -0.589,1.784 -1.333,3.333 z m 199.333,4 c 1.556,-1.777 3.026,-3.64 5.333,-4.667 -3.438,-1.186 -5.799,0.831 -7.333,3.334 0.784,0.104 1.893,-0.115 2,0.666 -0.37,-0.002 -0.757,0.54 0,0.667 z m 10,4 c -0.748,0.067 -1.038,-0.969 -1.333,0 1.261,1.108 -0.226,1.79 -0.667,4 3.206,2.307 0.676,5.962 3.333,7.333 -0.438,-5.497 1.698,-15.093 -1.333,-16.666 0.915,1.185 -1.193,2.975 0,5.333 z m -4.667,14 c -0.463,-3.261 -5.319,-3.132 -7.333,-7.333 0.802,-1.249 0.802,-3.418 0,-4.667 -2.385,3.284 -0.007,5.383 -1.333,8.667 3.681,0.439 6.55,5.289 8.666,3.333 z M 216,230.574 c -2.366,-2.87 -4.912,-1.876 -6,-5.333 -2.705,1.459 -5.227,-2.727 -7.333,0 3.45,-0.485 5.953,4.245 6,1.333 2.06,1.269 5.723,6.551 7.333,4 z M 34,269.241 c -4.489,-3.601 1.92,-18.071 -4,-20.667 -2.903,-7.626 -0.757,-11.204 -1.333,-16.666 -0.141,0.806 -0.74,0.409 -1.333,0 0.359,2.358 -1.079,2.921 -2,4 1.605,9.331 2.703,28.23 7.333,35.333 3.145,0.493 2.663,-2.158 2,-2.667 -0.038,0.407 -0.1,0.79 -0.667,0.667 z m 7.333,-26 c -0.021,0.619 -0.625,-0.188 -1.333,-2 -1.229,-3.148 -2.468,-6.744 -8,-4.667 0.365,0.969 -0.779,3.446 0.667,3.334 9.159,3.231 4.694,8.231 7.333,20 -1.438,1.674 -4.12,2.103 -5.333,4 2.68,0.087 0.375,1.756 5.333,1.333 -0.036,-1.247 0.513,-1.411 1.333,-0.667 1.995,-7.592 -0.206,-15.362 0,-21.333 z m 198.667,0 c -1.642,-0.789 1.365,-2.519 -0.667,-3.333 -0.141,0.806 -0.739,0.409 -1.333,0 -1.028,2.416 3.653,4.535 2,3.333 z m -74.667,0 c -0.141,0.806 -0.739,0.41 -1.333,0 -0.912,2.896 -3.371,-0.667 -5.333,2 2.765,0.574 5.945,3.877 5.333,7.333 2.614,-1.426 0.483,5.19 2,2.667 -0.646,-4.429 0.543,-4.449 -2,-7.333 0.539,-1.239 0.862,-2.694 2,-3.334 -1.25,-0.159 0.378,-1.097 -0.667,-1.333 z m 63.334,24 c -3.264,-2.136 -6.14,-10.757 -2,-12.667 -2.461,-3.271 -0.267,-7.146 4,-8.666 1.809,1.148 3.756,2.954 4.666,0 -5.126,-1.443 -7.611,-2.248 -11.333,1.333 -0.404,10.5 -4.341,18.547 4.667,20 z M 238,249.908 c -3.33,6.819 -1.607,12.294 -2.667,19.333 0.142,-0.806 0.74,-0.41 1.334,0 -1.015,-4.647 5.71,-15.98 1.333,-19.333 z M 58,276.574 c -1.884,-3.448 -4.389,-6.277 -8,-8 -1.836,0.153 -3.392,1.089 -4.667,3.334 1.205,0.647 6.987,-0.587 7.333,0.666 -1.436,1.491 4.51,6.803 5.334,4 z m 173.333,-2.666 c 0.37,-0.002 0.757,0.54 0,0.666 -0.037,-0.406 -0.1,-0.789 -0.666,-0.666 0,0.444 0,0.889 0,1.333 0.037,0.406 0.1,0.789 0.666,0.667 1.174,0.059 2.645,-1.778 4,-3.334 -1.325,-0.451 0.659,-2.215 -0.666,-2.666 0.374,2.358 -2.032,1.885 -3.334,4 z M 38,272.574 c -1.161,0.051 -2.073,-0.148 -2.667,-0.666 -1.81,6.209 7.051,16.478 9.333,19.333 3.246,4.062 4.048,7.701 8,8 1.932,-1.767 -2.827,-4.493 -3.333,-6 -1.263,-3.756 -0.384,-9.626 -6.667,-8.667 0.429,-4.022 -6.669,-7.023 -4.666,-12 z m 66.667,28 c -2.502,-0.214 -1.831,2.525 -3.333,6 5.204,-6.09 7.283,-14.378 10.667,-23.333 2.342,-0.824 2.242,-4.095 5.333,-3.333 -4.821,-1.55 -10.406,-7.795 -13.333,-5.334 13.781,4.674 2.196,16.077 0,24 0.724,0.16 1.601,1.098 0.667,1.334 -0.261,-1.023 -0.801,-0.098 -0.001,0.666 z M 216,273.241 c -2.195,2.407 -9.386,6.86 -4.667,10 -0.403,-4.005 2.643,-4.356 4.667,-7.333 1.111,0 2.223,0 3.333,0 0.238,1.295 2.935,4.961 4,4.666 0.721,-1.434 -3.462,-6.559 -7.333,-7.333 z m 12.667,4.667 c -2.02,5.226 -1.859,8.8 -6.667,12.666 -1.249,-0.357 -3.596,0.682 -6,2 0.658,8.038 -2.666,7.528 -6.667,12.667 2.484,2.488 8.568,-4.07 8,-6.667 1.945,0.187 2.292,-0.16 1.334,-1.333 5.92,-2.712 5.754,-10.698 10,-12 -1.632,-4.081 3.924,-3.131 0,-7.333 z M 52,286.574 c 0.806,0.142 0.41,0.74 0,1.334 1.111,0 2.222,0 3.333,0 -0.684,-2.706 2.851,-2.183 4,-4.667 -1.871,0.285 1.671,-2.485 -0.667,-2.667 -0.141,0.806 -0.74,0.41 -1.333,0 -1.261,2.517 -2.704,4.852 -5.333,6 z m 159.333,11.334 c -0.427,-2.522 -2.795,-7.025 -2.666,-9.334 -0.667,0 -1.334,0 -2,0 0.551,3.875 2.403,5.872 1.333,8.667 2.094,-1.109 2.725,2.48 3.333,0.667 z m -136,-5.334 c -0.52,-0.146 -0.775,-0.558 -0.667,-1.333 -6.336,-1.614 -11.646,-0.431 -10.667,5.333 0.16,-1.25 1.098,0.379 1.333,-0.666 -1.148,-0.978 2.709,-2.586 3.333,-4 2.935,-0.615 5.355,3.77 6.668,0.666 z m -4,13.334 c 5.003,2.607 5.776,-3.192 8,-4 -0.831,-2.495 1.003,-6.172 -4,-8.667 2.769,2.997 0.087,14.062 -2.667,10.667 -0.159,0.951 -1.097,1.124 -1.333,2 z m 115.334,1.333 c 0.423,2.243 0.473,4.86 2,6 1.346,-4.938 1.571,-9.033 2,-12 2.579,0.738 2.371,-2.356 4,-0.667 -4.753,-4.53 -6.01,3.358 -8,6.667 z M 66,312.574 c -1.88,-5.674 -7.965,-7.557 -11.333,-13.333 -0.522,0.463 -1.483,3.72 0,4 2.869,0.921 8.124,8.753 11.333,9.333 z m 135.333,-7.333 c 4.124,-0.928 -0.704,-3.867 0,-6 -0.468,0.857 -3.832,-0.491 -4,0.667 1.975,0.849 5.339,2.077 4,5.333 z m -120,5.333 c 3.635,-1.979 4.48,-3.775 7.333,-5.333 0.187,-1.52 -0.161,-2.506 -1.333,-2.667 -2.535,2.834 -7.665,4.448 -6,8 z m 7.334,4.667 c 3.478,0.915 3.231,-3.536 5.333,-5.333 -0.748,-0.142 -1.038,-0.74 -1.333,-1.334 -2.029,-0.029 -2.592,1.408 -4,2 -0.227,2.068 1.543,3.186 0,4.667 z m 83.333,4 c 1.261,-0.149 1.471,0.751 2.667,0.667 0.335,-4.76 -1.402,-5.417 -2,-10 -0.667,0 -1.334,0 -2,0 0.377,2.891 0.138,4.955 2,5.333 -1.685,1.261 0.614,2.337 -0.667,4 z m 16.667,2 c 5.691,-2.596 13.39,-6.169 16.666,-11.333 -5.166,1.659 -7.907,3.888 -12,4 0.712,4.283 -5.361,5.282 -4.666,7.333 z m -79.334,-4.667 c 0.976,2.372 -2.143,3.995 -0.667,4.667 0.452,-1.326 2.215,0.659 2.667,-0.667 -0.005,-7.171 8.208,-3.554 13.333,-0.666 0.848,-0.789 0.283,-2.519 -0.667,-3.334 -3.162,1.146 -6.235,-3.53 -9.333,-4.666 -1.175,1.375 -2.064,0.583 -2.667,1.333 0.584,-0.012 -0.343,4.048 -2.666,3.333 z m -34.666,-0.666 c -3.476,-0.302 -3.46,-4.096 -8,-3.334 1.041,2.713 6.764,6.892 8,3.334 z m 58.666,4 c 2.305,0.082 3.142,-1.303 4.667,-2 1.38,-6.46 9.198,0.986 10,5.333 0.373,-1.506 1.04,0.809 2,-0.667 -1.23,-5.689 -4.989,-4.758 -6.667,-10 -5.296,0.004 -9.438,1.158 -10,7.334 z M 164,312.574 c -0.019,2.79 -0.717,8.586 2,8 -0.406,-0.037 -0.789,-0.1 -0.667,-0.666 1.421,-0.521 2.159,-3.115 1.334,-4.667 -1.937,1.437 -0.284,-2.459 -1.334,-2.667 -0.141,0.806 -0.739,0.41 -1.333,0 z m -6,11.334 c 1.9,-3.929 1.868,-7.805 1.333,-10.667 -1.741,-0.29 -2.1,8.602 -1.333,10.667 z m -59.333,-2 c 1.855,-2.402 0.812,-3.598 2.667,-6 -1.538,0.204 -0.741,-1.927 -2,-2 -0.295,2.178 -2.648,5.758 -0.667,8 z m -22,-1.334 c 2.461,1.713 5.219,4.076 7.333,2.667 0,0.667 0,1.333 0,2 4.831,-0.691 13.062,5.459 16.667,1.333 -10.767,1.781 -13.383,-8.71 -24,-6 z m 100.666,5.334 c -10.9,-0.716 -12.601,0.101 -19.333,5.333 4.462,1.348 8.199,-3.34 8,-0.667 0.047,-2.842 5.722,-0.056 6.667,-2 -1.37,-0.024 10.276,-3.246 6.666,-5.333 -0.337,1.956 -1.26,0.381 -2,2.667 z m -60,1.333 c -2.513,-0.209 -6.503,2.346 -9.333,2.667 -1.254,0.142 -3.905,-3.294 -3.333,0.666 7.957,1.912 9.093,2.086 20.667,3.334 0.196,-1.359 1.804,-1.308 2,-2.667 -4.457,0.796 -6.41,-3.701 -10.001,-4 z m 14.667,6 c 8.077,3.481 13.592,0.935 21.333,-0.667 0,-0.889 0,-1.777 0,-2.666 -7.304,6.399 -13.723,-4.592 -21.333,3.333 z m -92,6.667 c 4.08,-1.528 8.855,-3.84 12.667,-4.667 -1.25,-0.16 0.378,-1.098 -0.667,-1.333 -2.934,3.455 -9.709,0.66 -12,6 z m 84.667,-1.334 c 1.704,-0.074 2.333,-1.222 3.333,-2 -2.205,-1.001 -4.91,-0.78 -3.333,2 z m -71.334,6 c -0.964,0.138 -1.489,1.21 -4,1.334 0.843,3.948 -5.072,1.417 -2.667,5.333 0.141,-0.806 0.74,-0.41 1.333,0 -0.354,-3.928 5.697,-4.949 5.334,-6.667 z m 6.667,6 c 0.952,0.16 1.125,1.099 2,1.334 -0.493,-2.938 2.158,-2.731 2.667,-4.667 -3.299,-0.632 -2.225,3.109 -4.667,3.333 z"
   id="path4876"
   style="fill:#5b5600;fill-rule:evenodd" />
	<path
   clip-rule="evenodd"
   d="m 116,25.241 c 3.228,0.799 0.451,6.321 -0.667,10.667 -0.594,-0.41 -1.192,-0.806 -1.333,0 -1.702,-2.271 1.943,-6.919 2,-10.667 z"
   id="path4878"
   style="fill:#f8ed9b;fill-rule:evenodd" />
	<path
   clip-rule="evenodd"
   d="m 124.667,31.908 c 0.928,1.739 2.446,2.888 2,6 -1.445,0.113 -0.302,-2.364 -0.667,-3.333 -0.567,-0.123 -0.629,0.26 -0.667,0.667 0,-0.828 -1.659,-1.94 -0.666,-3.334 z"
   id="path4880"
   style="fill:#f8ed9b;fill-rule:evenodd" />
	<path
   clip-rule="evenodd"
   d="m 136.667,33.908 c 0.724,0.165 0.453,1.326 1.333,1.333 -0.952,1.492 -2.14,2.749 -3.333,4 -1.636,-1.741 4.204,-2.707 2,-5.333 z"
   id="path4882"
   style="fill:#f8ed9b;fill-rule:evenodd" />
	<path
   clip-rule="evenodd"
   d="m 140,43.241 c 0.891,0.665 1.31,1.802 2.667,2 -0.123,2.177 3.555,8.729 1.333,11.333 -2.687,0.113 -5.142,0.454 -6,0.667 0.057,-5.54 1.438,-8.71 2,-14 z"
   id="path4884"
   style="fill:#f8ed9b;fill-rule:evenodd" />
	<path
   clip-rule="evenodd"
   d="m 121.333,44.575 c 0.563,1.6 0.563,4.399 0,6 2.305,1.954 1.693,2.714 2,6.667 -8.18,4.71 -7.232,-7.727 -3.333,-12.667 0.593,0.409 1.192,0.805 1.333,0 z"
   id="path4886"
   style="fill:#f8ed9b;fill-rule:evenodd" />
	<path
   clip-rule="evenodd"
   d="m 128,79.908 c 1.251,-1.271 -0.396,-1.206 0,-3.333 6.698,3.157 18.499,-1.621 26,2 0.763,-0.773 5.104,-1.721 4,1.333 -17.188,0.312 -11.8,1.634 -30,0 z"
   id="path4888"
   style="fill:#f8ed9b;fill-rule:evenodd" />
	<path
   clip-rule="evenodd"
   d="m 161.333,78.575 c 10.453,-0.814 24.936,3.793 30,11.333 -4.184,-0.004 -5.283,-6.486 -14,-4.667 -3.712,-1.299 -5.491,-4.424 -8.666,-5.333 -2.401,-0.688 -6.628,2.274 -7.334,-1.333 z"
   id="path4890"
   style="fill:#f8ed9b;fill-rule:evenodd" />
	<path
   clip-rule="evenodd"
   d="m 102.667,88.575 c 0.757,0.126 0.37,0.668 0,0.667 0.622,3.732 0.472,4.3 0.667,8.667 -3.075,-3.313 -0.949,-3.744 -2,-8.667 0.774,0.108 1.186,-0.148 1.333,-0.667 z"
   id="path4892"
   style="fill:#f8ed9b;fill-rule:evenodd" />
	<path
   clip-rule="evenodd"
   d="m 168,89.241 c 0.235,-1.045 1.174,0.583 1.333,-0.667 1.473,2.105 -1.103,4.577 0,7.333 -3.699,0.003 -0.124,-3.123 -2.666,-4 -0.191,-1.175 3.139,-2.063 1.333,-2.666 z"
   id="path4894"
   style="fill:#f8ed9b;fill-rule:evenodd" />
	<path
   clip-rule="evenodd"
   d="m 144.667,97.908 c -0.196,2.323 -1.804,-0.056 -2,1.333 -0.403,-2.865 -0.955,-5.808 -0.667,-7.333 0.936,-4.963 2.111,2.604 2.667,6 z"
   id="path4896"
   style="fill:#f8ed9b;fill-rule:evenodd" />
	<path
   clip-rule="evenodd"
   d="m 176,89.908 c 0.837,2.536 1.047,8.297 -0.667,10 -0.014,-2.613 -1.15,-7.347 0.667,-10 z"
   id="path4898"
   style="fill:#f8ed9b;fill-rule:evenodd" />
	<path
   clip-rule="evenodd"
   d="m 182.667,91.908 c 0.235,-1.045 1.173,0.584 1.333,-0.667 2.945,3.575 0.991,3.542 0.667,8.667 -2.165,-0.924 -2.169,1.858 -3.334,4.667 -3.004,-4.582 4.422,-10.131 1.334,-12.667 z"
   id="path4900"
   style="fill:#f8ed9b;fill-rule:evenodd" />
	<path
   clip-rule="evenodd"
   d="m 210,101.908 c -0.11,3.148 3.024,3.789 2.667,5.333 -1.334,1.073 -3.73,-2.463 -5.334,-3.333 0.003,2.01 -3.969,0.174 -5.333,-2.667 -0.595,0.106 0.539,4.864 -2,2.667 0.955,0.976 0.511,2.113 -1.333,2 -0.061,1.819 1.11,1.342 0,2.667 0.444,0 0.889,0 1.333,0 1.385,-0.171 0.182,-2.929 1.333,-3.333 1.111,0 2.223,0 3.334,0 -0.341,1.882 -1.613,2.832 -2,4.667 -1.395,-1.184 -2.506,0.524 -3.334,-0.667 -1.374,0.357 -0.159,3.154 -2,1.333 1.854,6.35 8.163,2.822 13.334,0 1.772,3.262 -3.47,5.417 -4,6.667 -9.693,0.294 -10.876,-7.405 -16,-9.333 2.806,-3.65 2.098,-9.297 4.666,-12.667 -0.1,-1.233 -2.257,-0.409 -2.666,-1.333 -0.282,-1.393 0.457,-1.765 0.666,-2.667 8.515,2.812 9.844,6.342 16.667,10.666 z"
   id="path4902"
   style="fill:#f8ed9b;fill-rule:evenodd" />
	<path
   clip-rule="evenodd"
   d="m 212,91.241 c 0.736,0.603 0.462,1.491 0,2.667 -0.594,-0.41 -1.192,-0.806 -1.333,0 -0.961,-0.151 -0.232,-1.99 -1.334,-2 0.182,-2.338 2.952,1.204 2.667,-0.667 z"
   id="path4904"
   style="fill:#f8ed9b;fill-rule:evenodd" />
	<path
   clip-rule="evenodd"
   d="m 57.333,93.241 c 0.689,-3.503 2.644,1.86 3.333,0 0.567,-0.123 0.629,0.26 0.667,0.667 0,0.445 0,0.889 0,1.333 -1.954,-0.046 -1.46,-2.539 -4,-2 z"
   id="path4906"
   style="fill:#f8ed9b;fill-rule:evenodd" />
	<path
   clip-rule="evenodd"
   d="m 69.333,105.241 c -7.156,-0.584 -6.918,4.562 -9.333,7.333 -2.206,-2.957 2.532,-6.305 4.667,-8.667 3.486,-3.856 7.713,-10.487 12.667,-9.333 -5.875,3.066 -11.609,10.535 -3.333,14 -0.41,0.593 -0.806,1.192 0,1.333 -1.513,0.19 -5.502,-1.822 -4.668,-4.666 z"
   id="path4908"
   style="fill:#f8ed9b;fill-rule:evenodd" />
	<path
   clip-rule="evenodd"
   d="m 252.667,94.575 c 0.96,1.475 1.626,-0.839 2,0.667 0.678,-0.24 -3.131,1.573 -4.667,1.333 -0.285,-1.842 2.485,-0.626 2.667,-2 z"
   id="path4910"
   style="fill:#f8ed9b;fill-rule:evenodd" />
	<path
   clip-rule="evenodd"
   d="m 15.333,97.241 c -1.425,-2.366 4.577,-2.127 6,-0.667 0.567,0.123 0.629,-0.26 0.667,-0.667 0.15,2.377 -5.156,0.011 -6.667,1.334 z"
   id="path4912"
   style="fill:#f8ed9b;fill-rule:evenodd" />
	<path
   clip-rule="evenodd"
   d="m 20.667,100.575 c -1.729,1.599 -5.2,4.937 -8,2.667 3.329,-1.402 5.688,-2.568 8,-2.667 z"
   id="path4914"
   style="fill:#f8ed9b;fill-rule:evenodd" />
	<path
   clip-rule="evenodd"
   d="m 134.667,124.575 c -2.951,-3.792 -0.916,-9.871 -2,-18 -4.273,-8.01 -12.719,-1.667 -21.333,-0.667 1.229,-4.418 9.692,-2.432 16,-6 2.523,2.144 5.223,4.11 10.667,3.333 -0.41,0.593 -0.806,1.192 0,1.333 -3.557,3.529 -2.615,16.17 -3.334,20.001 z"
   id="path4916"
   style="fill:#f8ed9b;fill-rule:evenodd" />
	<path
   clip-rule="evenodd"
   d="m 139.333,103.241 c 0.127,-2.106 4.925,-1.546 6,-0.667 -0.426,0.645 -3.196,0.671 -6,0.667 z"
   id="path4918"
   style="fill:#f8ed9b;fill-rule:evenodd" />
	<path
   clip-rule="evenodd"
   d="m 110.667,136.575 c 3.125,3.84 2.249,6.6 4.667,11.333 7.993,0.875 9.387,3.159 17.333,-1.333 0.373,-9.965 0.435,-13.577 2,-18 1.791,6.684 -1.914,12.708 1.333,20 6.973,-1.201 13.543,0.53 18.667,-4.667 -0.127,-0.756 -0.669,-0.37 -0.667,0 1.691,-11.043 6.337,-25.513 8,-37.333 -4.676,0.009 -8.545,-0.789 -12,-2 3.908,-0.255 11.658,-0.272 17.333,1.333 -0.409,0.594 -0.806,1.192 0,1.333 -9.588,9.281 -7.173,28.709 -13.333,39.333 8.208,3.524 16.357,9.306 20.667,13.333 3.629,3.393 8.201,7.606 13.333,4.667 0.969,0.295 -0.067,0.585 0,1.333 6.207,-2.089 14.438,-4.738 22.667,-0.667 -0.136,0.849 -1.938,3.266 -0.667,3.333 -4.643,0.424 -12.172,-8.785 -16.667,0 -4.174,0.282 -11.269,1.16 -14,0.667 -1.749,2.934 -4.866,5.706 -4,9.333 -0.666,0 -1.333,0 -2,0 0.223,1.258 1.618,2.955 -1.333,2.667 1.642,0.789 -1.365,2.519 0.667,3.333 -4.8,7.612 -9.56,12.754 -5.334,20.667 2.751,5.15 8.97,9.644 8.667,16.667 -1.503,-1.89 -2.573,-1.935 -4.667,-4 -2.431,-2.398 -3.711,-9.705 -5.333,-12 -0.615,-0.87 -1.782,-3.125 -1.333,-2.667 -6.813,-6.965 -14.168,1.384 -24,-6.667 6.66,1.521 13.606,3.493 21.333,2.667 2.172,-2.664 4.884,-9.062 6.667,-13.333 1.078,-2.583 0.922,-3.414 2,-6.667 0.797,-2.405 3.488,-3.013 4.666,-5.333 0.862,-1.696 2.596,-8.595 2.667,-8 -0.345,-2.86 -4.417,-4.701 -4,-6 -0.594,0.41 -1.192,0.806 -1.333,0 -0.152,1.669 -4.344,3.156 -8.667,2.667 0.959,-15.686 -19.329,-15.538 -27.333,-12 -2.802,1.238 -2.709,3.04 -2.667,5.333 0.146,7.943 -1.264,16.36 -1.333,26.667 2.959,5.282 -1.229,9.063 2.667,16 -0.54,-0.126 -0.665,-0.669 -1.333,-0.666 -0.057,7.855 -2.167,20.263 -1.333,38.666 4.789,5.799 15.468,3.976 24.667,6.667 -3.43,2.047 -19.273,-2.378 -22.667,-1.333 -3.797,2.883 -0.385,17.25 -4,19.333 0.797,6.5 0.386,12.723 0,18.667 1.478,2.196 1.685,-0.132 2,2.666 10.081,-1.574 20.836,-5.009 32.667,-7.333 5.504,-5.145 -1.469,-14.275 0.667,-18.667 2.217,-0.819 1.631,4.507 0.667,4.667 0.107,0.781 1.215,0.562 2,0.667 -0.828,12.787 12.431,9.396 17.333,14.666 -1.367,5.343 3.001,6.061 3.333,11.334 -1.605,0.272 -1.449,-1.218 -3.333,-0.667 -1.097,-11.896 -16.105,-15.392 -24,-8.667 -0.969,-0.295 0.067,-0.585 0,-1.333 -15.494,5.255 -5.374,18.736 -4,30 -6.67,-7.186 -4.166,-19.664 -10,-25.333 -3.547,0.187 -7.794,1.327 -14,2 -0.757,0.126 -0.37,0.668 0,0.666 -4.323,2.936 -3.337,8.276 -4,14 -1.469,12.681 4.034,19.373 -0.667,32 -1.767,-13.216 -1.299,-25.206 0.667,-36.666 -1.753,-3.001 -0.57,-12.504 -11.333,-12.667 3.609,-1.361 6.107,0.549 8.667,1.333 1.68,-1.147 2.903,-6.132 0.667,-8 1.877,-3.947 2.096,-10.314 2.667,-15.333 0.774,-6.806 -0.848,-11.6 -0.667,-16 -0.357,-1.374 -3.154,-0.159 -1.333,-2 -2.58,-0.445 -2.372,-0.002 -4,-0.667 1.692,-2.097 2.991,-0.062 5.333,-2.666 1.037,-12.856 1.066,-27.693 1.333,-36 0.077,-2.382 -1.994,-3.269 -4,-4.667 -1.623,1.555 -23.813,2.213 -29.333,6 3.742,-2.769 4.56,-7.241 2.667,-12.667 0.794,-2.423 0.72,4.91 2,2 0.99,0.291 -0.263,0.853 0,2 7.271,6.82 12.587,0.533 26.667,2 1.725,-1.666 2.379,-10.701 2.667,-15.333 0.032,-0.52 -1.336,-1.309 -1.333,-1.333 0.085,-0.708 3.03,-2.646 0,-2.667 2.38,-9.175 -1.963,-15.352 2,-24.667 -0.357,-1.375 -3.154,-0.159 -1.333,-2 -8.441,0.833 -20.927,-5.489 -24,4.667 -0.293,0.97 -0.587,-0.068 -1.333,0 -0.054,13.26 -7.448,6.826 -12.667,11.333 -0.067,7.186 6.746,13.765 6.667,23.333 -3.783,-4.114 -6.282,-11.459 -6,-14.667 -0.107,-0.781 -1.215,-0.562 -2,-0.667 -0.561,-9.094 -9.138,-6.045 -14,-10.667 0.414,2.077 -2.62,0.502 -1.333,-1.333 -5.363,-2.329 -9.498,0.775 -12,2.667 -2.235,-0.209 -0.672,-4.217 -2.667,-4.667 10.435,-6.616 23.117,9.051 32.667,1.333 1.904,-1.539 3.871,-6.396 8,-9.333 3.164,-2.25 8.764,-3.118 10,-6.667 1.176,-3.389 -3.021,-6.185 -2.005,-9.331 z"
   id="path4920"
   style="fill:#f8ed9b;fill-rule:evenodd" />
	<path
   clip-rule="evenodd"
   d="m 88.667,212.574 c 0.393,-4.579 4.527,-6.51 6,-8.666 0.151,-0.961 1.99,-0.232 2,-1.334 2.605,-0.021 0.119,3.354 1.333,3.334 -3.875,0.553 -1.894,4.349 -4.667,6.666 -0.84,0.702 -3.005,0.771 -3.333,1.334 -0.761,1.304 -1.715,1.288 -3.333,3.333 -1.215,1.535 -0.678,5.008 2,8 0.862,0.963 1.182,0.404 1.333,0.667 2.068,3.587 5.543,4.488 6.667,8 0.238,0.743 0.518,4.063 0.667,6 -1.628,-1.297 -3.396,-4.262 -3.333,-6.667 -0.667,0 -1.333,0 -2,0 -4.946,-19.268 -28.449,-9.442 -43.333,-2.667 6.014,-7.292 14.117,-9.272 21.333,-10 3.313,-0.334 5.771,-0.83 8.667,-1.333 0.364,-0.063 1.527,1.256 1.333,1.333 4.853,-1.95 5.462,-7.231 8.666,-8 z"
   id="path4922"
   style="fill:#f8ed9b;fill-rule:evenodd" />
	<path
   clip-rule="evenodd"
   d="m 124.667,240.574 c -9.379,1.829 -18.756,3.193 -26.667,6.667 -2.214,3.92 -2.223,13.016 -3.333,13.333 0.422,-0.12 -2.404,0.998 -2.667,3.334 -0.244,2.174 0.392,4.453 1.333,7.333 2.964,0.078 5.03,0.462 7.333,1.333 -4.743,-0.599 -17.521,1.104 -23.333,6 0.751,1.238 -1.282,4.147 -4,4 2.42,-4.927 6.088,-8.176 5.333,-12 10.995,-2.362 16.447,-15.603 17.333,-22.666 0.107,-0.781 1.215,-0.562 2,-0.667 0.01,-1.754 -0.37,-4.43 1.333,-2.667 -0.731,-0.665 -2.502,-3.635 -0.667,-4.666 1.836,0.234 0.771,1.996 2.667,3.333 9.178,-2.431 14.306,-3.048 23.333,-4 -0.408,0.594 -0.804,1.193 0.002,1.333 z"
   id="path4924"
   style="fill:#f8ed9b;fill-rule:evenodd" />
	<path
   clip-rule="evenodd"
   d="m 178,224.574 c -0.989,-0.363 -1.037,-0.412 -2,-2 2.476,-1.478 3.533,0.957 6.667,1.334 5.265,0.633 11.402,-1.313 16.666,0.666 -13.647,2.025 -20.319,-4.09 -24,10 -3.304,0.584 -11.835,10.82 -8,6 2.379,-9.306 7.623,-7.659 10.667,-16 z"
   id="path4926"
   style="fill:#f8ed9b;fill-rule:evenodd" />
	<path
   clip-rule="evenodd"
   d="m 18,108.575 c 1.149,-2.029 3.518,-3.867 4.667,-4 1.139,1.4 -3.491,2.702 -4.667,4 z"
   id="path4928"
   style="fill:#f8ed9b;fill-rule:evenodd" />
	<path
   clip-rule="evenodd"
   d="m 94.667,109.241 c -8.75,2.504 -20.541,8.947 -20,21.333 -4.175,-2.8 0.816,-4.405 0,-11.333 2.659,-2.41 7.402,-4.212 7.333,-6.667 4.978,-1.874 9.112,-4.388 12.667,-3.333 z"
   id="path4930"
   style="fill:#f8ed9b;fill-rule:evenodd" />
	<path
   clip-rule="evenodd"
   d="m 104,119.908 c 1.192,-2.199 -3.452,-13.792 -8.667,-9.333 -0.757,-0.127 -0.37,-0.669 0,-0.667 0.123,-0.567 -0.26,-0.629 -0.667,-0.667 3.397,-2.096 7.72,-3.964 11.333,-4 -5.199,7.117 2.478,12.951 4,23.333 -4.459,-1.358 0.116,-5.357 -5.999,-8.666 z"
   id="path4932"
   style="fill:#f8ed9b;fill-rule:evenodd" />
	<path
   clip-rule="evenodd"
   d="m 174.667,110.575 c 3.61,0.398 13.537,0.233 18,2 1.558,3.87 -0.064,4.322 2.666,6.667 -2.293,0.717 -4.592,-4.281 -6.666,-6 -4.279,-1.278 -9.889,-1.223 -14,-2.667 z"
   id="path4934"
   style="fill:#f8ed9b;fill-rule:evenodd" />
	<path
   clip-rule="evenodd"
   d="m 214.667,114.575 c 0.235,-0.875 1.173,-1.049 1.333,-2 1.955,2.314 3.506,4.271 4.667,8.667 -2.5,-1.698 -2.237,-5.025 -6,-6.667 z"
   id="path4936"
   style="fill:#f8ed9b;fill-rule:evenodd" />
	<path
   clip-rule="evenodd"
   d="m 212.667,121.908 c -1.495,9.632 0.031,14.128 8,18 -7.272,2.265 -12.931,-13.102 -8,-18 z"
   id="path4938"
   style="fill:#f8ed9b;fill-rule:evenodd" />
	<path
   clip-rule="evenodd"
   d="m 220.667,131.908 c 0.235,-4.205 0.577,-5.324 0,-9.333 4.457,4.013 4.806,12.28 6,14.667 -2.366,-0.652 -1.757,-4.038 -6,-5.334 z"
   id="path4940"
   style="fill:#f8ed9b;fill-rule:evenodd" />
	<path
   clip-rule="evenodd"
   d="m 45.333,143.241 c -1.383,8.823 1.031,13.466 -5.333,21.333 -0.593,-0.41 -1.192,-0.806 -1.333,0 -2.018,-2.433 2.013,-3.535 1.333,-9.333 2.447,0.654 2.423,-5.852 2.667,-7.333 2.241,-0.203 1.828,-3.061 2.666,-4.667 z"
   id="path4942"
   style="fill:#f8ed9b;fill-rule:evenodd" />
	<path
   clip-rule="evenodd"
   d="m 52.667,148.575 c -0.182,2.945 -0.936,5.612 -1.333,8 -0.236,1.045 -1.174,-0.584 -1.333,0.667 -1.625,-0.197 1.088,-8.587 -2.667,-8.667 0.964,-2.176 1.489,-1.678 4,-1.333 -1.235,2.244 0.171,0.077 1.333,1.333 z"
   id="path4944"
   style="fill:#f8ed9b;fill-rule:evenodd" />
	<path
   clip-rule="evenodd"
   d="m 224,148.575 c -4.261,5.588 -3.27,16.709 4.667,18.667 -3.934,3.688 -6.799,-6.217 -7.334,-5.333 -0.819,-4.618 -2.775,-12.405 2.667,-13.334 z"
   id="path4946"
   style="fill:#f8ed9b;fill-rule:evenodd" />
	<path
   clip-rule="evenodd"
   d="m 229.333,149.241 c 3.686,2.004 2.817,12 4.667,18 -4.26,-3.599 -7.173,-12.69 -4.667,-18 z"
   id="path4948"
   style="fill:#f8ed9b;fill-rule:evenodd" />
	<path
   clip-rule="evenodd"
   d="m 36,169.241 c 0.161,-1.173 1.147,-1.52 2.667,-1.333 -2.478,1.814 -1.867,3.377 -3.333,5.333 -1.326,-0.451 0.659,-2.215 -0.667,-2.667 -0.191,-0.75 3.139,0.043 1.333,-1.333 z"
   id="path4950"
   style="fill:#f8ed9b;fill-rule:evenodd" />
	<path
   clip-rule="evenodd"
   d="m 61.333,169.908 c 1.144,4.643 -1.485,8.629 -2,11.333 -1.597,8.379 -2.167,16.423 -5.333,25.333 -0.667,0 -1.333,0 -2,0 2.246,3.386 -2.393,2.639 -4.667,2 0.838,-2.431 0.53,-5.608 3.333,-8 2.587,-2.206 5.471,-17.934 6,-19.333 1.963,-5.186 1.801,-8.376 4.667,-11.333 z"
   id="path4952"
   style="fill:#f8ed9b;fill-rule:evenodd" />
	<path
   clip-rule="evenodd"
   d="m 42.667,172.575 c 3.269,1.983 2.031,15.853 -0.667,17.333 -2.061,1.757 -3.322,0.193 -4.667,2.667 -1.953,-2.65 2.359,-4.73 4.667,-5.333 -2.225,-4.358 4.33,-10.174 -2,-14 0.181,-2.338 2.952,1.203 2.667,-0.667 z"
   id="path4954"
   style="fill:#f8ed9b;fill-rule:evenodd" />
	<path
   clip-rule="evenodd"
   d="m 33.333,174.575 c 0.235,-1.045 1.173,0.583 1.333,-0.667 -0.301,4.074 2.767,11.031 -2.667,14 -0.234,4.969 -2.298,5.018 -2,8 -3.339,-3.289 2.125,-10.199 0,-12.667 2.43,-2.932 4.82,-6.796 3.334,-8.666 z"
   id="path4956"
   style="fill:#f8ed9b;fill-rule:evenodd" />
	<path
   clip-rule="evenodd"
   d="m 209.333,190.575 c 1.277,-0.664 2.238,3.684 2.667,4.667 1.71,3.916 5.246,7.861 3.333,12.667 -7.53,-2.075 -4.49,-11.496 -6,-17.334 z"
   id="path4958"
   style="fill:#f8ed9b;fill-rule:evenodd" />
	<path
   clip-rule="evenodd"
   d="m 30,199.908 c -2.755,5.762 -2.67,14.851 -0.667,19.333 -4.171,1.853 0.891,11.679 -4,11.333 0.464,-7.239 0.08,-13.956 1.333,-21.333 0.423,-2.49 -1.676,-9.108 4,-10.667 -0.41,0.594 -0.806,1.192 0,1.334 -0.126,0.757 -0.668,0.37 -0.666,0 z"
   id="path4960"
   style="fill:#f8ed9b;fill-rule:evenodd" />
	<path
   clip-rule="evenodd"
   d="m 230,212.574 c -0.107,-0.781 -1.216,-0.562 -2,-0.666 1.534,-2.503 3.896,-4.52 7.333,-3.334 -2.307,1.027 -3.777,2.89 -5.333,4.667 -0.757,-0.127 -0.37,-0.669 0,-0.667 z"
   id="path4962"
   style="fill:#f8ed9b;fill-rule:evenodd" />
	<path
   clip-rule="evenodd"
   d="m 240,211.908 c 3.031,1.573 0.896,11.169 1.333,16.666 -2.657,-1.371 -0.127,-5.026 -3.333,-7.333 0.441,-2.21 1.928,-2.892 0.667,-4 0.295,-0.969 0.585,0.067 1.333,0 -1.193,-2.358 0.915,-4.148 0,-5.333 z"
   id="path4964"
   style="fill:#f8ed9b;fill-rule:evenodd" />
	<path
   clip-rule="evenodd"
   d="m 226.667,227.908 c 1.326,-3.284 -1.052,-5.383 1.333,-8.667 0.802,1.249 0.802,3.418 0,4.667 2.014,4.201 6.87,4.072 7.333,7.333 -2.116,1.956 -4.985,-2.894 -8.666,-3.333 z"
   id="path4966"
   style="fill:#f8ed9b;fill-rule:evenodd" />
	<path
   clip-rule="evenodd"
   d="m 208.667,226.574 c -0.047,2.912 -2.55,-1.818 -6,-1.333 2.106,-2.727 4.628,1.459 7.333,0 1.088,3.457 3.634,2.463 6,5.333 -1.61,2.551 -5.273,-2.731 -7.333,-4 z"
   id="path4968"
   style="fill:#f8ed9b;fill-rule:evenodd" />
	<path
   clip-rule="evenodd"
   d="m 34.667,268.574 c 0.663,0.509 1.145,3.16 -2,2.667 -4.63,-7.103 -5.728,-26.002 -7.333,-35.333 0.921,-1.079 2.359,-1.642 2,-4 0.593,0.409 1.192,0.806 1.333,0 0.577,5.462 -1.57,9.04 1.333,16.666 5.92,2.596 -0.489,17.066 4,20.667 0.567,0.123 0.629,-0.26 0.667,-0.667 z"
   id="path4970"
   style="fill:#f8ed9b;fill-rule:evenodd" />
	<path
   clip-rule="evenodd"
   d="m 41.333,264.574 c -0.82,-0.744 -1.369,-0.58 -1.333,0.667 -4.959,0.423 -2.653,-1.246 -5.333,-1.333 1.214,-1.897 3.896,-2.326 5.333,-4 -2.639,-11.769 1.825,-16.769 -7.333,-20 -1.445,0.112 -0.302,-2.365 -0.667,-3.334 5.532,-2.077 6.771,1.519 8,4.667 0.708,1.812 1.312,2.619 1.333,2 -0.206,5.971 1.995,13.741 0,21.333 z"
   id="path4972"
   style="fill:#f8ed9b;fill-rule:evenodd" />
	<path
   clip-rule="evenodd"
   d="m 238,239.908 c 0.594,0.409 1.192,0.806 1.333,0 2.032,0.814 -0.975,2.544 0.667,3.333 1.653,1.202 -3.028,-0.917 -2,-3.333 z"
   id="path4974"
   style="fill:#f8ed9b;fill-rule:evenodd" />
	<path
   clip-rule="evenodd"
   d="m 166,244.574 c -1.138,0.64 -1.461,2.095 -2,3.334 2.543,2.884 1.354,2.904 2,7.333 -1.517,2.523 0.614,-4.093 -2,-2.667 0.612,-3.456 -2.568,-6.759 -5.333,-7.333 1.962,-2.667 4.421,0.896 5.333,-2 0.594,0.41 1.192,0.806 1.333,0 1.045,0.236 -0.583,1.174 0.667,1.333 z"
   id="path4976"
   style="fill:#f8ed9b;fill-rule:evenodd" />
	<path
   clip-rule="evenodd"
   d="m 224,247.241 c 3.722,-3.581 6.207,-2.776 11.333,-1.333 -0.91,2.954 -2.857,1.148 -4.666,0 -4.267,1.52 -6.461,5.395 -4,8.666 -4.14,1.91 -1.264,10.531 2,12.667 -9.008,-1.453 -5.071,-9.5 -4.667,-20 z"
   id="path4978"
   style="fill:#f8ed9b;fill-rule:evenodd" />
	<path
   clip-rule="evenodd"
   d="m 236.667,269.241 c -0.594,-0.41 -1.192,-0.806 -1.334,0 1.06,-7.039 -0.663,-12.514 2.667,-19.333 4.377,3.353 -2.348,14.686 -1.333,19.333 z"
   id="path4980"
   style="fill:#f8ed9b;fill-rule:evenodd" />
	<path
   clip-rule="evenodd"
   d="m 234.667,269.908 c 1.325,0.451 -0.659,2.215 0.666,2.666 -1.355,1.556 -2.826,3.393 -4,3.334 -0.566,0.122 -0.629,-0.261 -0.666,-0.667 0,-0.444 0,-0.889 0,-1.333 0.566,-0.123 0.629,0.26 0.666,0.666 0.757,-0.126 0.37,-0.668 0,-0.666 1.302,-2.115 3.708,-1.642 3.334,-4 z"
   id="path4982"
   style="fill:#f8ed9b;fill-rule:evenodd" />
	<path
   clip-rule="evenodd"
   d="m 42.667,284.574 c 6.283,-0.959 5.404,4.911 6.667,8.667 0.506,1.507 5.265,4.233 3.333,6 -3.952,-0.299 -4.754,-3.938 -8,-8 -2.282,-2.855 -11.143,-13.124 -9.333,-19.333 0.593,0.518 1.505,0.717 2.667,0.666 -2.004,4.977 5.094,7.978 4.666,12 z"
   id="path4984"
   style="fill:#f8ed9b;fill-rule:evenodd" />
	<path
   clip-rule="evenodd"
   d="m 104.667,299.908 c 0.934,-0.236 0.058,-1.174 -0.667,-1.334 2.196,-7.923 13.781,-19.326 0,-24 2.928,-2.461 8.513,3.784 13.333,5.334 -3.091,-0.762 -2.991,2.509 -5.333,3.333 -3.384,8.955 -5.462,17.243 -10.667,23.333 1.502,-3.475 0.831,-6.214 3.333,-6 -0.799,-0.764 -0.259,-1.689 0.001,-0.666 z"
   id="path4986"
   style="fill:#f8ed9b;fill-rule:evenodd" />
	<path
   clip-rule="evenodd"
   d="m 223.333,280.574 c -1.065,0.295 -3.762,-3.371 -4,-4.666 -1.11,0 -2.222,0 -3.333,0 -2.024,2.977 -5.07,3.328 -4.667,7.333 -4.719,-3.14 2.472,-7.593 4.667,-10 3.871,0.774 8.054,5.899 7.333,7.333 z"
   id="path4988"
   style="fill:#f8ed9b;fill-rule:evenodd" />
	<path
   clip-rule="evenodd"
   d="m 228.667,285.241 c -4.246,1.302 -4.08,9.288 -10,12 0.958,1.173 0.611,1.52 -1.334,1.333 0.568,2.597 -5.516,9.155 -8,6.667 4.001,-5.139 7.325,-4.629 6.667,-12.667 2.404,-1.318 4.751,-2.357 6,-2 4.808,-3.866 4.647,-7.44 6.667,-12.666 3.924,4.202 -1.632,3.252 0,7.333 z"
   id="path4990"
   style="fill:#f8ed9b;fill-rule:evenodd" />
	<path
   clip-rule="evenodd"
   d="m 208,297.241 c 1.07,-2.795 -0.782,-4.792 -1.333,-8.667 0.666,0 1.333,0 2,0 -0.129,2.309 2.239,6.812 2.666,9.334 -0.608,1.813 -1.239,-1.776 -3.333,-0.667 z"
   id="path4992"
   style="fill:#f8ed9b;fill-rule:evenodd" />
	<path
   clip-rule="evenodd"
   d="m 68.667,291.908 c -0.624,1.414 -4.481,3.022 -3.333,4 -0.236,1.045 -1.174,-0.584 -1.333,0.666 -0.979,-5.764 4.331,-6.947 10.667,-5.333 -0.108,0.775 0.147,1.187 0.667,1.333 -1.315,3.104 -3.735,-1.281 -6.668,-0.666 z"
   id="path4994"
   style="fill:#f8ed9b;fill-rule:evenodd" />
	<path
   clip-rule="evenodd"
   d="m 72.667,303.908 c 2.754,3.396 5.436,-7.67 2.667,-10.667 5.003,2.495 3.169,6.172 4,8.667 -2.224,0.808 -2.997,6.607 -8,4 0.235,-0.876 1.173,-1.049 1.333,-2 z"
   id="path4996"
   style="fill:#f8ed9b;fill-rule:evenodd" />
	<path
   clip-rule="evenodd"
   d="m 54.667,303.241 c -1.483,-0.28 -0.522,-3.537 0,-4 3.369,5.776 9.453,7.659 11.333,13.333 -3.209,-0.58 -8.464,-8.412 -11.333,-9.333 z"
   id="path4998"
   style="fill:#f8ed9b;fill-rule:evenodd" />
	<path
   clip-rule="evenodd"
   d="m 197.333,299.908 c 0.168,-1.158 3.532,0.19 4,-0.667 -0.704,2.133 4.124,5.072 0,6 1.339,-3.256 -2.025,-4.484 -4,-5.333 z"
   id="path5000"
   style="fill:#f8ed9b;fill-rule:evenodd" />
	<path
   clip-rule="evenodd"
   d="m 88.667,310.574 c 1.408,-0.592 1.971,-2.029 4,-2 0.295,0.594 0.585,1.192 1.333,1.334 -2.102,1.797 -1.856,6.248 -5.333,5.333 1.543,-1.481 -0.227,-2.599 0,-4.667 z"
   id="path5002"
   style="fill:#f8ed9b;fill-rule:evenodd" />
	<path
   clip-rule="evenodd"
   d="m 193.333,313.908 c 4.093,-0.112 6.834,-2.341 12,-4 -3.276,5.164 -10.975,8.737 -16.666,11.333 -0.695,-2.051 5.378,-3.05 4.666,-7.333 z"
   id="path5004"
   style="fill:#f8ed9b;fill-rule:evenodd" />
	<path
   clip-rule="evenodd"
   d="m 112,313.241 c 0.603,-0.75 1.491,0.042 2.667,-1.333 3.099,1.136 6.171,5.812 9.333,4.666 0.949,0.815 1.515,2.545 0.667,3.334 -5.125,-2.888 -13.338,-6.505 -13.333,0.666 -0.452,1.326 -2.215,-0.659 -2.667,0.667 -1.476,-0.672 1.643,-2.295 0.667,-4.667 2.322,0.715 3.249,-3.345 2.666,-3.333 z"
   id="path5006"
   style="fill:#f8ed9b;fill-rule:evenodd" />
	<path
   clip-rule="evenodd"
   d="m 165.333,312.574 c 1.05,0.208 -0.603,4.104 1.334,2.667 0.825,1.552 0.087,4.146 -1.334,4.667 -0.122,0.566 0.261,0.629 0.667,0.666 -2.717,0.586 -2.019,-5.21 -2,-8 0.594,0.41 1.192,0.806 1.333,0 z"
   id="path5008"
   style="fill:#f8ed9b;fill-rule:evenodd" />
	<path
   clip-rule="evenodd"
   d="m 159.333,313.241 c 0.535,2.862 0.567,6.738 -1.333,10.667 -0.767,-2.065 -0.408,-10.957 1.333,-10.667 z"
   id="path5010"
   style="fill:#f8ed9b;fill-rule:evenodd" />
	<path
   clip-rule="evenodd"
   d="M 100.667,326.574 C 97.062,330.7 88.831,324.55 84,325.241 c 0,-0.667 0,-1.333 0,-2 -2.115,1.409 -4.873,-0.954 -7.333,-2.667 10.617,-2.71 13.233,7.781 24,6 z"
   id="path5012"
   style="fill:#f8ed9b;fill-rule:evenodd" />
	<path
   clip-rule="evenodd"
   d="m 179.333,323.241 c 3.61,2.087 -8.036,5.309 -6.666,5.333 -0.945,1.944 -6.62,-0.842 -6.667,2 0.199,-2.673 -3.538,2.015 -8,0.667 6.732,-5.232 8.433,-6.049 19.333,-5.333 0.74,-2.286 1.663,-0.711 2,-2.667 z"
   id="path5014"
   style="fill:#f8ed9b;fill-rule:evenodd" />
	<path
   clip-rule="evenodd"
   d="m 127.333,331.241 c -0.196,1.359 -1.804,1.308 -2,2.667 -11.574,-1.248 -12.71,-1.422 -20.667,-3.334 -0.572,-3.96 2.08,-0.524 3.333,-0.666 2.83,-0.321 6.82,-2.876 9.333,-2.667 3.592,0.299 5.545,4.796 10.001,4 z"
   id="path5016"
   style="fill:#f8ed9b;fill-rule:evenodd" />
	<path
   clip-rule="evenodd"
   d="m 153.333,329.908 c 0,0.889 0,1.777 0,2.666 -7.741,1.602 -13.256,4.148 -21.333,0.667 7.61,-7.925 14.029,3.066 21.333,-3.333 z"
   id="path5018"
   style="fill:#f8ed9b;fill-rule:evenodd" />
	<path
   clip-rule="evenodd"
   d="m 52,333.908 c 1.045,0.235 -0.583,1.173 0.667,1.333 -3.812,0.827 -8.587,3.139 -12.667,4.667 2.291,-5.34 9.066,-2.545 12,-6 z"
   id="path5020"
   style="fill:#f8ed9b;fill-rule:evenodd" />
	<path
   clip-rule="evenodd"
   d="m 48,351.241 c -0.593,-0.41 -1.192,-0.806 -1.333,0 -2.405,-3.916 3.51,-1.385 2.667,-5.333 2.511,-0.124 3.036,-1.196 4,-1.334 0.362,1.718 -5.689,2.739 -5.334,6.667 z"
   id="path5022"
   style="fill:#f8ed9b;fill-rule:evenodd" />
	<path
   clip-rule="evenodd"
   d="m 64.667,347.241 c -0.509,1.936 -3.16,1.729 -2.667,4.667 -0.875,-0.235 -1.048,-1.174 -2,-1.334 2.442,-0.224 1.368,-3.965 4.667,-3.333 z"
   id="path5024"
   style="fill:#f8ed9b;fill-rule:evenodd" />
</g>
</svg>